<svg width="329" height="369" viewBox="0 0 329 369" fill="none" xmlns="http://www.w3.org/2000/svg">
<path d="M164.591 329V327.903C166.772 327.903 168.985 327.858 171.171 327.771L171.215 328.867C169.014 328.954 166.786 328.999 164.591 329ZM157.97 328.873C155.777 328.788 153.553 328.654 151.359 328.483L151.445 327.39C153.625 327.562 155.835 327.693 158.013 327.778L157.97 328.873ZM177.825 328.469L177.738 327.376C179.914 327.202 182.116 326.98 184.284 326.718L184.415 327.807C182.234 328.071 180.017 328.293 177.825 328.468V328.469ZM144.768 327.83C142.581 327.568 140.375 327.259 138.209 326.911L138.382 325.828C140.534 326.174 142.726 326.48 144.898 326.74L144.768 327.83ZM190.973 326.882L190.798 325.799C192.949 325.451 195.127 325.054 197.268 324.618L197.488 325.692C195.33 326.131 193.137 326.531 190.972 326.882H190.973ZM131.692 325.73C129.533 325.292 127.36 324.806 125.227 324.285L125.488 323.219C127.606 323.738 129.765 324.221 131.909 324.655L131.692 325.73ZM203.951 324.24L203.689 323.176C205.812 322.654 207.95 322.079 210.044 321.476L210.349 322.53C208.241 323.141 206.088 323.717 203.951 324.243V324.24ZM118.827 322.579C116.713 321.969 114.584 321.308 112.502 320.615L112.848 319.573C114.917 320.262 117.031 320.918 119.132 321.525L118.827 322.579ZM216.672 320.556L216.324 319.514C218.394 318.822 220.479 318.079 222.521 317.303L222.91 318.328C220.855 319.109 218.756 319.858 216.672 320.555L216.672 320.556ZM106.244 318.389C104.186 317.609 102.114 316.777 100.084 315.911L100.514 314.902C102.53 315.761 104.589 316.589 106.633 317.363L106.244 318.389ZM229.037 315.86L228.607 314.851C230.611 313.995 232.624 313.087 234.589 312.153L235.06 313.144C233.082 314.084 231.057 314.998 229.037 315.86ZM94.0323 313.185C92.0402 312.239 90.0432 311.241 88.0966 310.218L88.6071 309.247C90.5405 310.264 92.5238 311.255 94.5022 312.194L94.0323 313.185ZM240.973 310.183L240.461 309.212C242.393 308.196 244.328 307.129 246.211 306.038L246.76 306.987C244.863 308.083 242.915 309.159 240.971 310.182L240.973 310.183ZM82.287 307.014C80.3761 305.909 78.4673 304.754 76.6134 303.579L77.2001 302.653C79.0409 303.82 80.937 304.968 82.8354 306.065L82.287 307.014ZM252.417 303.56L251.831 302.633C253.669 301.469 255.513 300.248 257.31 299.006L257.934 299.908C256.124 301.159 254.268 302.387 252.417 303.56ZM71.0841 299.92C69.2707 298.667 67.4618 297.362 65.7077 296.042L66.3657 295.165C68.1083 296.476 69.9052 297.772 71.7064 299.017L71.0841 299.92ZM263.302 296.036L262.644 295.159C264.383 293.851 266.124 292.487 267.819 291.101L268.513 291.951C266.807 293.345 265.054 294.719 263.304 296.035L263.302 296.036ZM60.4941 291.954C58.7916 290.562 57.0945 289.118 55.4495 287.659L56.1766 286.837C57.8117 288.285 59.4984 289.721 61.1894 291.102L60.4941 291.954ZM273.553 287.662L272.826 286.839C274.459 285.391 276.086 283.89 277.66 282.379L278.42 283.17C276.835 284.691 275.198 286.202 273.553 287.66V287.662ZM50.5787 283.165C48.9967 281.646 47.4208 280.07 45.8943 278.483L46.6844 277.723C48.2011 279.3 49.7666 280.865 51.3381 282.374L50.5787 283.165ZM283.105 278.488L282.315 277.727C283.826 276.155 285.33 274.529 286.78 272.893L287.602 273.621C286.141 275.266 284.629 276.905 283.106 278.488H283.105ZM41.4001 273.619C39.9377 271.971 38.494 270.274 37.1062 268.579L37.9555 267.884C39.3329 269.569 40.7679 271.255 42.2204 272.891L41.4001 273.619ZM291.896 268.578L291.046 267.883C292.432 266.189 293.799 264.446 295.111 262.705L295.989 263.363C294.668 265.118 293.291 266.872 291.897 268.576L291.896 268.578ZM33.0194 263.373C31.698 261.618 30.394 259.814 29.1449 258.008L30.0469 257.384C31.2878 259.177 32.583 260.97 33.8957 262.713L33.0194 263.373ZM299.868 257.99L298.966 257.366C300.211 255.565 301.434 253.718 302.604 251.875L303.53 252.462C302.354 254.319 301.122 256.178 299.868 257.992L299.868 257.99ZM25.4908 252.495C24.3158 250.643 23.1615 248.74 22.061 246.84L23.0096 246.292C24.103 248.179 25.2496 250.069 26.4164 251.909L25.4908 252.495ZM306.97 246.793L306.022 246.244C307.118 244.347 308.191 242.406 309.207 240.475L310.177 240.987C309.155 242.93 308.076 244.884 306.971 246.794L306.97 246.793ZM18.8626 241.052C17.8411 239.112 16.8442 237.123 15.9016 235.142L16.8919 234.671C17.829 236.639 18.8193 238.614 19.8337 240.541L18.8626 241.052ZM313.146 235.052L312.155 234.581C313.093 232.607 314.005 230.584 314.864 228.571L315.873 229.001C315.01 231.025 314.09 233.064 313.146 235.052ZM13.1786 229.122C12.315 227.102 11.4826 225.042 10.7051 222.997L11.7299 222.607C12.5025 224.636 13.3294 226.684 14.187 228.69L13.1786 229.122ZM318.355 222.842L317.329 222.453C318.107 220.402 318.852 218.31 319.543 216.239L320.585 216.586C319.887 218.672 319.137 220.777 318.355 222.842ZM8.47611 216.759C7.77809 214.675 7.11351 212.547 6.50212 210.437L7.55546 210.131C8.16356 212.227 8.82375 214.34 9.51739 216.411L8.47611 216.759ZM322.551 210.26L321.497 209.956C322.1 207.863 322.674 205.725 323.197 203.599L324.261 203.861C323.735 206.001 323.16 208.154 322.551 210.26ZM4.78364 204.039C4.2567 201.903 3.76703 199.73 3.32727 197.578L4.402 197.359C4.84066 199.497 5.32485 201.656 5.84796 203.777L4.78364 204.039ZM325.709 197.399L324.634 197.18C325.068 195.041 325.464 192.866 325.812 190.709L326.895 190.884C326.545 193.057 326.146 195.249 325.709 197.4V197.399ZM2.13191 191.063C1.78043 188.898 1.4679 186.692 1.2025 184.505L2.29093 184.374C2.55413 186.546 2.86503 188.737 3.21432 190.887L2.13191 191.063ZM327.815 184.322L326.726 184.192C326.987 182.021 327.207 179.818 327.379 177.646L328.473 177.732C328.299 179.92 328.078 182.137 327.815 184.322ZM0.541755 177.917C0.364644 175.726 0.229761 173.502 0.140932 171.305L1.23759 171.26C1.32642 173.442 1.46021 175.652 1.63623 177.828L0.541755 177.917ZM328.871 171.122L327.774 171.079C327.859 168.894 327.903 166.681 327.903 164.499V164.135H329V164.496C328.999 166.694 328.956 168.922 328.869 171.122H328.871ZM1.09666 164.683H0V164.498C0 162.36 0.0416804 160.192 0.12393 158.061L1.22059 158.104C1.13944 160.221 1.09777 162.373 1.09777 164.501L1.09666 164.683ZM327.758 157.561C327.667 155.383 327.531 153.174 327.352 150.993L328.446 150.904C328.625 153.097 328.762 155.323 328.853 157.515L327.758 157.561ZM1.60391 151.536L0.51053 151.45C0.682706 149.257 0.902045 147.037 1.16141 144.859L2.25039 144.988C1.99263 147.152 1.77554 149.355 1.60391 151.536ZM326.685 144.449C326.421 142.286 326.108 140.095 325.753 137.936L326.836 137.759C327.191 139.932 327.506 142.138 327.772 144.316L326.685 144.449ZM3.15843 138.472L2.07547 138.298C2.42311 136.127 2.81955 133.934 3.25438 131.781L4.32912 132C3.89704 134.139 3.50332 136.317 3.15788 138.474L3.15843 138.472ZM324.561 131.465C324.123 129.322 323.632 127.163 323.108 125.049L324.173 124.785C324.701 126.915 325.192 129.088 325.635 131.245L324.561 131.465ZM5.76136 125.576L4.69594 125.316C5.21741 123.181 5.79261 121.028 6.39852 118.914L7.45241 119.217C6.84763 121.318 6.27953 123.457 5.7614 125.577L5.76136 125.576ZM321.396 118.696C320.786 116.601 320.124 114.489 319.428 112.418L320.47 112.068C321.17 114.152 321.837 116.28 322.451 118.388L321.396 118.696ZM9.40013 112.935L8.35831 112.589C9.0525 110.501 9.79987 108.395 10.5801 106.33L11.6061 106.718C10.8317 108.768 10.0894 110.86 9.40013 112.935ZM317.203 106.225C316.424 104.185 315.595 102.139 314.74 100.144L315.747 99.7117C316.609 101.72 317.444 103.78 318.228 105.833L317.203 106.225ZM14.0648 100.597L13.0553 100.168C13.9173 98.1418 14.833 96.1047 15.7767 94.1143L16.7675 94.5837C15.8303 96.5615 14.9207 98.5849 14.0648 100.597ZM312.033 94.1664C311.094 92.2006 310.102 90.2266 309.085 88.2992L310.055 87.7871C311.08 89.7271 312.078 91.7143 313.023 93.6932L312.033 94.1664ZM19.7115 88.6858L18.7404 88.1764C19.7625 86.2282 20.8394 84.2728 21.9405 82.3641L22.8902 82.9124C21.7968 84.8091 20.727 86.7513 19.7121 88.6864L19.7115 88.6858ZM305.901 82.5549C304.804 80.667 303.656 78.7785 302.488 76.941L303.413 76.3527C304.59 78.2028 305.745 80.1038 306.85 82.0044L305.901 82.5549ZM26.2986 77.2766L25.3719 76.6905C26.5486 74.8305 27.7786 72.9695 29.0282 71.1594L29.9308 71.7823C28.6899 73.5809 27.4682 75.4293 26.2992 77.2772L26.2986 77.2766ZM298.851 71.4676C297.607 69.6751 296.31 67.8831 294.996 66.1433L295.874 65.4825C297.196 67.2372 298.502 69.0379 299.754 70.843L298.851 71.4676ZM33.7795 66.4394L32.9022 65.7814C34.2237 64.0223 35.5984 62.2671 36.9884 60.5634L37.8383 61.2571C36.4576 62.9487 35.0917 64.6929 33.7807 66.4399L33.7795 66.4394ZM290.93 60.9758C289.547 59.288 288.109 57.6057 286.66 55.9744L287.479 55.2457C288.939 56.888 290.385 58.5817 291.778 60.281L290.93 60.9758ZM42.1054 56.2409L41.2829 55.5144C42.7388 53.8694 44.2494 52.2304 45.7721 50.6424L46.5634 51.4019C45.0505 52.9789 43.5475 54.6074 42.1038 56.2409H42.1054ZM282.195 51.1458C280.677 49.571 279.11 48.0082 277.534 46.4998L278.293 45.708C279.878 47.2269 281.456 48.8 282.983 50.3853L282.195 51.1458ZM51.2138 46.7454L50.4532 45.9553C52.0357 44.4326 53.6719 42.9202 55.3158 41.4589L56.044 42.2814C54.4083 43.7307 52.7831 45.2331 51.211 46.746L51.2138 46.7454ZM272.694 42.0424C271.056 40.5937 269.367 39.1603 267.677 37.7818L268.37 36.9319C270.07 38.3192 271.77 39.7624 273.421 41.221L272.694 42.0424ZM61.0453 38.0121L60.35 37.1638C62.0499 35.77 63.8045 34.3942 65.5543 33.0738L66.2123 33.9512C64.4745 35.2611 62.7353 36.6281 61.0453 38.0121ZM262.488 33.7258C260.739 32.4125 258.94 31.119 257.143 29.8798L257.766 28.9772C259.575 30.2247 261.385 31.527 263.147 32.849L262.488 33.7258ZM71.5421 30.0969L70.9169 29.1955C72.7264 27.9425 74.5793 26.7121 76.4293 25.537L77.0171 26.4626C75.1797 27.6294 73.3373 28.8517 71.5415 30.0964L71.5421 30.0969ZM251.647 26.2504C249.798 25.0824 247.901 23.9369 246.007 22.8452L246.556 21.8955C248.461 22.9922 250.371 24.1475 252.233 25.3231L251.647 26.2504ZM82.6331 23.0536L82.0848 22.105C83.9809 21.0056 85.9275 19.9281 87.8697 18.9032L88.3819 19.8732C86.4499 20.8909 84.5167 21.9607 82.6331 23.0536ZM240.234 19.6698C238.297 18.6549 236.313 17.6657 234.335 16.7297L234.804 15.7383C236.795 16.6809 238.793 17.6766 240.742 18.6993L240.234 19.6698ZM94.2474 16.9282L93.7752 15.9379C95.7525 14.9953 97.7781 14.079 99.7954 13.2148L100.227 14.2227C98.2233 15.0808 96.2115 15.991 94.2474 16.9282ZM228.319 14.0297C226.303 13.1737 224.244 12.3485 222.197 11.5753L222.585 10.5494C224.645 11.3269 226.719 12.1587 228.747 13.0202L228.319 14.0297ZM106.31 11.7623L105.92 10.7375C107.972 9.95499 110.069 9.20213 112.155 8.5041L112.504 9.54594C110.432 10.2385 108.348 10.9853 106.31 11.7623ZM215.981 9.37156C213.909 8.6845 211.794 8.03034 209.696 7.42772L209.999 6.37383C212.112 6.98028 214.24 7.63883 216.326 8.33083L215.981 9.37156ZM118.783 7.57961L118.476 6.52681C120.585 5.91323 122.738 5.33419 124.873 4.80614L125.136 5.87046C123.015 6.39408 120.878 6.96932 118.783 7.57961ZM203.336 5.7416C201.219 5.22507 199.059 4.74473 196.914 4.31319L197.13 3.23791C199.289 3.67219 201.462 4.15637 203.596 4.67619L203.336 5.7416ZM131.554 4.42121L131.334 3.34703C133.484 2.90836 135.676 2.50424 137.848 2.15001L138.025 3.23242C135.866 3.58281 133.689 3.98309 131.553 4.42011L131.554 4.42121ZM190.439 3.14579C188.282 2.80198 186.09 2.49711 183.922 2.24104L184.051 1.15205C186.233 1.41031 188.438 1.71683 190.611 2.06338L190.439 3.14579ZM144.538 2.30519L144.405 1.21675C146.587 0.951359 148.803 0.723252 150.994 0.548333L151.083 1.64116C148.906 1.81663 146.704 2.04144 144.538 2.30409V2.30519ZM177.375 1.59784C175.201 1.42841 172.988 1.30065 170.807 1.21785L170.848 0.121182C173.047 0.204529 175.271 0.333385 177.46 0.505014L177.375 1.59784ZM157.65 1.23869L157.605 0.14202C159.799 0.0515448 162.026 0.00383833 164.227 0V1.09667C162.042 1.10051 159.828 1.14821 157.65 1.23759L157.65 1.23869Z" fill="#CCCCCC"/>
<path d="M266.491 369H62.5097C52.3144 368.989 44.0111 361.174 44 351.579V73.4211C44.0117 63.8255 52.315 56.0107 62.5094 56H266.49C276.686 56.0107 284.989 63.8255 285 73.4208V351.579C284.988 361.175 276.685 368.989 266.491 369Z" fill="#3F3D56"/>
<path d="M269.013 352H60.9869C57.6896 351.997 55.004 349.618 55 346.698V80.3024C55.004 77.3818 57.6896 75.0035 60.9866 75H269.013C272.31 75.0035 274.996 77.3818 275 80.3021V346.698C274.996 349.618 272.31 351.997 269.013 352Z" fill="white"/>
<path d="M164.998 160C160.667 160.002 156.378 159.151 152.375 157.495C148.373 155.839 144.735 153.411 141.671 150.349C138.607 147.288 136.176 143.653 134.516 139.652C132.857 135.65 132.002 131.362 132 127.03V127C132 126.931 132 126.858 132.004 126.789C132.045 120.271 134.016 113.912 137.667 108.513C141.318 103.114 146.486 98.9173 152.52 96.4519C158.553 93.9865 165.181 93.363 171.568 94.66C177.955 95.957 183.815 99.1164 188.409 103.74C193.003 108.363 196.125 114.243 197.381 120.639C198.637 127.034 197.972 133.659 195.468 139.676C192.965 145.694 188.735 150.835 183.313 154.452C177.891 158.069 171.52 159.999 165.002 159.999H164.998V160ZM164.998 94.6947C156.47 94.714 148.294 98.098 142.246 104.111C136.199 110.125 132.768 118.282 132.701 126.811C132.697 126.884 132.697 126.945 132.697 127C132.696 133.39 134.591 139.636 138.14 144.949C141.69 150.262 146.735 154.403 152.638 156.849C158.541 159.295 165.036 159.935 171.303 158.689C177.57 157.443 183.327 154.366 187.845 149.848C192.363 145.33 195.441 139.574 196.688 133.307C197.935 127.04 197.295 120.544 194.85 114.641C192.406 108.737 188.265 103.691 182.953 100.141C177.64 96.5903 171.395 94.6951 165.005 94.6947H164.998Z" fill="#E4E4E4"/>
<path d="M99.7009 193.169V182.307C99.7009 181.695 99.469 181.108 99.0563 180.676C98.6435 180.243 98.0837 180 97.5 180C96.9163 180 96.3565 180.243 95.9437 180.676C95.531 181.108 95.2991 181.695 95.2991 182.307V193.169C94.4308 193.68 93.7485 194.477 93.3589 195.437C92.9694 196.398 92.8945 197.466 93.1461 198.476C93.3977 199.485 93.9616 200.379 94.7494 201.016C95.5372 201.654 96.5046 202 97.5 202C98.4954 202 99.4628 201.654 100.251 201.016C101.038 200.379 101.602 199.485 101.854 198.476C102.105 197.466 102.031 196.398 101.641 195.437C101.251 194.477 100.569 193.68 99.7009 193.169Z" fill="#70C368"/>
<path d="M97 182.654C97.0214 182.475 97.136 182.309 97.3212 182.188C97.5064 182.067 97.7486 182 98 182C98.2514 182 98.4936 182.067 98.6788 182.188C98.864 182.309 98.9786 182.475 99 182.654V189H97V182.654Z" fill="white"/>
<path opacity="0.999" d="M241 190H117V192H241V190Z" fill="#E6E6E6"/>
<path d="M157.5 194C159.433 194 161 192.657 161 191C161 189.343 159.433 188 157.5 188C155.567 188 154 189.343 154 191C154 192.657 155.567 194 157.5 194Z" fill="#70C368"/>
<path d="M158 190H117V192H158V190Z" fill="#70C368"/>
<path d="M241 231H117V233H241V231Z" fill="#E6E6E6"/>
<path d="M188.5 236C190.433 236 192 234.433 192 232.5C192 230.567 190.433 229 188.5 229C186.567 229 185 230.567 185 232.5C185 234.433 186.567 236 188.5 236Z" fill="#70C368"/>
<path d="M189 231H117V233H189V231Z" fill="#70C368"/>
<path d="M241 270H117V271H241V270Z" fill="#E6E6E6"/>
<path d="M222.5 274C224.433 274 226 272.433 226 270.5C226 268.567 224.433 267 222.5 267C220.567 267 219 268.567 219 270.5C219 272.433 220.567 274 222.5 274Z" fill="#70C368"/>
<path d="M223 270H117V271H223V270Z" fill="#70C368"/>
<path d="M241 308H117V309H241V308Z" fill="#E6E6E6"/>
<path d="M157.5 312C159.433 312 161 310.433 161 308.5C161 306.567 159.433 305 157.5 305C155.567 305 154 306.567 154 308.5C154 310.433 155.567 312 157.5 312Z" fill="#70C368"/>
<path d="M158 308H117V309H158V308Z" fill="#70C368"/>
<path d="M164.479 70C163.438 69.9951 162.431 69.6294 161.629 68.9653C160.828 68.3012 160.281 67.3797 160.083 66.3578C159.884 65.3359 160.046 64.2768 160.541 63.361C161.036 62.4451 161.833 61.7291 162.796 61.335C163.76 60.9409 164.83 60.893 165.825 61.1995C166.82 61.506 167.678 62.1479 168.252 63.0159C168.827 63.8839 169.083 64.9243 168.976 65.9599C168.87 66.9954 168.408 67.962 167.669 68.6951C167.249 69.1115 166.751 69.4411 166.204 69.665C165.656 69.8889 165.07 70.0027 164.479 70Z" fill="white"/>
<path d="M98 199C99.1046 199 100 198.105 100 197C100 195.895 99.1046 195 98 195C96.8954 195 96 195.895 96 197C96 198.105 96.8954 199 98 199Z" fill="white"/>
<path d="M102.993 229.991C103.028 230.635 102.937 231.28 102.727 231.886C102.517 232.492 102.192 233.046 101.772 233.515C101.351 233.984 100.844 234.358 100.281 234.613C99.7187 234.868 99.1126 235 98.5 235C97.8874 235 97.2813 234.868 96.7187 234.613C96.1562 234.358 95.649 233.984 95.2284 233.515C94.8078 233.046 94.4826 232.492 94.2726 231.886C94.0626 231.28 93.9724 230.635 94.0073 229.991C94.0073 227.225 98.2357 224.426 98.2357 219.417C98.2357 216.804 102.993 227.225 102.993 229.991Z" fill="#70C368"/>
<path d="M100.996 229.87C101.015 230.272 100.965 230.675 100.849 231.054C100.732 231.432 100.551 231.779 100.317 232.072C100.084 232.365 99.8021 232.599 99.4896 232.758C99.177 232.918 98.8403 233 98.5 233C98.1597 233 97.823 232.918 97.5104 232.758C97.1979 232.599 96.9162 232.365 96.6825 232.072C96.4488 231.779 96.2681 231.432 96.1515 231.054C96.0348 230.675 95.9847 230.272 96.0041 229.87C96.0041 228.141 98.3532 226.391 98.3532 223.26C98.3532 221.627 100.996 228.141 100.996 229.87Z" fill="white"/>
<path d="M97.9972 261C94.1224 261 91 263.926 91 267.545C91.0081 268.624 91.2858 269.684 91.8076 270.627C92.3294 271.57 93.0787 272.366 93.9867 272.943V275.062C93.9955 275.319 94.1058 275.563 94.2934 275.739C94.4809 275.915 94.7303 276.008 94.9867 275.999L94.9879 275.999H101.006C101.263 276.009 101.512 275.915 101.7 275.74C101.888 275.564 101.998 275.321 102.008 275.063L102.008 275.062V272.943C102.917 272.368 103.668 271.572 104.191 270.628C104.714 269.685 104.992 268.625 105 267.545C105 263.926 101.872 261 97.9972 261Z" fill="#70C368"/>
<path d="M97.998 263C95.2303 263 93 265.146 93 267.8C93.0058 268.591 93.2041 269.368 93.5769 270.06C93.9496 270.751 94.4848 271.335 95.1333 271.758V273.312C95.1365 273.406 95.1574 273.497 95.195 273.583C95.2326 273.668 95.2861 273.744 95.3524 273.808C95.4187 273.872 95.4966 273.922 95.5816 273.955C95.6666 273.988 95.757 274.003 95.8476 274H95.8485H100.147C100.331 274.006 100.509 273.938 100.643 273.809C100.777 273.68 100.856 273.502 100.863 273.313V273.312V271.758C101.512 271.336 102.049 270.753 102.422 270.061C102.796 269.369 102.995 268.592 103 267.8C103 265.146 100.766 263 97.998 263Z" fill="white"/>
<path d="M95.5 277C95.3674 277 95.2402 277.053 95.1465 277.146C95.0527 277.24 95 277.367 95 277.5C95 277.633 95.0527 277.76 95.1465 277.854C95.2402 277.947 95.3674 278 95.5 278H100.5C100.633 278 100.76 277.947 100.854 277.854C100.947 277.76 101 277.633 101 277.5C101 277.367 100.947 277.24 100.854 277.146C100.76 277.053 100.633 277 100.5 277H95.5Z" fill="#70C368"/>
<path d="M95.5 279C95.3674 279 95.2402 279.053 95.1465 279.146C95.0527 279.24 95 279.367 95 279.5C95 279.633 95.0527 279.76 95.1465 279.854C95.2402 279.947 95.3674 280 95.5 280H100.5C100.633 280 100.76 279.947 100.854 279.854C100.947 279.76 101 279.633 101 279.5C101 279.367 100.947 279.24 100.854 279.146C100.76 279.053 100.633 279 100.5 279H95.5Z" fill="#70C368"/>
<path d="M101.756 301L101.927 300.534C101.989 300.364 102.012 300.18 101.994 299.999C101.976 299.817 101.918 299.643 101.824 299.491C101.731 299.34 101.605 299.216 101.457 299.13C101.31 299.045 101.145 299 100.978 299H94.0217C93.7507 299 93.4909 299.118 93.2992 299.327C93.1076 299.537 93 299.822 93 300.118V301H101.756Z" fill="#70C368"/>
<path d="M100.962 306.128C100.792 306.128 100.625 306.09 100.475 306.015C100.325 305.941 100.197 305.833 100.102 305.702C100.007 305.571 99.9476 305.42 99.9294 305.262C99.9113 305.104 99.9348 304.945 99.9978 304.798L101.197 302H93V308.161C93 308.288 93.0269 308.415 93.079 308.532C93.1312 308.65 93.2077 308.757 93.3041 308.847C93.4005 308.937 93.515 309.008 93.6409 309.057C93.7669 309.106 93.9019 309.131 94.0383 309.131H95.1756C95.451 309.131 95.7151 309.233 95.9098 309.415C96.1045 309.597 96.2139 309.844 96.2139 310.101V314.03C96.2139 314.248 96.2929 314.461 96.438 314.632C96.5832 314.803 96.786 314.924 97.0136 314.974C97.2412 315.024 97.4804 315.001 97.6922 314.909C97.904 314.816 98.0762 314.659 98.1808 314.464L101.89 307.532C101.97 307.384 102.007 307.22 101.999 307.055C101.991 306.89 101.938 306.729 101.845 306.588C101.752 306.448 101.622 306.332 101.467 306.251C101.313 306.171 101.139 306.128 100.962 306.128Z" fill="#70C368"/>
<path d="M93.8824 236C93.6483 236 93.4239 236.053 93.2584 236.146C93.093 236.24 93 236.367 93 236.5C93 236.633 93.093 236.76 93.2584 236.854C93.4239 236.947 93.6483 237 93.8824 237H102.118C102.352 237 102.576 236.947 102.742 236.854C102.907 236.76 103 236.633 103 236.5C103 236.367 102.907 236.24 102.742 236.146C102.576 236.053 102.352 236 102.118 236H93.8824Z" fill="#70C368"/>
<path d="M93.8824 239C93.6483 239 93.4239 239.105 93.2584 239.293C93.093 239.48 93 239.735 93 240C93 240.265 93.093 240.52 93.2584 240.707C93.4239 240.895 93.6483 241 93.8824 241H102.118C102.352 241 102.576 240.895 102.742 240.707C102.907 240.52 103 240.265 103 240C103 239.735 102.907 239.48 102.742 239.293C102.576 239.105 102.352 239 102.118 239H93.8824Z" fill="#70C368"/>
<path d="M167.5 137C167.776 137 168 136.776 168 136.5C168 136.224 167.776 136 167.5 136C167.224 136 167 136.224 167 136.5C167 136.776 167.224 137 167.5 137Z" fill="#70C368"/>
<path d="M179.821 126.443L165.374 113.147C165.271 113.052 165.137 113 164.997 113C164.858 113 164.724 113.052 164.621 113.147L158.015 119.229V116.53C158.015 116.383 157.957 116.243 157.853 116.139C157.749 116.035 157.608 115.977 157.46 115.977H156.351C156.204 115.977 156.063 116.035 155.959 116.139C155.855 116.243 155.796 116.383 155.796 116.53V121.272L150.178 126.443C150.096 126.519 150.039 126.617 150.014 126.726C149.989 126.834 149.997 126.948 150.038 127.051C150.079 127.155 150.15 127.244 150.242 127.307C150.334 127.369 150.443 127.403 150.555 127.403H153.336C153.483 127.403 153.624 127.461 153.728 127.565C153.832 127.669 153.891 127.809 153.891 127.956V141.447C153.891 141.594 153.949 141.734 154.053 141.838C154.157 141.942 154.298 142 154.446 142H175.549C175.696 142 175.838 141.942 175.942 141.838C176.046 141.734 176.104 141.594 176.104 141.447V127.956C176.104 127.809 176.163 127.669 176.267 127.565C176.371 127.461 176.512 127.403 176.659 127.403H179.445C179.557 127.403 179.666 127.369 179.758 127.307C179.85 127.244 179.921 127.155 179.962 127.051C180.003 126.948 180.011 126.834 179.986 126.726C179.961 126.617 179.904 126.519 179.821 126.443ZM161.891 132.265H168.104C168.251 132.265 168.392 132.323 168.496 132.427C168.601 132.531 168.659 132.671 168.659 132.818V140.894H161.336V132.818C161.336 132.671 161.394 132.531 161.498 132.427C161.602 132.323 161.744 132.265 161.891 132.265Z" fill="#70C368"/>
</svg>
