<svg width="21" height="21" viewBox="0 0 21 21" fill="none" xmlns="http://www.w3.org/2000/svg">
<path d="M14 11.2V9.80005H15.4V11.2H14Z" fill="#6F1C7B"/>
<path fill-rule="evenodd" clip-rule="evenodd" d="M10.4999 0.5896L19.5999 5.89793V15.1021L10.4999 20.4103L1.3999 15.1021V5.89793L10.4999 0.5896ZM8.86409 5.6C6.28813 5.6 4.1999 7.68823 4.1999 10.2642V10.7358C4.1999 13.3118 6.28813 15.4 8.86409 15.4C9.58818 15.4 10.3023 15.2314 10.95 14.9076L11.513 14.6261L10.8868 13.3739L10.3239 13.6554C9.87063 13.882 9.37083 14 8.86409 14C7.06132 14 5.5999 12.5386 5.5999 10.7358V10.2642C5.5999 8.46142 7.06132 7 8.86409 7C9.37083 7 9.87063 7.11798 10.3239 7.34461L10.8868 7.62609L11.513 6.37391L10.95 6.09241C10.3023 5.76859 9.58818 5.6 8.86409 5.6ZM12.5999 7V8.4H11.1999V9.8H12.5999V11.2H11.1999V12.6H12.5999V14H13.9999V12.6H15.3999V14H16.7999V12.6H18.1999V11.2H16.7999V9.8H18.1999V8.4H16.7999V7H15.3999V8.4H13.9999V7H12.5999Z" fill="#6F1C7B"/>
</svg>
