<svg width="664" height="43" viewBox="0 0 664 43" fill="none" xmlns="http://www.w3.org/2000/svg">
<path d="M10.181 30.8291V12.1391H16.541C18.001 12.1391 19.191 12.3891 20.111 12.8891C21.051 13.3891 21.741 14.0491 22.181 14.8691C22.641 15.6891 22.871 16.6091 22.871 17.6291C22.871 18.3691 22.741 19.0691 22.481 19.7291C22.241 20.3691 21.861 20.9391 21.341 21.4391C20.841 21.9191 20.201 22.2991 19.421 22.5791C18.661 22.8591 17.751 22.9991 16.691 22.9991H13.631V30.8291H10.181ZM13.631 20.1791H16.451C17.091 20.1791 17.631 20.0691 18.071 19.8491C18.511 19.6291 18.841 19.3291 19.061 18.9491C19.281 18.5691 19.391 18.1291 19.391 17.6291C19.391 17.1291 19.281 16.6891 19.061 16.3091C18.841 15.9291 18.511 15.6291 18.071 15.4091C17.651 15.1891 17.121 15.0791 16.481 15.0791H13.631V20.1791ZM26.411 16.8791H29.921L29.891 20.7791L29.501 20.5391C29.581 19.9191 29.751 19.3691 30.011 18.8891C30.291 18.4091 30.631 17.9891 31.031 17.6291C31.451 17.2691 31.901 16.9991 32.381 16.8191C32.881 16.6391 33.391 16.5491 33.911 16.5491C34.691 16.5491 35.391 16.6791 36.011 16.9391C36.651 17.1791 37.241 17.5791 37.781 18.1391L36.341 20.9891L36.251 21.2291L35.981 21.1091C35.921 20.9491 35.861 20.7891 35.801 20.6291C35.741 20.4491 35.591 20.2491 35.351 20.0291C35.071 19.8091 34.771 19.6391 34.451 19.5191C34.151 19.3991 33.821 19.3391 33.461 19.3391C32.981 19.3391 32.521 19.4191 32.081 19.5791C31.641 19.7391 31.251 19.9891 30.911 20.3291C30.591 20.6691 30.331 21.1091 30.131 21.6491C29.951 22.1691 29.861 22.7891 29.861 23.5091V30.8291H26.411V16.8791ZM46.211 31.1291C44.971 31.1291 43.841 30.8291 42.821 30.2291C41.821 29.6091 41.031 28.7491 40.451 27.6491C39.871 26.5491 39.581 25.2791 39.581 23.8391C39.581 22.4591 39.871 21.2191 40.451 20.1191C41.031 19.0191 41.821 18.1491 42.821 17.5091C43.841 16.8691 44.971 16.5491 46.211 16.5491C47.471 16.5491 48.601 16.8691 49.601 17.5091C50.621 18.1491 51.421 19.0191 52.001 20.1191C52.601 21.2191 52.901 22.4591 52.901 23.8391C52.901 25.2791 52.601 26.5491 52.001 27.6491C51.421 28.7491 50.621 29.6091 49.601 30.2291C48.601 30.8291 47.471 31.1291 46.211 31.1291ZM46.211 28.4291C46.871 28.4291 47.441 28.2391 47.921 27.8591C48.401 27.4591 48.781 26.9191 49.061 26.2391C49.361 25.5391 49.511 24.7391 49.511 23.8391C49.511 22.8991 49.361 22.0891 49.061 21.4091C48.781 20.7291 48.401 20.2091 47.921 19.8491C47.441 19.4691 46.871 19.2791 46.211 19.2791C45.611 19.2791 45.061 19.4691 44.561 19.8491C44.081 20.2091 43.691 20.7291 43.391 21.4091C43.111 22.0891 42.971 22.8991 42.971 23.8391C42.971 24.7391 43.111 25.5391 43.391 26.2391C43.671 26.9191 44.051 27.4591 44.531 27.8591C45.031 28.2391 45.591 28.4291 46.211 28.4291ZM57.911 19.5191H54.881V16.8791H57.911V16.0391C57.911 14.7591 58.171 13.7191 58.691 12.9191C59.231 12.0991 59.941 11.4891 60.821 11.0891C61.701 10.6891 62.651 10.4891 63.671 10.4891C64.611 10.4891 65.481 10.6591 66.281 10.9991C67.101 11.3191 67.791 11.7891 68.351 12.4091L67.091 14.7191L66.941 14.9591L66.701 14.8091C66.641 14.6691 66.581 14.5291 66.521 14.3891C66.461 14.2291 66.301 14.0391 66.041 13.8191C65.701 13.5791 65.361 13.4091 65.021 13.3091C64.681 13.1891 64.291 13.1291 63.851 13.1291C63.331 13.1291 62.871 13.2391 62.471 13.4591C62.071 13.6791 61.771 13.9991 61.571 14.4191C61.371 14.8391 61.271 15.3691 61.271 16.0091V16.8791H65.471V19.5191H61.271V30.8291H57.911V19.5191ZM76.871 31.1591C75.871 31.1591 74.941 30.9991 74.081 30.6791C73.241 30.3591 72.501 29.8991 71.861 29.2991C71.241 28.6791 70.761 27.9191 70.421 27.0191C70.081 26.1191 69.911 25.0991 69.911 23.9591C69.911 22.7991 70.081 21.7591 70.421 20.8391C70.761 19.9191 71.221 19.1391 71.801 18.4991C72.401 17.8591 73.101 17.3791 73.901 17.0591C74.701 16.7191 75.561 16.5491 76.481 16.5491C77.301 16.5491 78.071 16.6891 78.791 16.9691C79.511 17.2491 80.141 17.6791 80.681 18.2591C81.241 18.8191 81.681 19.5291 82.001 20.3891C82.321 21.2291 82.481 22.2091 82.481 23.3291C82.481 23.5291 82.471 23.7691 82.451 24.0491C82.451 24.3291 82.441 24.5691 82.421 24.7691H73.181C73.221 25.4291 73.351 25.9991 73.571 26.4791C73.791 26.9391 74.081 27.3191 74.441 27.6191C74.801 27.9191 75.201 28.1491 75.641 28.3091C76.081 28.4491 76.541 28.5191 77.021 28.5191C77.441 28.5191 77.841 28.4791 78.221 28.3991C78.621 28.3191 78.991 28.1791 79.331 27.9791C79.691 27.7791 80.031 27.5191 80.351 27.1991L82.091 28.8791C81.651 29.3991 81.151 29.8391 80.591 30.1991C80.051 30.5391 79.461 30.7791 78.821 30.9191C78.201 31.0791 77.551 31.1591 76.871 31.1591ZM73.241 22.2191H79.181C79.181 21.7391 79.111 21.3091 78.971 20.9291C78.851 20.5491 78.671 20.2291 78.431 19.9691C78.191 19.7091 77.891 19.5191 77.531 19.3991C77.191 19.2591 76.791 19.1891 76.331 19.1891C75.951 19.1891 75.581 19.2491 75.221 19.3691C74.881 19.4691 74.571 19.6491 74.291 19.9091C74.011 20.1691 73.781 20.4891 73.601 20.8691C73.421 21.2491 73.301 21.6991 73.241 22.2191ZM91.511 31.1591C90.671 31.1591 89.861 31.0791 89.081 30.9191C88.301 30.7791 87.581 30.5491 86.921 30.2291C86.261 29.8891 85.651 29.4591 85.091 28.9391L86.591 26.1791L86.711 25.9391L86.951 26.0891C87.011 26.2291 87.071 26.3891 87.131 26.5691C87.191 26.7291 87.341 26.9191 87.581 27.1391C88.081 27.5591 88.651 27.8891 89.291 28.1291C89.931 28.3691 90.691 28.4891 91.571 28.4891C92.131 28.4891 92.601 28.4291 92.981 28.3091C93.381 28.1691 93.681 27.9891 93.881 27.7691C94.101 27.5291 94.211 27.2591 94.211 26.9591C94.211 26.7191 94.151 26.5091 94.031 26.3291C93.911 26.1491 93.721 25.9891 93.461 25.8491C93.201 25.7091 92.861 25.5691 92.441 25.4291C92.021 25.2691 91.521 25.0991 90.941 24.9191C89.921 24.6591 89.031 24.3391 88.271 23.9591C87.531 23.5591 86.961 23.0791 86.561 22.5191C86.161 21.9591 85.961 21.3091 85.961 20.5691C85.961 19.7891 86.181 19.0991 86.621 18.4991C87.081 17.8991 87.721 17.4291 88.541 17.0891C89.361 16.7291 90.331 16.5491 91.451 16.5491C92.031 16.5491 92.581 16.5991 93.101 16.6991C93.621 16.7791 94.111 16.9091 94.571 17.0891C95.051 17.2491 95.491 17.4691 95.891 17.7491C96.311 18.0091 96.701 18.3191 97.061 18.6791L95.411 20.9891L95.201 21.2291L94.991 21.0491C94.971 20.8891 94.921 20.7391 94.841 20.5991C94.781 20.4391 94.631 20.2491 94.391 20.0291C93.991 19.7291 93.531 19.5091 93.011 19.3691C92.511 19.2291 92.011 19.1591 91.511 19.1591C90.831 19.1591 90.241 19.2691 89.741 19.4891C89.261 19.7091 89.021 20.0491 89.021 20.5091C89.021 20.7691 89.131 21.0091 89.351 21.2291C89.571 21.4291 89.931 21.6291 90.431 21.8291C90.951 22.0091 91.631 22.2091 92.471 22.4291C93.591 22.7291 94.501 23.0791 95.201 23.4791C95.921 23.8591 96.441 24.3191 96.761 24.8591C97.101 25.3991 97.271 26.0291 97.271 26.7491C97.271 27.5291 97.051 28.2591 96.611 28.9391C96.171 29.6191 95.521 30.1591 94.661 30.5591C93.821 30.9591 92.771 31.1591 91.511 31.1591ZM106.511 31.1591C105.671 31.1591 104.861 31.0791 104.081 30.9191C103.301 30.7791 102.581 30.5491 101.921 30.2291C101.261 29.8891 100.651 29.4591 100.091 28.9391L101.591 26.1791L101.711 25.9391L101.951 26.0891C102.011 26.2291 102.071 26.3891 102.131 26.5691C102.191 26.7291 102.341 26.9191 102.581 27.1391C103.081 27.5591 103.651 27.8891 104.291 28.1291C104.931 28.3691 105.691 28.4891 106.571 28.4891C107.131 28.4891 107.601 28.4291 107.981 28.3091C108.381 28.1691 108.681 27.9891 108.881 27.7691C109.101 27.5291 109.211 27.2591 109.211 26.9591C109.211 26.7191 109.151 26.5091 109.031 26.3291C108.911 26.1491 108.721 25.9891 108.461 25.8491C108.201 25.7091 107.861 25.5691 107.441 25.4291C107.021 25.2691 106.521 25.0991 105.941 24.9191C104.921 24.6591 104.031 24.3391 103.271 23.9591C102.531 23.5591 101.961 23.0791 101.561 22.5191C101.161 21.9591 100.961 21.3091 100.961 20.5691C100.961 19.7891 101.181 19.0991 101.621 18.4991C102.081 17.8991 102.721 17.4291 103.541 17.0891C104.361 16.7291 105.331 16.5491 106.451 16.5491C107.031 16.5491 107.581 16.5991 108.101 16.6991C108.621 16.7791 109.111 16.9091 109.571 17.0891C110.051 17.2491 110.491 17.4691 110.891 17.7491C111.311 18.0091 111.701 18.3191 112.061 18.6791L110.411 20.9891L110.201 21.2291L109.991 21.0491C109.971 20.8891 109.921 20.7391 109.841 20.5991C109.781 20.4391 109.631 20.2491 109.391 20.0291C108.991 19.7291 108.531 19.5091 108.011 19.3691C107.511 19.2291 107.011 19.1591 106.511 19.1591C105.831 19.1591 105.241 19.2691 104.741 19.4891C104.261 19.7091 104.021 20.0491 104.021 20.5091C104.021 20.7691 104.131 21.0091 104.351 21.2291C104.571 21.4291 104.931 21.6291 105.431 21.8291C105.951 22.0091 106.631 22.2091 107.471 22.4291C108.591 22.7291 109.501 23.0791 110.201 23.4791C110.921 23.8591 111.441 24.3191 111.761 24.8591C112.101 25.3991 112.271 26.0291 112.271 26.7491C112.271 27.5291 112.051 28.2591 111.611 28.9391C111.171 29.6191 110.521 30.1591 109.661 30.5591C108.821 30.9591 107.771 31.1591 106.511 31.1591ZM116.261 30.8291V28.1591H119.681V19.5491H116.441V16.8791H123.101V28.1591H126.221V30.8291H116.261ZM121.241 14.5691C120.661 14.5691 120.161 14.3691 119.741 13.9691C119.321 13.5691 119.111 13.0891 119.111 12.5291C119.111 11.9291 119.311 11.4391 119.711 11.0591C120.111 10.6791 120.621 10.4891 121.241 10.4891C121.801 10.4891 122.291 10.6891 122.711 11.0891C123.151 11.4891 123.371 11.9691 123.371 12.5291C123.371 13.0891 123.151 13.5691 122.711 13.9691C122.291 14.3691 121.801 14.5691 121.241 14.5691ZM136.211 31.1291C134.971 31.1291 133.841 30.8291 132.821 30.2291C131.821 29.6091 131.031 28.7491 130.451 27.6491C129.871 26.5491 129.581 25.2791 129.581 23.8391C129.581 22.4591 129.871 21.2191 130.451 20.1191C131.031 19.0191 131.821 18.1491 132.821 17.5091C133.841 16.8691 134.971 16.5491 136.211 16.5491C137.471 16.5491 138.601 16.8691 139.601 17.5091C140.621 18.1491 141.421 19.0191 142.001 20.1191C142.601 21.2191 142.901 22.4591 142.901 23.8391C142.901 25.2791 142.601 26.5491 142.001 27.6491C141.421 28.7491 140.621 29.6091 139.601 30.2291C138.601 30.8291 137.471 31.1291 136.211 31.1291ZM136.211 28.4291C136.871 28.4291 137.441 28.2391 137.921 27.8591C138.401 27.4591 138.781 26.9191 139.061 26.2391C139.361 25.5391 139.511 24.7391 139.511 23.8391C139.511 22.8991 139.361 22.0891 139.061 21.4091C138.781 20.7291 138.401 20.2091 137.921 19.8491C137.441 19.4691 136.871 19.2791 136.211 19.2791C135.611 19.2791 135.061 19.4691 134.561 19.8491C134.081 20.2091 133.691 20.7291 133.391 21.4091C133.111 22.0891 132.971 22.8991 132.971 23.8391C132.971 24.7391 133.111 25.5391 133.391 26.2391C133.671 26.9191 134.051 27.4591 134.531 27.8591C135.031 28.2391 135.591 28.4291 136.211 28.4291ZM145.391 30.8291V16.8791H148.781V18.7991C149.121 18.3591 149.491 17.9691 149.891 17.6291C150.291 17.2891 150.731 17.0291 151.211 16.8491C151.711 16.6491 152.241 16.5491 152.801 16.5491C153.621 16.5491 154.371 16.7491 155.051 17.1491C155.731 17.5291 156.281 18.1491 156.701 19.0091C157.121 19.8691 157.331 20.9991 157.331 22.3991V30.8291H153.941V22.4591C153.941 21.6791 153.861 21.0491 153.701 20.5691C153.541 20.0891 153.301 19.7391 152.981 19.5191C152.681 19.2791 152.321 19.1591 151.901 19.1591C151.521 19.1591 151.141 19.2391 150.761 19.3991C150.401 19.5391 150.071 19.7591 149.771 20.0591C149.471 20.3591 149.231 20.7191 149.051 21.1391C148.871 21.5391 148.781 21.9991 148.781 22.5191V30.8291H145.391ZM164.681 31.1891C163.141 31.1891 161.941 30.8291 161.081 30.1091C160.241 29.3691 159.821 28.4191 159.821 27.2591C159.821 26.5191 159.981 25.8391 160.301 25.2191C160.641 24.5791 161.141 24.0291 161.801 23.5691C162.461 23.1091 163.281 22.7591 164.261 22.5191C165.241 22.2591 166.361 22.1291 167.621 22.1291C167.781 22.1291 167.981 22.1291 168.221 22.1291C168.461 22.1291 168.721 22.1391 169.001 22.1591C169.281 22.1591 169.541 22.1791 169.781 22.2191L169.871 24.5591C169.671 24.5391 169.431 24.5291 169.151 24.5291C168.871 24.5091 168.581 24.4991 168.281 24.4991C168.001 24.4791 167.761 24.4691 167.561 24.4691C166.761 24.4691 166.081 24.5291 165.521 24.6491C164.981 24.7691 164.541 24.9391 164.201 25.1591C163.861 25.3591 163.611 25.6091 163.451 25.9091C163.291 26.1891 163.211 26.4991 163.211 26.8391C163.211 27.1591 163.261 27.4291 163.361 27.6491C163.481 27.8691 163.631 28.0491 163.811 28.1891C164.011 28.3091 164.241 28.3991 164.501 28.4591C164.761 28.5191 165.041 28.5491 165.341 28.5491C165.941 28.5491 166.461 28.4591 166.901 28.2791C167.361 28.0791 167.741 27.7691 168.041 27.3491C168.361 26.9291 168.591 26.4091 168.731 25.7891C168.891 25.1491 168.971 24.3991 168.971 23.5391C168.971 22.3791 168.851 21.4891 168.611 20.8691C168.371 20.2491 168.021 19.8191 167.561 19.5791C167.101 19.3191 166.521 19.1891 165.821 19.1891C165.181 19.1891 164.571 19.2991 163.991 19.5191C163.431 19.7191 162.881 20.0991 162.341 20.6591L160.481 18.6191C161.261 17.8791 162.131 17.3491 163.091 17.0291C164.051 16.7091 165.011 16.5491 165.971 16.5491C166.851 16.5491 167.671 16.6491 168.431 16.8491C169.191 17.0491 169.851 17.3891 170.411 17.8691C170.991 18.3291 171.441 18.9691 171.761 19.7891C172.101 20.5891 172.271 21.5891 172.271 22.7891V30.8291H168.761V29.3291C168.501 29.6691 168.221 29.9591 167.921 30.1991C167.621 30.4391 167.301 30.6291 166.961 30.7691C166.621 30.9091 166.261 31.0091 165.881 31.0691C165.501 31.1491 165.101 31.1891 164.681 31.1891ZM175.631 30.8291V28.1591H179.561V13.3691H175.811V10.6991H182.981V28.1591H186.881V30.8291H175.631ZM205.271 30.8291V12.1391H217.451V14.8991H208.571V19.6991H215.861V22.4891H208.571V28.0691H217.361V30.8291H205.271ZM219.581 30.8291L224.411 23.8391L219.641 16.8791H223.211L226.211 21.1991L229.001 16.8791H232.421L228.011 23.7191L233.021 30.8291H229.361L226.211 26.3891L223.211 30.8291H219.581ZM235.181 35.8391L235.151 16.8491H238.511V18.7991C238.831 18.2791 239.181 17.8591 239.561 17.5391C239.961 17.1991 240.401 16.9491 240.881 16.7891C241.381 16.6291 241.901 16.5491 242.441 16.5491C243.201 16.5491 243.911 16.7091 244.571 17.0291C245.251 17.3291 245.841 17.7891 246.341 18.4091C246.841 19.0291 247.231 19.7991 247.511 20.7191C247.811 21.6191 247.961 22.6791 247.961 23.8991C247.961 25.1191 247.811 26.1891 247.511 27.1091C247.211 28.0291 246.791 28.7891 246.251 29.3891C245.731 29.9891 245.131 30.4391 244.451 30.7391C243.791 31.0391 243.101 31.1891 242.381 31.1891C241.881 31.1891 241.391 31.1291 240.911 31.0091C240.451 30.8891 240.021 30.7191 239.621 30.4991C239.221 30.2591 238.891 29.9691 238.631 29.6291V35.8391H235.181ZM241.451 28.5491C241.891 28.5491 242.301 28.4691 242.681 28.3091C243.061 28.1491 243.391 27.8891 243.671 27.5291C243.971 27.1491 244.201 26.6491 244.361 26.0291C244.521 25.4091 244.601 24.6391 244.601 23.7191C244.601 22.7991 244.481 22.0091 244.241 21.3491C244.001 20.6691 243.661 20.1491 243.221 19.7891C242.781 19.4291 242.251 19.2391 241.631 19.2191C241.151 19.1991 240.721 19.2791 240.341 19.4591C239.981 19.6391 239.671 19.9291 239.411 20.3291C239.151 20.7291 238.951 21.2391 238.811 21.8591C238.671 22.4791 238.601 23.2291 238.601 24.1091C238.621 24.7091 238.671 25.2491 238.751 25.7291C238.831 26.2091 238.941 26.6291 239.081 26.9891C239.241 27.3291 239.431 27.6191 239.651 27.8591C239.871 28.0791 240.131 28.2491 240.431 28.3691C240.731 28.4891 241.071 28.5491 241.451 28.5491ZM256.871 31.1591C255.871 31.1591 254.941 30.9991 254.081 30.6791C253.241 30.3591 252.501 29.8991 251.861 29.2991C251.241 28.6791 250.761 27.9191 250.421 27.0191C250.081 26.1191 249.911 25.0991 249.911 23.9591C249.911 22.7991 250.081 21.7591 250.421 20.8391C250.761 19.9191 251.221 19.1391 251.801 18.4991C252.401 17.8591 253.101 17.3791 253.901 17.0591C254.701 16.7191 255.561 16.5491 256.481 16.5491C257.301 16.5491 258.071 16.6891 258.791 16.9691C259.511 17.2491 260.141 17.6791 260.681 18.2591C261.241 18.8191 261.681 19.5291 262.001 20.3891C262.321 21.2291 262.481 22.2091 262.481 23.3291C262.481 23.5291 262.471 23.7691 262.451 24.0491C262.451 24.3291 262.441 24.5691 262.421 24.7691H253.181C253.221 25.4291 253.351 25.9991 253.571 26.4791C253.791 26.9391 254.081 27.3191 254.441 27.6191C254.801 27.9191 255.201 28.1491 255.641 28.3091C256.081 28.4491 256.541 28.5191 257.021 28.5191C257.441 28.5191 257.841 28.4791 258.221 28.3991C258.621 28.3191 258.991 28.1791 259.331 27.9791C259.691 27.7791 260.031 27.5191 260.351 27.1991L262.091 28.8791C261.651 29.3991 261.151 29.8391 260.591 30.1991C260.051 30.5391 259.461 30.7791 258.821 30.9191C258.201 31.0791 257.551 31.1591 256.871 31.1591ZM253.241 22.2191H259.181C259.181 21.7391 259.111 21.3091 258.971 20.9291C258.851 20.5491 258.671 20.2291 258.431 19.9691C258.191 19.7091 257.891 19.5191 257.531 19.3991C257.191 19.2591 256.791 19.1891 256.331 19.1891C255.951 19.1891 255.581 19.2491 255.221 19.3691C254.881 19.4691 254.571 19.6491 254.291 19.9091C254.011 20.1691 253.781 20.4891 253.601 20.8691C253.421 21.2491 253.301 21.6991 253.241 22.2191ZM266.411 16.8791H269.921L269.891 20.7791L269.501 20.5391C269.581 19.9191 269.751 19.3691 270.011 18.8891C270.291 18.4091 270.631 17.9891 271.031 17.6291C271.451 17.2691 271.901 16.9991 272.381 16.8191C272.881 16.6391 273.391 16.5491 273.911 16.5491C274.691 16.5491 275.391 16.6791 276.011 16.9391C276.651 17.1791 277.241 17.5791 277.781 18.1391L276.341 20.9891L276.251 21.2291L275.981 21.1091C275.921 20.9491 275.861 20.7891 275.801 20.6291C275.741 20.4491 275.591 20.2491 275.351 20.0291C275.071 19.8091 274.771 19.6391 274.451 19.5191C274.151 19.3991 273.821 19.3391 273.461 19.3391C272.981 19.3391 272.521 19.4191 272.081 19.5791C271.641 19.7391 271.251 19.9891 270.911 20.3291C270.591 20.6691 270.331 21.1091 270.131 21.6491C269.951 22.1691 269.861 22.7891 269.861 23.5091V30.8291H266.411V16.8791ZM281.261 30.8291V28.1591H284.681V19.5491H281.441V16.8791H288.101V28.1591H291.221V30.8291H281.261ZM286.241 14.5691C285.661 14.5691 285.161 14.3691 284.741 13.9691C284.321 13.5691 284.111 13.0891 284.111 12.5291C284.111 11.9291 284.311 11.4391 284.711 11.0591C285.111 10.6791 285.621 10.4891 286.241 10.4891C286.801 10.4891 287.291 10.6891 287.711 11.0891C288.151 11.4891 288.371 11.9691 288.371 12.5291C288.371 13.0891 288.151 13.5691 287.711 13.9691C287.291 14.3691 286.801 14.5691 286.241 14.5691ZM301.871 31.1591C300.871 31.1591 299.941 30.9991 299.081 30.6791C298.241 30.3591 297.501 29.8991 296.861 29.2991C296.241 28.6791 295.761 27.9191 295.421 27.0191C295.081 26.1191 294.911 25.0991 294.911 23.9591C294.911 22.7991 295.081 21.7591 295.421 20.8391C295.761 19.9191 296.221 19.1391 296.801 18.4991C297.401 17.8591 298.101 17.3791 298.901 17.0591C299.701 16.7191 300.561 16.5491 301.481 16.5491C302.301 16.5491 303.071 16.6891 303.791 16.9691C304.511 17.2491 305.141 17.6791 305.681 18.2591C306.241 18.8191 306.681 19.5291 307.001 20.3891C307.321 21.2291 307.481 22.2091 307.481 23.3291C307.481 23.5291 307.471 23.7691 307.451 24.0491C307.451 24.3291 307.441 24.5691 307.421 24.7691H298.181C298.221 25.4291 298.351 25.9991 298.571 26.4791C298.791 26.9391 299.081 27.3191 299.441 27.6191C299.801 27.9191 300.201 28.1491 300.641 28.3091C301.081 28.4491 301.541 28.5191 302.021 28.5191C302.441 28.5191 302.841 28.4791 303.221 28.3991C303.621 28.3191 303.991 28.1791 304.331 27.9791C304.691 27.7791 305.031 27.5191 305.351 27.1991L307.091 28.8791C306.651 29.3991 306.151 29.8391 305.591 30.1991C305.051 30.5391 304.461 30.7791 303.821 30.9191C303.201 31.0791 302.551 31.1591 301.871 31.1591ZM298.241 22.2191H304.181C304.181 21.7391 304.111 21.3091 303.971 20.9291C303.851 20.5491 303.671 20.2291 303.431 19.9691C303.191 19.7091 302.891 19.5191 302.531 19.3991C302.191 19.2591 301.791 19.1891 301.331 19.1891C300.951 19.1891 300.581 19.2491 300.221 19.3691C299.881 19.4691 299.571 19.6491 299.291 19.9091C299.011 20.1691 298.781 20.4891 298.601 20.8691C298.421 21.2491 298.301 21.6991 298.241 22.2191ZM310.391 30.8291V16.8791H313.781V18.7991C314.121 18.3591 314.491 17.9691 314.891 17.6291C315.291 17.2891 315.731 17.0291 316.211 16.8491C316.711 16.6491 317.241 16.5491 317.801 16.5491C318.621 16.5491 319.371 16.7491 320.051 17.1491C320.731 17.5291 321.281 18.1491 321.701 19.0091C322.121 19.8691 322.331 20.9991 322.331 22.3991V30.8291H318.941V22.4591C318.941 21.6791 318.861 21.0491 318.701 20.5691C318.541 20.0891 318.301 19.7391 317.981 19.5191C317.681 19.2791 317.321 19.1591 316.901 19.1591C316.521 19.1591 316.141 19.2391 315.761 19.3991C315.401 19.5391 315.071 19.7591 314.771 20.0591C314.471 20.3591 314.231 20.7191 314.051 21.1391C313.871 21.5391 313.781 21.9991 313.781 22.5191V30.8291H310.391ZM332.081 31.1891C331.061 31.1891 330.111 31.0091 329.231 30.6491C328.371 30.2891 327.611 29.7891 326.951 29.1491C326.311 28.5091 325.811 27.7491 325.451 26.8691C325.091 25.9891 324.911 25.0191 324.911 23.9591C324.911 22.9391 325.091 21.9791 325.451 21.0791C325.811 20.1791 326.311 19.3991 326.951 18.7391C327.611 18.0591 328.371 17.5291 329.231 17.1491C330.111 16.7491 331.071 16.5491 332.111 16.5491C333.391 16.5491 334.511 16.7891 335.471 17.2691C336.431 17.7491 337.191 18.4091 337.751 19.2491L335.861 21.3191L335.681 21.5291L335.441 21.3491C335.441 21.1891 335.421 21.0291 335.381 20.8691C335.341 20.6891 335.211 20.4791 334.991 20.2391C334.611 19.8591 334.191 19.6091 333.731 19.4891C333.271 19.3491 332.741 19.2791 332.141 19.2791C331.641 19.2791 331.161 19.3891 330.701 19.6091C330.261 19.8091 329.861 20.1091 329.501 20.5091C329.141 20.8891 328.861 21.3691 328.661 21.9491C328.461 22.5291 328.361 23.1991 328.361 23.9591C328.361 24.6391 328.461 25.2591 328.661 25.8191C328.881 26.3591 329.161 26.8291 329.501 27.2291C329.861 27.6091 330.271 27.9091 330.731 28.1291C331.211 28.3291 331.711 28.4291 332.231 28.4291C332.651 28.4291 333.061 28.3691 333.461 28.2491C333.861 28.1291 334.251 27.9491 334.631 27.7091C335.031 27.4491 335.401 27.1091 335.741 26.6891L337.631 28.8491C336.891 29.6691 336.031 30.2691 335.051 30.6491C334.071 31.0091 333.081 31.1891 332.081 31.1891ZM346.871 31.1591C345.871 31.1591 344.941 30.9991 344.081 30.6791C343.241 30.3591 342.501 29.8991 341.861 29.2991C341.241 28.6791 340.761 27.9191 340.421 27.0191C340.081 26.1191 339.911 25.0991 339.911 23.9591C339.911 22.7991 340.081 21.7591 340.421 20.8391C340.761 19.9191 341.221 19.1391 341.801 18.4991C342.401 17.8591 343.101 17.3791 343.901 17.0591C344.701 16.7191 345.561 16.5491 346.481 16.5491C347.301 16.5491 348.071 16.6891 348.791 16.9691C349.511 17.2491 350.141 17.6791 350.681 18.2591C351.241 18.8191 351.681 19.5291 352.001 20.3891C352.321 21.2291 352.481 22.2091 352.481 23.3291C352.481 23.5291 352.471 23.7691 352.451 24.0491C352.451 24.3291 352.441 24.5691 352.421 24.7691H343.181C343.221 25.4291 343.351 25.9991 343.571 26.4791C343.791 26.9391 344.081 27.3191 344.441 27.6191C344.801 27.9191 345.201 28.1491 345.641 28.3091C346.081 28.4491 346.541 28.5191 347.021 28.5191C347.441 28.5191 347.841 28.4791 348.221 28.3991C348.621 28.3191 348.991 28.1791 349.331 27.9791C349.691 27.7791 350.031 27.5191 350.351 27.1991L352.091 28.8791C351.651 29.3991 351.151 29.8391 350.591 30.1991C350.051 30.5391 349.461 30.7791 348.821 30.9191C348.201 31.0791 347.551 31.1591 346.871 31.1591ZM343.241 22.2191H349.181C349.181 21.7391 349.111 21.3091 348.971 20.9291C348.851 20.5491 348.671 20.2291 348.431 19.9691C348.191 19.7091 347.891 19.5191 347.531 19.3991C347.191 19.2591 346.791 19.1891 346.331 19.1891C345.951 19.1891 345.581 19.2491 345.221 19.3691C344.881 19.4691 344.571 19.6491 344.291 19.9091C344.011 20.1691 343.781 20.4891 343.601 20.8691C343.421 21.2491 343.301 21.6991 343.241 22.2191Z" fill="white"/>
<rect width="21.8527" height="3.62182" fill="#D9D9D9"/>
<rect y="24.1455" width="24.1455" height="3.2779" transform="rotate(-90 0 24.1455)" fill="#D9D9D9"/>
</svg>
