<svg width="664" height="36" viewBox="0 0 664 36" fill="none" xmlns="http://www.w3.org/2000/svg">
<path d="M10.181 30V11.31H16.541C18.001 11.31 19.191 11.56 20.111 12.06C21.051 12.56 21.741 13.22 22.181 14.04C22.641 14.86 22.871 15.78 22.871 16.8C22.871 17.54 22.741 18.24 22.481 18.9C22.241 19.54 21.861 20.11 21.341 20.61C20.841 21.09 20.201 21.47 19.421 21.75C18.661 22.03 17.751 22.17 16.691 22.17H13.631V30H10.181ZM13.631 19.35H16.451C17.091 19.35 17.631 19.24 18.071 19.02C18.511 18.8 18.841 18.5 19.061 18.12C19.281 17.74 19.391 17.3 19.391 16.8C19.391 16.3 19.281 15.86 19.061 15.48C18.841 15.1 18.511 14.8 18.071 14.58C17.651 14.36 17.121 14.25 16.481 14.25H13.631V19.35ZM31.871 30.33C30.871 30.33 29.941 30.17 29.081 29.85C28.241 29.53 27.501 29.07 26.861 28.47C26.241 27.85 25.761 27.09 25.421 26.19C25.081 25.29 24.911 24.27 24.911 23.13C24.911 21.97 25.081 20.93 25.421 20.01C25.761 19.09 26.221 18.31 26.801 17.67C27.401 17.03 28.101 16.55 28.901 16.23C29.701 15.89 30.561 15.72 31.481 15.72C32.301 15.72 33.071 15.86 33.791 16.14C34.511 16.42 35.141 16.85 35.681 17.43C36.241 17.99 36.681 18.7 37.001 19.56C37.321 20.4 37.481 21.38 37.481 22.5C37.481 22.7 37.471 22.94 37.451 23.22C37.451 23.5 37.441 23.74 37.421 23.94H28.181C28.221 24.6 28.351 25.17 28.571 25.65C28.791 26.11 29.081 26.49 29.441 26.79C29.801 27.09 30.201 27.32 30.641 27.48C31.081 27.62 31.541 27.69 32.021 27.69C32.441 27.69 32.841 27.65 33.221 27.57C33.621 27.49 33.991 27.35 34.331 27.15C34.691 26.95 35.031 26.69 35.351 26.37L37.091 28.05C36.651 28.57 36.151 29.01 35.591 29.37C35.051 29.71 34.461 29.95 33.821 30.09C33.201 30.25 32.551 30.33 31.871 30.33ZM28.241 21.39H34.181C34.181 20.91 34.111 20.48 33.971 20.1C33.851 19.72 33.671 19.4 33.431 19.14C33.191 18.88 32.891 18.69 32.531 18.57C32.191 18.43 31.791 18.36 31.331 18.36C30.951 18.36 30.581 18.42 30.221 18.54C29.881 18.64 29.571 18.82 29.291 19.08C29.011 19.34 28.781 19.66 28.601 20.04C28.421 20.42 28.301 20.87 28.241 21.39ZM41.411 16.05H44.921L44.891 19.95L44.501 19.71C44.581 19.09 44.751 18.54 45.011 18.06C45.291 17.58 45.631 17.16 46.031 16.8C46.451 16.44 46.901 16.17 47.381 15.99C47.881 15.81 48.391 15.72 48.911 15.72C49.691 15.72 50.391 15.85 51.011 16.11C51.651 16.35 52.241 16.75 52.781 17.31L51.341 20.16L51.251 20.4L50.981 20.28C50.921 20.12 50.861 19.96 50.801 19.8C50.741 19.62 50.591 19.42 50.351 19.2C50.071 18.98 49.771 18.81 49.451 18.69C49.151 18.57 48.821 18.51 48.461 18.51C47.981 18.51 47.521 18.59 47.081 18.75C46.641 18.91 46.251 19.16 45.911 19.5C45.591 19.84 45.331 20.28 45.131 20.82C44.951 21.34 44.861 21.96 44.861 22.68V30H41.411V16.05ZM61.511 30.33C60.671 30.33 59.861 30.25 59.081 30.09C58.301 29.95 57.581 29.72 56.921 29.4C56.261 29.06 55.651 28.63 55.091 28.11L56.591 25.35L56.711 25.11L56.951 25.26C57.011 25.4 57.071 25.56 57.131 25.74C57.191 25.9 57.341 26.09 57.581 26.31C58.081 26.73 58.651 27.06 59.291 27.3C59.931 27.54 60.691 27.66 61.571 27.66C62.131 27.66 62.601 27.6 62.981 27.48C63.381 27.34 63.681 27.16 63.881 26.94C64.101 26.7 64.211 26.43 64.211 26.13C64.211 25.89 64.151 25.68 64.031 25.5C63.911 25.32 63.721 25.16 63.461 25.02C63.201 24.88 62.861 24.74 62.441 24.6C62.021 24.44 61.521 24.27 60.941 24.09C59.921 23.83 59.031 23.51 58.271 23.13C57.531 22.73 56.961 22.25 56.561 21.69C56.161 21.13 55.961 20.48 55.961 19.74C55.961 18.96 56.181 18.27 56.621 17.67C57.081 17.07 57.721 16.6 58.541 16.26C59.361 15.9 60.331 15.72 61.451 15.72C62.031 15.72 62.581 15.77 63.101 15.87C63.621 15.95 64.111 16.08 64.571 16.26C65.051 16.42 65.491 16.64 65.891 16.92C66.311 17.18 66.701 17.49 67.061 17.85L65.411 20.16L65.201 20.4L64.991 20.22C64.971 20.06 64.921 19.91 64.841 19.77C64.781 19.61 64.631 19.42 64.391 19.2C63.991 18.9 63.531 18.68 63.011 18.54C62.511 18.4 62.011 18.33 61.511 18.33C60.831 18.33 60.241 18.44 59.741 18.66C59.261 18.88 59.021 19.22 59.021 19.68C59.021 19.94 59.131 20.18 59.351 20.4C59.571 20.6 59.931 20.8 60.431 21C60.951 21.18 61.631 21.38 62.471 21.6C63.591 21.9 64.501 22.25 65.201 22.65C65.921 23.03 66.441 23.49 66.761 24.03C67.101 24.57 67.271 25.2 67.271 25.92C67.271 26.7 67.051 27.43 66.611 28.11C66.171 28.79 65.521 29.33 64.661 29.73C63.821 30.13 62.771 30.33 61.511 30.33ZM76.211 30.3C74.971 30.3 73.841 30 72.821 29.4C71.821 28.78 71.031 27.92 70.451 26.82C69.871 25.72 69.581 24.45 69.581 23.01C69.581 21.63 69.871 20.39 70.451 19.29C71.031 18.19 71.821 17.32 72.821 16.68C73.841 16.04 74.971 15.72 76.211 15.72C77.471 15.72 78.601 16.04 79.601 16.68C80.621 17.32 81.421 18.19 82.001 19.29C82.601 20.39 82.901 21.63 82.901 23.01C82.901 24.45 82.601 25.72 82.001 26.82C81.421 27.92 80.621 28.78 79.601 29.4C78.601 30 77.471 30.3 76.211 30.3ZM76.211 27.6C76.871 27.6 77.441 27.41 77.921 27.03C78.401 26.63 78.781 26.09 79.061 25.41C79.361 24.71 79.511 23.91 79.511 23.01C79.511 22.07 79.361 21.26 79.061 20.58C78.781 19.9 78.401 19.38 77.921 19.02C77.441 18.64 76.871 18.45 76.211 18.45C75.611 18.45 75.061 18.64 74.561 19.02C74.081 19.38 73.691 19.9 73.391 20.58C73.111 21.26 72.971 22.07 72.971 23.01C72.971 23.91 73.111 24.71 73.391 25.41C73.671 26.09 74.051 26.63 74.531 27.03C75.031 27.41 75.591 27.6 76.211 27.6ZM85.391 30V16.05H88.781V17.97C89.121 17.53 89.491 17.14 89.891 16.8C90.291 16.46 90.731 16.2 91.211 16.02C91.711 15.82 92.241 15.72 92.801 15.72C93.621 15.72 94.371 15.92 95.051 16.32C95.731 16.7 96.281 17.32 96.701 18.18C97.121 19.04 97.331 20.17 97.331 21.57V30H93.941V21.63C93.941 20.85 93.861 20.22 93.701 19.74C93.541 19.26 93.301 18.91 92.981 18.69C92.681 18.45 92.321 18.33 91.901 18.33C91.521 18.33 91.141 18.41 90.761 18.57C90.401 18.71 90.071 18.93 89.771 19.23C89.471 19.53 89.231 19.89 89.051 20.31C88.871 20.71 88.781 21.17 88.781 21.69V30H85.391ZM104.681 30.36C103.141 30.36 101.941 30 101.081 29.28C100.241 28.54 99.821 27.59 99.821 26.43C99.821 25.69 99.981 25.01 100.301 24.39C100.641 23.75 101.141 23.2 101.801 22.74C102.461 22.28 103.281 21.93 104.261 21.69C105.241 21.43 106.361 21.3 107.621 21.3C107.781 21.3 107.981 21.3 108.221 21.3C108.461 21.3 108.721 21.31 109.001 21.33C109.281 21.33 109.541 21.35 109.781 21.39L109.871 23.73C109.671 23.71 109.431 23.7 109.151 23.7C108.871 23.68 108.581 23.67 108.281 23.67C108.001 23.65 107.761 23.64 107.561 23.64C106.761 23.64 106.081 23.7 105.521 23.82C104.981 23.94 104.541 24.11 104.201 24.33C103.861 24.53 103.611 24.78 103.451 25.08C103.291 25.36 103.211 25.67 103.211 26.01C103.211 26.33 103.261 26.6 103.361 26.82C103.481 27.04 103.631 27.22 103.811 27.36C104.011 27.48 104.241 27.57 104.501 27.63C104.761 27.69 105.041 27.72 105.341 27.72C105.941 27.72 106.461 27.63 106.901 27.45C107.361 27.25 107.741 26.94 108.041 26.52C108.361 26.1 108.591 25.58 108.731 24.96C108.891 24.32 108.971 23.57 108.971 22.71C108.971 21.55 108.851 20.66 108.611 20.04C108.371 19.42 108.021 18.99 107.561 18.75C107.101 18.49 106.521 18.36 105.821 18.36C105.181 18.36 104.571 18.47 103.991 18.69C103.431 18.89 102.881 19.27 102.341 19.83L100.481 17.79C101.261 17.05 102.131 16.52 103.091 16.2C104.051 15.88 105.011 15.72 105.971 15.72C106.851 15.72 107.671 15.82 108.431 16.02C109.191 16.22 109.851 16.56 110.411 17.04C110.991 17.5 111.441 18.14 111.761 18.96C112.101 19.76 112.271 20.76 112.271 21.96V30H108.761V28.5C108.501 28.84 108.221 29.13 107.921 29.37C107.621 29.61 107.301 29.8 106.961 29.94C106.621 30.08 106.261 30.18 105.881 30.24C105.501 30.32 105.101 30.36 104.681 30.36ZM115.631 30V27.33H119.561V12.54H115.811V9.87H122.981V27.33H126.881V30H115.631ZM145.181 30V11.31H151.541C153.001 11.31 154.191 11.56 155.111 12.06C156.051 12.56 156.741 13.22 157.181 14.04C157.641 14.86 157.871 15.78 157.871 16.8C157.871 17.54 157.741 18.24 157.481 18.9C157.241 19.54 156.861 20.11 156.341 20.61C155.841 21.09 155.201 21.47 154.421 21.75C153.661 22.03 152.751 22.17 151.691 22.17H148.631V30H145.181ZM148.631 19.35H151.451C152.091 19.35 152.631 19.24 153.071 19.02C153.511 18.8 153.841 18.5 154.061 18.12C154.281 17.74 154.391 17.3 154.391 16.8C154.391 16.3 154.281 15.86 154.061 15.48C153.841 15.1 153.511 14.8 153.071 14.58C152.651 14.36 152.121 14.25 151.481 14.25H148.631V19.35ZM161.411 16.05H164.921L164.891 19.95L164.501 19.71C164.581 19.09 164.751 18.54 165.011 18.06C165.291 17.58 165.631 17.16 166.031 16.8C166.451 16.44 166.901 16.17 167.381 15.99C167.881 15.81 168.391 15.72 168.911 15.72C169.691 15.72 170.391 15.85 171.011 16.11C171.651 16.35 172.241 16.75 172.781 17.31L171.341 20.16L171.251 20.4L170.981 20.28C170.921 20.12 170.861 19.96 170.801 19.8C170.741 19.62 170.591 19.42 170.351 19.2C170.071 18.98 169.771 18.81 169.451 18.69C169.151 18.57 168.821 18.51 168.461 18.51C167.981 18.51 167.521 18.59 167.081 18.75C166.641 18.91 166.251 19.16 165.911 19.5C165.591 19.84 165.331 20.28 165.131 20.82C164.951 21.34 164.861 21.96 164.861 22.68V30H161.411V16.05ZM181.211 30.3C179.971 30.3 178.841 30 177.821 29.4C176.821 28.78 176.031 27.92 175.451 26.82C174.871 25.72 174.581 24.45 174.581 23.01C174.581 21.63 174.871 20.39 175.451 19.29C176.031 18.19 176.821 17.32 177.821 16.68C178.841 16.04 179.971 15.72 181.211 15.72C182.471 15.72 183.601 16.04 184.601 16.68C185.621 17.32 186.421 18.19 187.001 19.29C187.601 20.39 187.901 21.63 187.901 23.01C187.901 24.45 187.601 25.72 187.001 26.82C186.421 27.92 185.621 28.78 184.601 29.4C183.601 30 182.471 30.3 181.211 30.3ZM181.211 27.6C181.871 27.6 182.441 27.41 182.921 27.03C183.401 26.63 183.781 26.09 184.061 25.41C184.361 24.71 184.511 23.91 184.511 23.01C184.511 22.07 184.361 21.26 184.061 20.58C183.781 19.9 183.401 19.38 182.921 19.02C182.441 18.64 181.871 18.45 181.211 18.45C180.611 18.45 180.061 18.64 179.561 19.02C179.081 19.38 178.691 19.9 178.391 20.58C178.111 21.26 177.971 22.07 177.971 23.01C177.971 23.91 178.111 24.71 178.391 25.41C178.671 26.09 179.051 26.63 179.531 27.03C180.031 27.41 180.591 27.6 181.211 27.6ZM194.471 35.28C193.531 35.28 192.671 35.1 191.891 34.74C191.111 34.38 190.411 33.85 189.791 33.15L191.621 30.69L191.801 30.48L192.041 30.63C192.081 30.79 192.121 30.95 192.161 31.11C192.201 31.27 192.331 31.48 192.551 31.74C192.791 31.96 193.061 32.13 193.361 32.25C193.681 32.39 194.051 32.46 194.471 32.46C194.971 32.46 195.391 32.35 195.731 32.13C196.071 31.91 196.321 31.57 196.481 31.11C196.641 30.67 196.721 30.11 196.721 29.43V18.72H191.861V16.05H200.171V29.13C200.171 30.59 199.901 31.77 199.361 32.67C198.821 33.59 198.121 34.25 197.261 34.65C196.401 35.07 195.471 35.28 194.471 35.28ZM198.221 13.74C197.641 13.74 197.141 13.54 196.721 13.14C196.301 12.74 196.091 12.26 196.091 11.7C196.091 11.1 196.291 10.61 196.691 10.23C197.091 9.85 197.601 9.66 198.221 9.66C198.781 9.66 199.271 9.86 199.691 10.26C200.131 10.66 200.351 11.14 200.351 11.7C200.351 12.26 200.131 12.74 199.691 13.14C199.271 13.54 198.781 13.74 198.221 13.74ZM211.871 30.33C210.871 30.33 209.941 30.17 209.081 29.85C208.241 29.53 207.501 29.07 206.861 28.47C206.241 27.85 205.761 27.09 205.421 26.19C205.081 25.29 204.911 24.27 204.911 23.13C204.911 21.97 205.081 20.93 205.421 20.01C205.761 19.09 206.221 18.31 206.801 17.67C207.401 17.03 208.101 16.55 208.901 16.23C209.701 15.89 210.561 15.72 211.481 15.72C212.301 15.72 213.071 15.86 213.791 16.14C214.511 16.42 215.141 16.85 215.681 17.43C216.241 17.99 216.681 18.7 217.001 19.56C217.321 20.4 217.481 21.38 217.481 22.5C217.481 22.7 217.471 22.94 217.451 23.22C217.451 23.5 217.441 23.74 217.421 23.94H208.181C208.221 24.6 208.351 25.17 208.571 25.65C208.791 26.11 209.081 26.49 209.441 26.79C209.801 27.09 210.201 27.32 210.641 27.48C211.081 27.62 211.541 27.69 212.021 27.69C212.441 27.69 212.841 27.65 213.221 27.57C213.621 27.49 213.991 27.35 214.331 27.15C214.691 26.95 215.031 26.69 215.351 26.37L217.091 28.05C216.651 28.57 216.151 29.01 215.591 29.37C215.051 29.71 214.461 29.95 213.821 30.09C213.201 30.25 212.551 30.33 211.871 30.33ZM208.241 21.39H214.181C214.181 20.91 214.111 20.48 213.971 20.1C213.851 19.72 213.671 19.4 213.431 19.14C213.191 18.88 212.891 18.69 212.531 18.57C212.191 18.43 211.791 18.36 211.331 18.36C210.951 18.36 210.581 18.42 210.221 18.54C209.881 18.64 209.571 18.82 209.291 19.08C209.011 19.34 208.781 19.66 208.601 20.04C208.421 20.42 208.301 20.87 208.241 21.39ZM227.081 30.36C226.061 30.36 225.111 30.18 224.231 29.82C223.371 29.46 222.611 28.96 221.951 28.32C221.311 27.68 220.811 26.92 220.451 26.04C220.091 25.16 219.911 24.19 219.911 23.13C219.911 22.11 220.091 21.15 220.451 20.25C220.811 19.35 221.311 18.57 221.951 17.91C222.611 17.23 223.371 16.7 224.231 16.32C225.111 15.92 226.071 15.72 227.111 15.72C228.391 15.72 229.511 15.96 230.471 16.44C231.431 16.92 232.191 17.58 232.751 18.42L230.861 20.49L230.681 20.7L230.441 20.52C230.441 20.36 230.421 20.2 230.381 20.04C230.341 19.86 230.211 19.65 229.991 19.41C229.611 19.03 229.191 18.78 228.731 18.66C228.271 18.52 227.741 18.45 227.141 18.45C226.641 18.45 226.161 18.56 225.701 18.78C225.261 18.98 224.861 19.28 224.501 19.68C224.141 20.06 223.861 20.54 223.661 21.12C223.461 21.7 223.361 22.37 223.361 23.13C223.361 23.81 223.461 24.43 223.661 24.99C223.881 25.53 224.161 26 224.501 26.4C224.861 26.78 225.271 27.08 225.731 27.3C226.211 27.5 226.711 27.6 227.231 27.6C227.651 27.6 228.061 27.54 228.461 27.42C228.861 27.3 229.251 27.12 229.631 26.88C230.031 26.62 230.401 26.28 230.741 25.86L232.631 28.02C231.891 28.84 231.031 29.44 230.051 29.82C229.071 30.18 228.081 30.36 227.081 30.36ZM242.711 30.3C241.911 30.3 241.211 30.17 240.611 29.91C240.031 29.65 239.541 29.23 239.141 28.65C238.761 28.07 238.481 27.3 238.301 26.34C238.141 25.38 238.091 24.19 238.151 22.77L238.541 12.75L242.051 12.3L242.321 12.27L242.351 12.54C242.271 12.68 242.191 12.82 242.111 12.96C242.031 13.1 241.981 13.34 241.961 13.68L241.631 17.82L241.781 18.03L241.541 22.71C241.481 24.01 241.521 25.02 241.661 25.74C241.821 26.44 242.051 26.92 242.351 27.18C242.671 27.44 243.051 27.57 243.491 27.57C244.131 27.57 244.701 27.44 245.201 27.18C245.721 26.92 246.201 26.62 246.641 26.28L247.361 28.74C246.681 29.24 245.951 29.63 245.171 29.91C244.411 30.17 243.591 30.3 242.711 30.3ZM235.511 16.05H246.251L246.221 18.72H235.451L235.511 16.05ZM256.511 30.33C255.671 30.33 254.861 30.25 254.081 30.09C253.301 29.95 252.581 29.72 251.921 29.4C251.261 29.06 250.651 28.63 250.091 28.11L251.591 25.35L251.711 25.11L251.951 25.26C252.011 25.4 252.071 25.56 252.131 25.74C252.191 25.9 252.341 26.09 252.581 26.31C253.081 26.73 253.651 27.06 254.291 27.3C254.931 27.54 255.691 27.66 256.571 27.66C257.131 27.66 257.601 27.6 257.981 27.48C258.381 27.34 258.681 27.16 258.881 26.94C259.101 26.7 259.211 26.43 259.211 26.13C259.211 25.89 259.151 25.68 259.031 25.5C258.911 25.32 258.721 25.16 258.461 25.02C258.201 24.88 257.861 24.74 257.441 24.6C257.021 24.44 256.521 24.27 255.941 24.09C254.921 23.83 254.031 23.51 253.271 23.13C252.531 22.73 251.961 22.25 251.561 21.69C251.161 21.13 250.961 20.48 250.961 19.74C250.961 18.96 251.181 18.27 251.621 17.67C252.081 17.07 252.721 16.6 253.541 16.26C254.361 15.9 255.331 15.72 256.451 15.72C257.031 15.72 257.581 15.77 258.101 15.87C258.621 15.95 259.111 16.08 259.571 16.26C260.051 16.42 260.491 16.64 260.891 16.92C261.311 17.18 261.701 17.49 262.061 17.85L260.411 20.16L260.201 20.4L259.991 20.22C259.971 20.06 259.921 19.91 259.841 19.77C259.781 19.61 259.631 19.42 259.391 19.2C258.991 18.9 258.531 18.68 258.011 18.54C257.511 18.4 257.011 18.33 256.511 18.33C255.831 18.33 255.241 18.44 254.741 18.66C254.261 18.88 254.021 19.22 254.021 19.68C254.021 19.94 254.131 20.18 254.351 20.4C254.571 20.6 254.931 20.8 255.431 21C255.951 21.18 256.631 21.38 257.471 21.6C258.591 21.9 259.501 22.25 260.201 22.65C260.921 23.03 261.441 23.49 261.761 24.03C262.101 24.57 262.271 25.2 262.271 25.92C262.271 26.7 262.051 27.43 261.611 28.11C261.171 28.79 260.521 29.33 259.661 29.73C258.821 30.13 257.771 30.33 256.511 30.33Z" fill="white"/>
<rect width="21.8527" height="3" fill="#D9D9D9"/>
<rect y="20" width="20" height="3.2779" transform="rotate(-90 0 20)" fill="#D9D9D9"/>
</svg>
