<svg width="21" height="21" viewBox="0 0 21 21" fill="none" xmlns="http://www.w3.org/2000/svg">
<path d="M15.9417 10.2027C17.2332 10.2886 18.3888 9.40665 18.6421 8.13877C18.3304 7.65643 17.7975 7.36637 17.224 7.36637C15.733 7.33224 14.933 9.10608 15.9423 10.2033L15.9417 10.2027ZM9.91925 3.08237L13.4361 1.04537L12.3152 0.413397L7.46487 3.2228L7.8514 3.43805L8.58575 3.85083L9.91925 3.07908V3.08237ZM13.8869 0.857678C13.9453 0.875397 13.9926 0.923303 14.0103 0.981053L15.6404 5.96396C15.6713 6.04993 15.6372 6.14246 15.5584 6.18971C14.2669 6.94833 13.6448 8.47937 14.0379 9.92574C14.4684 11.4948 15.9653 12.5199 17.5823 12.3558C17.6709 12.3486 17.7562 12.4037 17.7838 12.4891L19.4657 17.6098C19.4926 17.6957 19.4585 17.7876 19.3837 17.8355L14.2262 20.9665C14.2019 20.9803 14.1711 20.9901 14.1403 20.9901C14.0956 21.0006 14.0484 20.9901 14.007 20.9632L12.1925 19.7839C12.161 19.7636 12.1374 19.7334 12.121 19.6993L8.57984 11.2363L3.18612 14.4355C3.17562 14.4427 3.16184 14.4493 3.152 14.4565C3.09687 14.4801 3.03191 14.4729 2.98072 14.4427L1.76075 13.7254C1.6715 13.6775 1.63737 13.5646 1.68528 13.4754L6.90444 3.14012C6.92084 3.10271 6.95497 3.07187 6.99303 3.05415L12.2161 0.0294907C12.2739 -0.00463429 12.3454 -0.00791554 12.4077 0.0262095L13.8869 0.857678ZM8.42562 4.20455L7.15775 3.4899L2.10922 13.4839L3.02534 14.024L7.37694 8.10793C7.41828 8.04952 7.48653 8.01868 7.55478 8.02918C7.62303 8.0364 7.68078 8.07971 7.709 8.14533L12.4524 19.4958L13.7209 20.3168L8.42956 4.20455H8.42562ZM17.2233 11.1326C15.7428 11.1326 14.7381 9.62846 15.3051 8.26083C15.8695 6.89387 17.6433 6.54212 18.6887 7.58818C19.0792 7.97733 19.2977 8.5043 19.2977 9.0549C19.301 10.2027 18.3711 11.1326 17.2233 11.1326Z" fill="#FAFAFA"/>
</svg>
