<svg width="21" height="21" viewBox="0 0 21 21" fill="none" xmlns="http://www.w3.org/2000/svg">
<path d="M3.80615 16.1438L3.91771 15.9882L9.18084 6.00404L9.192 5.89838L6.87215 1.54088C6.82968 1.4612 6.76323 1.39689 6.6822 1.35704C6.60117 1.3172 6.50967 1.30384 6.42063 1.31887C6.33159 1.33389 6.24953 1.37652 6.18606 1.44074C6.12258 1.50497 6.08091 1.58752 6.06693 1.67673L3.80615 16.1438Z" fill="#FFC24A"/>
<path d="M3.87183 16.0256L3.95583 15.8616L9.16448 5.98106L6.85054 1.6065C6.81239 1.53042 6.7506 1.46876 6.67445 1.43074C6.59831 1.39273 6.51189 1.38041 6.42815 1.39563C6.34441 1.41086 6.26786 1.45281 6.20997 1.51519C6.15207 1.57758 6.11595 1.65705 6.10701 1.74169L3.87183 16.0256Z" fill="#FFA712"/>
<path d="M10.8833 9.19402L12.6105 7.42214L10.8826 4.12711C10.8446 4.05619 10.788 3.99692 10.719 3.9556C10.6499 3.91428 10.571 3.89246 10.4905 3.89246C10.41 3.89246 10.3311 3.91428 10.262 3.9556C10.193 3.99692 10.1364 4.05619 10.0984 4.12711L9.17505 5.88717V6.03745L10.8833 9.19402Z" fill="#F4BD62"/>
<path d="M10.8525 9.12187L12.5318 7.40249L10.8525 4.19999C10.825 4.13067 10.778 4.07078 10.7173 4.02754C10.6565 3.9843 10.5845 3.95956 10.51 3.9563C10.4355 3.95304 10.3617 3.9714 10.2974 4.00917C10.2331 4.04693 10.1811 4.10249 10.1476 4.16915L9.2197 5.96005L9.19214 6.05127L10.8525 9.12187Z" fill="#FFA50E"/>
<path d="M3.80762 16.1444L3.85815 16.0932L4.04124 16.019L10.7744 9.31082L10.8597 9.07851L9.18034 5.87732L3.80762 16.1444Z" fill="#F6820C"/>
<path d="M11.0984 19.5273L17.1937 16.1286L15.452 5.4114C15.4395 5.33585 15.4064 5.2652 15.3564 5.20721C15.3064 5.14922 15.2414 5.10612 15.1685 5.08266C15.0956 5.0592 15.0177 5.05628 14.9432 5.07421C14.8688 5.09215 14.8007 5.13025 14.7465 5.18434L3.80615 16.1437L9.86531 19.5267C10.0537 19.6318 10.2658 19.687 10.4815 19.687C10.6972 19.687 10.9094 19.6318 11.0977 19.5267" fill="#FDE068"/>
<path d="M17.1379 16.1004L15.4107 5.46389C15.4076 5.39163 15.3832 5.32189 15.3405 5.26351C15.2978 5.20513 15.2388 5.16073 15.1708 5.13593C15.1029 5.11113 15.0291 5.10704 14.9588 5.12418C14.8886 5.14133 14.825 5.17893 14.7761 5.23223L3.87183 16.1234L9.86405 19.4702C10.0509 19.5745 10.2614 19.6292 10.4753 19.6292C10.6893 19.6292 10.8998 19.5745 11.0866 19.4702L17.1379 16.1004Z" fill="#FCCA3F"/>
<path d="M11.0984 19.425C10.91 19.5301 10.6979 19.5853 10.4822 19.5853C10.2665 19.5853 10.0543 19.5301 9.86596 19.425L3.85603 16.0925L3.80615 16.1437L9.86531 19.5267C10.0537 19.6318 10.2658 19.687 10.4815 19.687C10.6972 19.687 10.9094 19.6318 11.0977 19.5267L17.1937 16.1286L17.1786 16.0367L11.0984 19.425Z" fill="#EEAB37"/>
</svg>
