<svg width="19" height="21" viewBox="0 0 19 21" fill="none" xmlns="http://www.w3.org/2000/svg">
<path d="M9.50001 20.961C9.21116 20.961 8.94156 20.884 8.69123 20.7492L6.13007 19.2279C5.74494 19.0161 5.9375 18.9391 6.05304 18.9006C6.57298 18.7272 6.66926 18.6887 7.20845 18.3806C7.26622 18.3421 7.34325 18.3614 7.40102 18.3999L9.36521 19.5745C9.44224 19.6131 9.53853 19.6131 9.5963 19.5745L17.2798 15.1262C17.3568 15.0877 17.3953 15.0107 17.3953 14.9144V6.03701C17.3953 5.94073 17.3568 5.8637 17.2798 5.82518L9.5963 1.39612C9.51927 1.3576 9.42299 1.3576 9.36521 1.39612L1.68175 5.82518C1.60472 5.8637 1.56621 5.95998 1.56621 6.03701V14.9144C1.56621 14.9914 1.60472 15.0877 1.68175 15.1262L3.78074 16.3394C4.91689 16.9171 5.62939 16.2431 5.62939 15.5691V6.80728C5.62939 6.69174 5.72568 6.5762 5.86048 6.5762H6.84257C6.95811 6.5762 7.07365 6.67248 7.07365 6.80728V15.5691C7.07365 17.0904 6.24561 17.9762 4.80135 17.9762C4.35845 17.9762 4.01182 17.9762 3.02973 17.4948L1.00776 16.3394C0.507084 16.0505 0.198975 15.5114 0.198975 14.9337V6.05627C0.198975 5.47856 0.507084 4.93937 1.00776 4.65052L8.69123 0.202196C9.17265 -0.0673988 9.82738 -0.0673988 10.3088 0.202196L17.9923 4.65052C18.4929 4.93937 18.8011 5.47856 18.8011 6.05627V14.9337C18.8011 15.5114 18.4929 16.0505 17.9923 16.3394L10.3088 20.7877C10.0585 20.9033 9.76961 20.961 9.50001 20.961ZM11.8686 14.8566C8.49866 14.8566 7.80541 13.3161 7.80541 12.0066C7.80541 11.8911 7.9017 11.7755 8.0365 11.7755H9.03785C9.15339 11.7755 9.24967 11.8526 9.24967 11.9681C9.40373 12.9887 9.84663 13.4894 11.8879 13.4894C13.5054 13.4894 14.1987 13.1235 14.1987 12.257C14.1987 11.7563 14.0061 11.3904 11.4835 11.1401C9.38447 10.9282 8.07501 10.4661 8.07501 8.79073C8.07501 7.23093 9.38447 6.3066 11.5797 6.3066C14.0446 6.3066 15.2578 7.1539 15.4119 9.00256C15.4119 9.06033 15.3926 9.1181 15.3541 9.17587C15.3156 9.21438 15.2578 9.2529 15.2 9.2529H14.1987C14.1024 9.2529 14.0061 9.17587 13.9868 9.07959C13.7558 8.02046 13.1588 7.67384 11.5797 7.67384C9.80812 7.67384 9.5963 8.29006 9.5963 8.75222C9.5963 9.31067 9.84663 9.48398 12.2345 9.79209C14.6031 10.1002 15.72 10.5431 15.72 12.1992C15.7007 13.8938 14.3142 14.8566 11.8686 14.8566Z" fill="#539E43"/>
</svg>
