<svg width="73" height="73" viewBox="0 0 73 73" fill="none" xmlns="http://www.w3.org/2000/svg">
<rect width="73" height="73" rx="13" fill="#FF9B9B"/>
<g clip-path="url(#clip0_113_2)">
<path d="M66 13.5L58.0125 42.79L47.19 33.1525L57.575 22.19L43.655 31.8125L34.0475 29.4775L66 13.5ZM46.03 35.69V46L50.3675 39.555L46.03 35.69ZM35.69 49.9C34.075 50.9125 32.41 51.8125 30.725 52.5725L31.955 55.5325C33.6425 54.775 35.3125 53.8875 36.935 52.8925L35.69 49.9ZM43.5 43.88C42.025 45.3325 40.0925 46.8075 38.395 48.055L39.6575 51.09C40.8725 50.225 42.375 49.195 43.5 48.225V43.88ZM28.98 56.7225C25.745 57.865 22.68 58.5 19.8725 58.5C12.2 58.5 6 54.0325 6 46.425C6 43.055 7.1425 40.1475 9.315 37.945C11.815 35.445 15.1025 34.2225 19.3175 34.2225C25.65 34.2225 30.1625 38.3 30.1625 43.98C30.1625 46.535 29.24 48.8725 27.58 50.53C26.17 51.9425 24.3175 52.76 22.5 52.76C21.4375 52.76 20.57 52.3525 20.16 51.7C20.025 51.4825 19.9975 51.345 19.915 50.8575C18.8825 52.0525 17.795 52.57 16.2725 52.57C13.5825 52.57 11.87 50.56 11.87 47.46C11.87 42.8675 14.885 39.0625 18.5 39.0625C20.0225 39.0625 20.7825 39.4425 21.5175 40.585L21.7875 39.635H25C24.8375 40.1775 24.3475 41.835 24.2125 42.435C22.4475 48.965 22.475 48.695 22.475 49.285C22.475 50.4025 24.015 49.96 24.8925 49.2575C26.225 48.225 27.095 46.2125 27.095 44.12C27.095 41.62 25.925 39.445 23.97 38.2225C22.7475 37.49 21.0325 37.08 19.105 37.08C13.37 37.08 9.3475 40.885 9.3475 46.2675C9.3475 54.8825 18.4125 56.9225 27.75 53.7575L28.98 56.7225ZM20.4875 43.5175C20.4875 42.4025 19.8625 41.6425 18.91 41.6425C17.8775 41.6425 16.925 42.32 16.2475 43.6C15.595 44.8225 15.16 46.425 15.16 47.6775C15.16 49.1175 15.7025 49.8775 16.7375 49.8775C17.74 49.8775 18.6925 49.09 19.3975 47.7025C20.0525 46.425 20.4875 44.7675 20.4875 43.5175Z" fill="#272727"/>
</g>
<defs>
<clipPath id="clip0_113_2">
<rect width="60" height="60" fill="white" transform="translate(6 6)"/>
</clipPath>
</defs>
</svg>
