<svg width="73" height="73" viewBox="0 0 73 73" fill="none" xmlns="http://www.w3.org/2000/svg">
<g clip-path="url(#clip0_24_196)">
<path d="M57.7917 0H15.2083C6.81029 0 0 6.81029 0 15.2083V57.7917C0 66.1897 6.81029 73 15.2083 73H57.7917C66.1927 73 73 66.1897 73 57.7917V15.2083C73 6.81029 66.1927 0 57.7917 0ZM44.2076 59.5863C42.9757 59.8235 42.5833 59.0661 42.5833 58.4183V51.7418C42.5833 49.4697 41.7864 47.9914 40.9104 47.2371C46.3307 46.6348 52.0247 44.5756 52.0247 35.2316C52.0247 32.5732 51.0757 30.4015 49.5214 28.7012C49.7708 28.0868 50.6042 25.6108 49.2811 22.262C49.2811 22.262 47.2401 21.608 42.5955 24.7561C40.6488 24.2086 38.5683 23.944 36.5 23.9318C34.4317 23.941 32.3512 24.2086 30.4075 24.75C25.7599 21.6019 23.7159 22.2559 23.7159 22.2559C22.3958 25.6078 23.2292 28.0807 23.4817 28.6981C21.9243 30.4015 20.9753 32.5702 20.9753 35.2286C20.9753 44.5482 26.6541 46.6379 32.0622 47.2553C31.3657 47.8637 30.736 48.9343 30.517 50.5099C29.127 51.1304 25.6078 52.2041 23.436 48.4842C23.436 48.4842 22.1494 46.1482 19.7039 45.9748C19.7039 45.9748 17.3314 45.9444 19.5366 47.4561C19.5366 47.4561 21.1335 48.2043 22.2407 51.0148C22.2407 51.0148 23.649 55.3583 30.4167 53.8862V58.4152C30.4167 59.057 30.0243 59.8113 28.8107 59.5863C19.1382 56.3712 12.1667 47.2493 12.1667 36.5C12.1667 23.0589 23.0619 12.1667 36.5 12.1667C49.9381 12.1667 60.8333 23.0589 60.8333 36.5C60.8333 47.2462 53.871 56.3651 44.2076 59.5863Z" fill="#B8B8B8"/>
</g>
<defs>
<clipPath id="clip0_24_196">
<rect width="73" height="73" fill="white"/>
</clipPath>
</defs>
</svg>
