<svg width="21" height="21" viewBox="0 0 21 21" fill="none" xmlns="http://www.w3.org/2000/svg">
<g clip-path="url(#clip0_65_50)">
<path d="M10.5001 1.74994C8.41638 1.74208 6.39829 2.47807 4.80887 3.8255C3.21945 5.17292 2.16305 7.04332 1.82974 9.10019C1.49642 11.1571 1.90806 13.2654 2.99061 15.0458C4.07316 16.8262 5.75554 18.1618 7.73506 18.8124C8.17256 18.8824 8.31256 18.6112 8.31256 18.3749V16.8962C5.88881 17.4212 5.37256 15.7499 5.37256 15.7499C5.20915 15.2065 4.85491 14.7404 4.37506 14.4374C3.57881 13.8949 4.43631 13.9124 4.43631 13.9124C4.71098 13.948 4.97405 14.0451 5.20588 14.1966C5.43771 14.3482 5.63228 14.5501 5.77506 14.7874C6.01812 15.2196 6.42197 15.5384 6.89879 15.6744C7.37561 15.8104 7.88684 15.7526 8.32131 15.5137C8.36118 15.0701 8.55641 14.6549 8.87256 14.3412C7.00006 14.1487 4.91756 13.3962 4.91756 10.0624C4.89225 9.18872 5.20578 8.33905 5.79256 7.69119C5.52616 6.93819 5.55746 6.11187 5.88006 5.38119C5.88006 5.38119 6.61506 5.14494 8.28631 6.25619C9.71921 5.871 11.2284 5.871 12.6613 6.25619C14.3326 5.12744 15.0676 5.38119 15.0676 5.38119C15.3902 6.11187 15.4215 6.93819 15.1551 7.69119C15.7418 8.33905 16.0554 9.18872 16.0301 10.0624C16.0301 13.4049 13.9826 14.1399 12.0313 14.3587C12.2415 14.5699 12.404 14.8236 12.5082 15.1028C12.6123 15.382 12.6556 15.6802 12.6351 15.9774V18.3749C12.6351 18.6112 12.7751 18.8912 13.2213 18.8124C15.1972 18.163 16.8772 16.8309 17.96 15.0551C19.0427 13.2793 19.4575 11.1758 19.1299 9.12184C18.8024 7.06789 17.7538 5.1978 16.1724 3.84687C14.5909 2.49594 12.58 1.75253 10.5001 1.74994Z" fill="#FAFAFA"/>
</g>
<defs>
<clipPath id="clip0_65_50">
<rect width="21" height="21" fill="white"/>
</clipPath>
</defs>
</svg>
