<svg width="21" height="21" viewBox="0 0 21 21" fill="none" xmlns="http://www.w3.org/2000/svg">
<path d="M10.5001 18.963L13.8837 8.55029H7.11646L10.5001 18.963Z" fill="#E24329"/>
<path d="M10.5 18.963L7.11641 8.55029H2.375L10.5 18.963Z" fill="#FC6D26"/>
<path d="M2.37508 8.55029L1.34673 11.7147C1.30106 11.8554 1.30109 12.0069 1.34683 12.1476C1.39257 12.2882 1.48167 12.4108 1.60136 12.4976L10.5001 18.9656L2.37508 8.55029Z" fill="#FCA326"/>
<path d="M2.375 8.55026H7.11641L5.07875 2.27913C5.05577 2.20893 5.01119 2.14778 4.95137 2.10442C4.89156 2.06106 4.81958 2.03772 4.7457 2.03772C4.67183 2.03772 4.59985 2.06106 4.54003 2.10442C4.48022 2.14778 4.43564 2.20893 4.41266 2.27913L2.375 8.55026Z" fill="#E24329"/>
<path d="M10.5 18.963L13.8836 8.55029H18.625L10.5 18.963Z" fill="#FC6D26"/>
<path d="M18.625 8.55029L19.6534 11.7147C19.6991 11.8554 19.699 12.0069 19.6533 12.1476C19.6075 12.2882 19.5184 12.4108 19.3988 12.4976L10.5 18.9656L18.625 8.55029Z" fill="#FCA326"/>
<path d="M18.625 8.5503H13.8835L15.9212 2.27852C15.9442 2.20832 15.9888 2.14717 16.0486 2.10381C16.1084 2.06045 16.1804 2.03711 16.2542 2.03711C16.3281 2.03711 16.4001 2.06045 16.4599 2.10381C16.5197 2.14717 16.5643 2.20832 16.5873 2.27852L18.625 8.5503Z" fill="#E24329"/>
</svg>
