<svg width="73" height="73" viewBox="0 0 73 73" fill="none" xmlns="http://www.w3.org/2000/svg">
<path d="M57.7917 0H15.2083C6.81029 0 0 6.81029 0 15.2083V57.7917C0 66.1897 6.81029 73 15.2083 73H57.7917C66.1927 73 73 66.1897 73 57.7917V15.2083C73 6.81029 66.1927 0 57.7917 0ZM24.3333 57.7917H15.2083V24.3333H24.3333V57.7917ZM19.7708 20.4765C16.8326 20.4765 14.4479 18.0736 14.4479 15.111C14.4479 12.1484 16.8326 9.7455 19.7708 9.7455C22.7091 9.7455 25.0938 12.1484 25.0938 15.111C25.0938 18.0736 22.7121 20.4765 19.7708 20.4765ZM60.8333 57.7917H51.7083V40.7462C51.7083 30.5018 39.5417 31.2775 39.5417 40.7462V57.7917H30.4167V24.3333H39.5417V29.7019C43.7878 21.8361 60.8333 21.2552 60.8333 37.233V57.7917Z" fill="#5C6A81"/>
</svg>
