<svg width="21" height="21" viewBox="0 0 21 21" fill="none" xmlns="http://www.w3.org/2000/svg">
<path d="M12.258 10.4842C12.258 9.54288 11.471 8.77966 10.5 8.77966C9.52912 8.77966 8.74194 9.54288 8.74194 10.4842C8.74194 11.4257 9.52912 12.1888 10.5 12.1888C11.471 12.1888 12.258 11.4257 12.258 10.4842Z" fill="#53C1DE"/>
<path fill-rule="evenodd" clip-rule="evenodd" d="M16.2096 7.31961C16.5809 5.85689 17.0475 3.14441 15.4024 2.22479C13.765 1.30919 11.6343 3.06366 10.5091 4.11677C9.38726 3.07415 7.19663 1.32718 5.55294 2.24972C3.91618 3.16839 4.42092 5.8359 4.8004 7.3078C3.27358 7.72826 0.65625 8.63389 0.65625 10.4842C0.65625 12.3292 3.27085 13.3145 4.78864 13.7346C4.40776 15.2146 3.92829 17.844 5.56715 18.7607C7.21698 19.683 9.40078 17.9776 10.5364 16.913C11.6687 17.9723 13.779 19.6889 15.4168 18.7697C17.0596 17.8476 16.6317 15.1714 16.2522 13.691C17.7235 13.27 20.3438 12.3062 20.3438 10.4842C20.3438 8.65167 17.7124 7.7387 16.2096 7.31961ZM16.0231 12.9065C15.774 12.1417 15.4376 11.3284 15.0262 10.4883C15.4189 9.66794 15.7422 8.86515 15.9844 8.10528C17.0861 8.41496 19.5028 9.12273 19.5028 10.4842C19.5028 11.8584 17.1836 12.5729 16.0231 12.9065ZM14.9953 18.0639C13.7734 18.7497 11.9583 17.1082 11.122 16.3281C11.6768 15.7398 12.2312 15.0558 12.7723 14.2963C13.7241 14.2145 14.6232 14.0806 15.4387 13.8979C15.7058 14.945 16.2226 17.3751 14.9953 18.0639ZM5.98738 18.0542C4.76531 17.3709 5.32388 15.0246 5.60409 13.9344C6.41047 14.1073 7.30314 14.2318 8.2572 14.3068C8.80182 15.0499 9.3723 15.733 9.94718 16.3312C9.23692 16.9974 7.21514 18.7405 5.98738 18.0542ZM1.49723 10.4842C1.49723 9.10481 3.89948 8.40216 5.02625 8.09327C5.27265 8.8702 5.59581 9.68257 5.98581 10.5041C5.59076 11.3378 5.26297 12.163 5.01431 12.9491C3.93992 12.6509 1.49723 11.8644 1.49723 10.4842ZM5.9743 2.95545C7.20136 2.26679 9.10527 3.94395 9.91981 4.69883C9.34789 5.29432 8.78266 5.97227 8.2427 6.71114C7.31679 6.79435 6.43043 6.92797 5.61559 7.10699C5.30988 5.91984 4.74857 3.64336 5.9743 2.95545ZM13.3739 7.59747C14.0021 7.67432 14.6039 7.77656 15.169 7.90164C14.9994 8.42887 14.7879 8.98019 14.5389 9.54535C14.1779 8.88123 13.7904 8.23042 13.3739 7.59747ZM10.5094 5.28156C10.8973 5.68901 11.2858 6.14401 11.668 6.63764C10.8928 6.60207 10.1163 6.60194 9.34106 6.63711C9.72359 6.14806 10.1154 5.69374 10.5094 5.28156ZM6.46833 9.54476C6.22341 8.98157 6.01386 8.42782 5.84274 7.89305C6.40446 7.77118 7.0035 7.67156 7.62759 7.59596C7.20996 8.22754 6.8231 8.87808 6.46833 9.54476ZM7.64551 13.4306C7.00081 13.3609 6.3927 13.2663 5.83115 13.1478C6.00498 12.6036 6.21914 12.0379 6.46929 11.4626C6.82894 12.1362 7.2217 12.7931 7.64551 13.4306ZM10.5327 15.7444C10.1341 15.3274 9.73645 14.8661 9.34815 14.37C10.1278 14.3996 10.9089 14.3997 11.6885 14.366C11.3051 14.8711 10.918 15.3331 10.5327 15.7444ZM14.5469 11.4333C14.8101 12.0149 15.0319 12.5775 15.2081 13.1125C14.6372 13.2388 14.0209 13.3405 13.3716 13.416C13.7911 12.7711 14.1848 12.1102 14.5469 11.4333ZM12.3029 13.5149C11.1104 13.5975 9.91043 13.5966 8.71749 13.5216C8.03965 12.5616 7.43623 11.552 6.91537 10.5038C7.43374 9.45781 8.03276 8.45014 8.70739 7.49162C9.90117 7.40414 11.1023 7.40388 12.2961 7.49214C12.9649 8.4506 13.563 9.45564 14.0934 10.4922C13.5693 11.5377 12.9672 12.5474 12.3029 13.5149ZM14.9824 2.93121C16.2098 3.6176 15.6634 6.05539 15.3953 7.11546C14.5785 6.93269 13.6915 6.79671 12.7629 6.71219C12.2219 5.96534 11.6614 5.28621 11.0988 4.69841C11.9237 3.92727 13.7669 2.25152 14.9824 2.93121Z" fill="#53C1DE"/>
</svg>
