<svg width="21" height="19" viewBox="0 0 21 19" fill="none" xmlns="http://www.w3.org/2000/svg">
<path d="M8.23847 10.4183C8.31483 9.05614 8.98186 7.85607 9.98816 7.00536C10.975 6.16977 12.3033 5.65906 13.7526 5.65906C15.2005 5.65906 16.5288 6.16977 17.5163 7.00536C18.5219 7.85607 19.1889 9.05614 19.266 10.4168C19.3424 11.8164 18.7798 13.1166 17.7929 14.0804C16.7866 15.0608 15.3553 15.676 13.7526 15.676C12.1499 15.676 10.7157 15.0608 9.71011 14.0804C8.72254 13.1166 8.1614 11.8164 8.23847 10.4183Z" fill="white"/>
<path d="M10.924 10.5399C10.9632 9.84097 11.3055 9.2252 11.8218 8.7887C12.3282 8.35995 13.0097 8.0979 13.7534 8.0979C14.4963 8.0979 15.1778 8.35995 15.6846 8.7887C16.2005 9.2252 16.5428 9.84097 16.5823 10.5392C16.6215 11.2573 16.3329 11.9245 15.8265 12.419C15.3102 12.922 14.5757 13.2377 13.7534 13.2377C12.931 13.2377 12.1951 12.922 11.6791 12.419C11.1724 11.9245 10.8845 11.2573 10.924 10.5399Z" fill="#265787"/>
<path d="M6.43213 11.9756C6.43695 12.2497 6.52436 12.7824 6.65548 13.1983C6.93106 14.0788 7.39851 14.8933 8.04893 15.6111C8.71639 16.3489 9.5383 16.9416 10.4876 17.3624C11.4855 17.8042 12.5667 18.0294 13.6897 18.0276C14.8109 18.0261 15.8921 17.7965 16.89 17.3512C17.8393 16.9264 18.6605 16.3312 19.3269 15.593C19.9769 14.8722 20.4436 14.0562 20.7199 13.1757C20.8588 12.7309 20.9466 12.2794 20.9818 11.8264C21.0162 11.38 21.0018 10.933 20.9385 10.4863C20.8147 9.61582 20.5136 8.79909 20.0499 8.05459C19.6258 7.37046 19.0791 6.77152 18.429 6.26741L18.4305 6.2663L11.8703 1.22923C11.8644 1.22479 11.8596 1.21997 11.8533 1.2159C11.4229 0.885504 10.6991 0.886615 10.2258 1.21775C9.74721 1.55259 9.69239 2.10634 10.1184 2.45563L10.1165 2.45748L12.8526 4.68247L4.51309 4.69136H4.50198C3.81267 4.6921 3.15002 5.14436 3.0189 5.71588C2.88408 6.29815 3.35226 6.78115 4.06898 6.78375L4.06787 6.78634L8.29487 6.77819L0.752057 12.5679C0.742427 12.5749 0.732055 12.5824 0.723166 12.5894C0.0116284 13.1342 -0.21839 14.0402 0.229794 14.6136C0.684644 15.1966 1.65176 15.1977 2.3707 14.617L6.48732 11.2478C6.48732 11.2478 6.42732 11.7027 6.43213 11.9756ZM17.0104 13.4987C16.1622 14.3629 14.9747 14.8529 13.6897 14.8555C12.403 14.8577 11.2155 14.3721 10.3673 13.5095C9.95278 13.0891 9.64831 12.6053 9.46052 12.0901C9.27643 11.5838 9.20494 11.0463 9.25236 10.504C9.29717 9.974 9.45496 9.4684 9.70684 9.01096C9.95426 8.56129 10.295 8.15496 10.7158 7.81123C11.5403 7.13933 12.59 6.7756 13.6879 6.77411C14.7869 6.77263 15.8358 7.13303 16.6611 7.80271C17.0811 8.14496 17.4215 8.54981 17.6689 8.99874C17.9219 9.45581 18.0786 9.95955 18.1253 10.4911C18.1719 11.0326 18.1005 11.5693 17.9164 12.076C17.7282 12.5927 17.4249 13.0765 17.0104 13.4987Z" fill="#EA7600"/>
</svg>
