<svg width="625" height="908" viewBox="0 0 625 908" fill="none" xmlns="http://www.w3.org/2000/svg">
<g clip-path="url(#clip0_53_64)">
<path d="M546.333 902.427V887.166C546.333 887.166 552.304 897.985 546.333 902.427Z" fill="#F1F1F1"/>
<path d="M546.702 902.424L535.416 892.104C535.416 892.104 547.455 895.039 546.702 902.424Z" fill="#F1F1F1"/>
<path d="M415.547 902.427V887.166C415.547 887.166 409.576 897.985 415.547 902.427Z" fill="#F1F1F1"/>
<path d="M415.178 902.424L426.465 892.104C426.465 892.104 414.425 895.039 415.178 902.424Z" fill="#F1F1F1"/>
<path d="M518.118 789.241H517.3V766.919C517.3 765.223 516.964 763.543 516.312 761.975C515.661 760.408 514.705 758.984 513.501 757.784C512.296 756.584 510.867 755.633 509.293 754.983C507.719 754.334 506.033 754 504.33 754H456.852C455.149 754 453.462 754.334 451.888 754.983C450.315 755.633 448.885 756.584 447.681 757.784C446.476 758.984 445.521 760.408 444.869 761.975C444.217 763.543 443.882 765.223 443.882 766.919V889.377C443.882 892.804 445.248 896.09 447.681 898.513C450.113 900.936 453.412 902.297 456.852 902.297H504.33C507.769 902.297 511.068 900.936 513.501 898.513C515.933 896.09 517.3 892.804 517.3 889.378V805.13H518.118V789.241Z" fill="#3F3D56"/>
<path d="M504.853 757.361H498.656C498.941 758.057 499.05 758.812 498.973 759.56C498.896 760.308 498.635 761.025 498.214 761.649C497.793 762.273 497.225 762.784 496.559 763.137C495.893 763.491 495.15 763.676 494.395 763.676H467.196C466.441 763.676 465.698 763.491 465.032 763.137C464.366 762.784 463.798 762.273 463.377 761.649C462.956 761.025 462.695 760.308 462.618 759.56C462.541 758.812 462.65 758.057 462.935 757.361H457.147C454.578 757.361 452.114 758.378 450.298 760.187C448.481 761.996 447.461 764.45 447.461 767.009V889.288C447.461 890.555 447.711 891.809 448.198 892.98C448.685 894.15 449.398 895.214 450.298 896.11C451.197 897.006 452.265 897.716 453.44 898.201C454.615 898.686 455.875 898.936 457.147 898.936H504.853C506.125 898.936 507.385 898.686 508.56 898.201C509.735 897.716 510.803 897.006 511.702 896.11C512.602 895.214 513.315 894.15 513.802 892.98C514.289 891.809 514.539 890.555 514.539 889.288V767.009C514.539 765.742 514.289 764.487 513.802 763.317C513.315 762.146 512.602 761.083 511.702 760.187C510.803 759.291 509.735 758.58 508.56 758.095C507.385 757.611 506.125 757.361 504.853 757.361Z" fill="white"/>
<path d="M503.658 896.836H458.342C453.135 896.836 448.899 893.07 448.899 888.441V882.363C448.899 878.673 452.273 875.671 456.419 875.671H505.581C509.728 875.671 513.102 878.673 513.102 882.363V888.441C513.102 893.07 508.865 896.836 503.658 896.836Z" fill="#E5E5E5"/>
<path d="M463.105 794.683H452.997C452.816 794.683 452.642 794.611 452.514 794.483C452.386 794.356 452.314 794.183 452.314 794.003V783.934C452.314 783.754 452.386 783.581 452.514 783.453C452.642 783.326 452.816 783.254 452.997 783.254H463.105C463.286 783.254 463.46 783.326 463.588 783.453C463.716 783.581 463.788 783.754 463.788 783.934V794.003C463.788 794.183 463.716 794.356 463.588 794.483C463.46 794.611 463.286 794.683 463.105 794.683Z" fill="#70C368"/>
<path d="M478.405 794.683H468.296C468.115 794.683 467.942 794.611 467.814 794.483C467.686 794.356 467.613 794.183 467.613 794.003V783.934C467.613 783.754 467.686 783.581 467.814 783.453C467.942 783.326 468.115 783.254 468.296 783.254H478.405C478.586 783.254 478.759 783.326 478.887 783.453C479.015 783.581 479.087 783.754 479.088 783.934V794.003C479.087 794.183 479.015 794.356 478.887 794.483C478.759 794.611 478.586 794.683 478.405 794.683Z" fill="#E5E5E5"/>
<path d="M493.704 794.683H483.596C483.415 794.683 483.241 794.611 483.113 794.483C482.985 794.356 482.913 794.183 482.913 794.003V783.934C482.913 783.754 482.985 783.581 483.113 783.453C483.241 783.326 483.415 783.254 483.596 783.254H493.704C493.885 783.254 494.059 783.326 494.187 783.453C494.315 783.581 494.387 783.754 494.387 783.934V794.003C494.387 794.183 494.315 794.356 494.187 794.483C494.059 794.611 493.885 794.683 493.704 794.683Z" fill="#E5E5E5"/>
<path d="M509.003 794.683H498.894C498.713 794.683 498.54 794.611 498.412 794.483C498.284 794.356 498.212 794.183 498.211 794.003V783.934C498.212 783.754 498.284 783.581 498.412 783.453C498.54 783.326 498.713 783.254 498.894 783.254H509.003C509.184 783.254 509.357 783.326 509.485 783.453C509.614 783.581 509.686 783.754 509.686 783.934V794.003C509.686 794.183 509.614 794.356 509.485 794.483C509.357 794.611 509.184 794.683 509.003 794.683Z" fill="#E5E5E5"/>
<path d="M463.069 813.324H452.961C452.78 813.323 452.606 813.252 452.478 813.124C452.35 812.997 452.278 812.824 452.278 812.643V802.575C452.278 802.394 452.35 802.221 452.478 802.094C452.606 801.966 452.78 801.894 452.961 801.894H463.069C463.25 801.894 463.424 801.966 463.552 802.094C463.68 802.221 463.752 802.394 463.752 802.575V812.643C463.752 812.824 463.68 812.997 463.552 813.124C463.424 813.252 463.25 813.323 463.069 813.324Z" fill="#E5E5E5"/>
<path d="M478.368 813.324H468.26C468.079 813.323 467.905 813.252 467.777 813.124C467.649 812.997 467.577 812.824 467.577 812.643V802.575C467.577 802.394 467.649 802.221 467.777 802.094C467.905 801.966 468.079 801.894 468.26 801.894H478.368C478.55 801.894 478.723 801.966 478.851 802.094C478.979 802.221 479.051 802.394 479.051 802.575V812.643C479.051 812.824 478.979 812.997 478.851 813.124C478.723 813.252 478.55 813.323 478.368 813.324Z" fill="#E5E5E5"/>
<path d="M493.668 813.324H483.559C483.378 813.323 483.205 813.252 483.077 813.124C482.949 812.997 482.877 812.824 482.876 812.643V802.575C482.877 802.394 482.949 802.221 483.077 802.094C483.205 801.966 483.378 801.894 483.559 801.894H493.668C493.849 801.894 494.022 801.966 494.151 802.094C494.279 802.221 494.351 802.394 494.351 802.575V812.643C494.351 812.824 494.279 812.997 494.151 813.124C494.022 813.252 493.849 813.323 493.668 813.324Z" fill="#70C368"/>
<path d="M508.967 813.324H498.858C498.677 813.323 498.504 813.252 498.376 813.124C498.248 812.997 498.176 812.824 498.175 812.643V802.575C498.176 802.394 498.248 802.221 498.376 802.094C498.504 801.966 498.677 801.894 498.858 801.894H508.967C509.148 801.894 509.321 801.966 509.449 802.094C509.577 802.221 509.649 802.394 509.65 802.575V812.643C509.649 812.824 509.577 812.997 509.449 813.124C509.321 813.252 509.148 813.323 508.967 813.324Z" fill="#70C368"/>
<path d="M463.033 831.964H452.925C452.744 831.964 452.57 831.892 452.442 831.765C452.314 831.637 452.242 831.464 452.242 831.284V821.215C452.242 821.035 452.314 820.862 452.442 820.735C452.57 820.607 452.744 820.535 452.925 820.535H463.033C463.214 820.535 463.388 820.607 463.516 820.735C463.644 820.862 463.716 821.035 463.716 821.215V831.284C463.716 831.464 463.644 831.637 463.516 831.765C463.388 831.892 463.214 831.964 463.033 831.964Z" fill="#E5E5E5"/>
<path d="M478.332 831.964H468.224C468.043 831.964 467.869 831.892 467.741 831.765C467.613 831.637 467.541 831.464 467.541 831.284V821.215C467.541 821.035 467.613 820.862 467.741 820.735C467.869 820.607 468.043 820.535 468.224 820.535H478.332C478.513 820.535 478.687 820.607 478.815 820.735C478.943 820.862 479.015 821.035 479.015 821.215V831.284C479.015 831.464 478.943 831.637 478.815 831.765C478.687 831.892 478.513 831.964 478.332 831.964Z" fill="#E5E5E5"/>
<path d="M493.631 831.964H483.523C483.342 831.964 483.168 831.892 483.04 831.765C482.912 831.637 482.84 831.464 482.84 831.284V821.215C482.84 821.035 482.912 820.862 483.04 820.735C483.168 820.607 483.342 820.535 483.523 820.535H493.631C493.812 820.535 493.986 820.607 494.114 820.735C494.242 820.862 494.314 821.035 494.314 821.215V831.284C494.314 831.464 494.242 831.637 494.114 831.765C493.986 831.892 493.812 831.964 493.631 831.964Z" fill="#E5E5E5"/>
<path d="M508.931 831.964H498.822C498.641 831.964 498.467 831.892 498.339 831.765C498.211 831.637 498.139 831.464 498.139 831.284V821.215C498.139 821.035 498.211 820.862 498.339 820.735C498.467 820.607 498.641 820.535 498.822 820.535H508.931C509.112 820.535 509.285 820.607 509.413 820.735C509.541 820.862 509.613 821.035 509.614 821.215V831.284C509.613 831.464 509.541 831.637 509.413 831.765C509.285 831.892 509.112 831.964 508.931 831.964Z" fill="#E5E5E5"/>
<path d="M462.997 850.605H452.889C452.707 850.605 452.534 850.533 452.406 850.405C452.278 850.278 452.206 850.105 452.206 849.925V839.856C452.206 839.676 452.278 839.503 452.406 839.375C452.534 839.248 452.707 839.176 452.889 839.176H462.997C463.178 839.176 463.352 839.248 463.48 839.375C463.608 839.503 463.68 839.676 463.68 839.856V849.925C463.68 850.105 463.608 850.278 463.48 850.405C463.352 850.533 463.178 850.605 462.997 850.605Z" fill="#E5E5E5"/>
<path d="M478.296 850.605H468.188C468.007 850.605 467.833 850.533 467.705 850.405C467.577 850.278 467.505 850.105 467.505 849.925V839.856C467.505 839.676 467.577 839.503 467.705 839.375C467.833 839.248 468.007 839.176 468.188 839.176H478.296C478.477 839.176 478.651 839.248 478.779 839.375C478.907 839.503 478.979 839.676 478.979 839.856V849.925C478.979 850.105 478.907 850.278 478.779 850.405C478.651 850.533 478.477 850.605 478.296 850.605Z" fill="#E5E5E5"/>
<path d="M493.595 850.605H483.487C483.306 850.605 483.132 850.533 483.004 850.405C482.876 850.278 482.804 850.105 482.804 849.925V839.856C482.804 839.676 482.876 839.503 483.004 839.375C483.132 839.248 483.306 839.176 483.487 839.176H493.595C493.776 839.176 493.95 839.248 494.078 839.375C494.206 839.503 494.278 839.676 494.278 839.856V849.925C494.278 850.105 494.206 850.278 494.078 850.405C493.95 850.533 493.776 850.605 493.595 850.605Z" fill="#E5E5E5"/>
<path d="M508.894 850.605H498.786C498.605 850.605 498.431 850.533 498.303 850.405C498.175 850.278 498.103 850.105 498.103 849.925V839.856C498.103 839.676 498.175 839.503 498.303 839.375C498.431 839.248 498.605 839.176 498.786 839.176H508.894C509.075 839.176 509.249 839.248 509.377 839.375C509.505 839.503 509.577 839.676 509.577 839.856V849.925C509.577 850.105 509.505 850.278 509.377 850.405C509.249 850.533 509.075 850.605 508.894 850.605Z" fill="#E5E5E5"/>
<path d="M463.105 892.24H452.997C452.816 892.24 452.642 892.168 452.514 892.041C452.386 891.913 452.314 891.74 452.314 891.56V881.491C452.314 881.311 452.386 881.138 452.514 881.011C452.642 880.883 452.816 880.811 452.997 880.811H463.105C463.286 880.811 463.46 880.883 463.588 881.011C463.716 881.138 463.788 881.311 463.788 881.491V891.56C463.788 891.74 463.716 891.913 463.588 892.041C463.46 892.168 463.286 892.24 463.105 892.24Z" fill="white"/>
<path d="M478.405 892.24H468.296C468.115 892.24 467.942 892.168 467.814 892.041C467.686 891.913 467.613 891.74 467.613 891.56V881.491C467.613 881.311 467.686 881.138 467.814 881.011C467.942 880.883 468.115 880.811 468.296 880.811H478.405C478.586 880.811 478.759 880.883 478.887 881.011C479.015 881.138 479.087 881.311 479.088 881.491V891.56C479.087 891.74 479.015 891.913 478.887 892.041C478.759 892.168 478.586 892.24 478.405 892.24Z" fill="white"/>
<path d="M493.704 892.24H483.596C483.415 892.24 483.241 892.168 483.113 892.041C482.985 891.913 482.913 891.74 482.913 891.56V881.491C482.913 881.311 482.985 881.138 483.113 881.011C483.241 880.883 483.415 880.811 483.596 880.811H493.704C493.885 880.811 494.059 880.883 494.187 881.011C494.315 881.138 494.387 881.311 494.387 881.491V891.56C494.387 891.74 494.315 891.913 494.187 892.041C494.059 892.168 493.885 892.24 493.704 892.24Z" fill="white"/>
<path d="M509.003 892.24H498.894C498.713 892.24 498.54 892.168 498.412 892.041C498.284 891.913 498.212 891.74 498.211 891.56V881.491C498.212 881.311 498.284 881.138 498.412 881.011C498.54 880.883 498.713 880.811 498.894 880.811H509.003C509.184 880.811 509.357 880.883 509.485 881.011C509.614 881.138 509.686 881.311 509.686 881.491V891.56C509.686 891.74 509.614 891.913 509.485 892.041C509.357 892.168 509.184 892.24 509.003 892.24Z" fill="white"/>
<path d="M476.046 871.014C476.801 871.014 477.412 870.405 477.412 869.654C477.412 868.902 476.801 868.293 476.046 868.293C475.292 868.293 474.68 868.902 474.68 869.654C474.68 870.405 475.292 871.014 476.046 871.014Z" fill="#E5E5E5"/>
<path d="M480.964 871.014C481.718 871.014 482.33 870.405 482.33 869.654C482.33 868.902 481.718 868.293 480.964 868.293C480.209 868.293 479.598 868.902 479.598 869.654C479.598 870.405 480.209 871.014 480.964 871.014Z" fill="#E5E5E5"/>
<path d="M485.882 871.014C486.636 871.014 487.248 870.405 487.248 869.654C487.248 868.902 486.636 868.293 485.882 868.293C485.127 868.293 484.516 868.902 484.516 869.654C484.516 870.405 485.127 871.014 485.882 871.014Z" fill="#E5E5E5"/>
<path d="M568.788 902.517H393.212C393.156 902.517 393.102 902.495 393.062 902.455C393.022 902.416 393 902.362 393 902.306C393 902.25 393.022 902.197 393.062 902.157C393.102 902.118 393.156 902.095 393.212 902.095H568.788C568.844 902.095 568.898 902.118 568.938 902.157C568.978 902.197 569 902.25 569 902.306C569 902.362 568.978 902.416 568.938 902.455C568.898 902.495 568.844 902.517 568.788 902.517Z" fill="#CBCBCB"/>
<path d="M462.122 860.979C462.407 860.695 462.627 860.351 462.765 859.973C462.903 859.595 462.956 859.191 462.921 858.79C462.885 858.389 462.762 858.001 462.559 857.653C462.357 857.304 462.08 857.005 461.749 856.774L464.417 847.359L459.553 848.9L457.765 857.604C457.414 858.185 457.288 858.873 457.412 859.539C457.536 860.205 457.902 860.803 458.439 861.219C458.976 861.635 459.647 861.84 460.326 861.796C461.005 861.752 461.644 861.461 462.122 860.979Z" fill="#FFB7B7"/>
<path d="M463.505 855.208C463.418 855.225 463.329 855.232 463.241 855.231L458.575 855.137C458.4 855.134 458.227 855.093 458.068 855.018C457.91 854.943 457.769 854.835 457.656 854.701C457.542 854.568 457.459 854.411 457.411 854.243C457.362 854.075 457.351 853.898 457.377 853.725L462.11 821.872C462.251 820.951 462.718 820.11 463.428 819.502C464.137 818.894 465.041 818.559 465.976 818.557C466.567 818.558 467.15 818.693 467.681 818.952C468.211 819.21 468.676 819.586 469.04 820.05C469.404 820.513 469.657 821.053 469.78 821.629C469.904 822.204 469.894 822.8 469.753 823.372L466.398 836.906L464.495 854.134C464.468 854.395 464.356 854.64 464.178 854.834C464 855.027 463.764 855.159 463.505 855.208Z" fill="#3F3D56"/>
<path d="M465.456 905.493H468.052L469.287 895.517L465.455 895.517L465.456 905.493Z" fill="#FFB7B7"/>
<path d="M464.793 904.649L469.906 904.648H469.907C470.771 904.648 471.6 904.99 472.211 905.599C472.822 906.208 473.165 907.033 473.165 907.894V908L464.793 908L464.793 904.649Z" fill="#2F2E41"/>
<path d="M476.527 904.653L479.108 904.941L481.452 895.164L477.643 894.739L476.527 904.653Z" fill="#FFB7B7"/>
<path d="M475.964 903.74L481.045 904.308C481.904 904.404 482.69 904.836 483.229 905.508C483.768 906.181 484.017 907.04 483.921 907.895L483.909 908L475.589 907.071L475.964 903.74Z" fill="#2F2E41"/>
<path d="M463.018 849.978C463.018 849.978 459.458 857.828 462.602 862.926L464.475 902.623H468.775L472.947 870.556L480.359 880.05L475.843 902.207L481.102 902.501L488.407 880.05C488.407 880.05 482.795 855.294 480.942 854.698L479.724 849.038L463.018 849.978Z" fill="#2F2E41"/>
<path d="M461.434 856.87C461.434 856.87 458.227 860.536 466.699 861.802C475.171 863.067 484.066 861.169 484.278 858.637C484.49 856.106 461.434 856.87 461.434 856.87Z" fill="#CBCBCB"/>
<path d="M503.902 811.393C503.889 811.751 503.797 812.101 503.633 812.42C503.47 812.739 503.238 813.018 502.954 813.238C502.67 813.457 502.341 813.612 501.99 813.692C501.64 813.771 501.276 813.773 500.925 813.698L497.722 818.298L494.441 817.041L499.055 810.608C499.222 810.029 499.597 809.53 500.108 809.207C500.619 808.884 501.231 808.759 501.829 808.856C502.426 808.953 502.967 809.264 503.349 809.732C503.732 810.2 503.928 810.791 503.902 811.393Z" fill="#FFB7B7"/>
<path d="M476.82 817.311L472.293 815.271L466.492 815.684C466.492 815.684 459.498 823.828 462.251 831.634L460.557 858.848C471.359 861.802 476.269 856.262 484.066 858.637L481.658 828.392L476.82 817.311Z" fill="#3F3D56"/>
<path d="M473.794 819.293L476.82 817.311C476.82 817.311 481.023 816.678 482.703 818.302C482.703 818.302 488.406 818.777 489.784 820.195L491.3 820.536L496.338 814.038L499.421 815.706L494.973 827.731L481.657 828.392L473.794 819.293Z" fill="#3F3D56"/>
<path d="M474.838 812.982C478.302 811.096 479.575 806.771 477.681 803.321C475.788 799.871 471.445 798.603 467.982 800.489C464.519 802.375 463.246 806.701 465.139 810.15C467.032 813.6 471.375 814.868 474.838 812.982Z" fill="#FFB7B7"/>
<path d="M465.228 801.17C466.504 798.885 468.098 797.405 470.723 797.458C473.348 797.512 475.618 797.408 476.799 799.744C477.111 799.162 477.267 798.509 477.253 797.849C477.609 798.08 477.891 798.41 478.061 798.797C478.232 799.185 478.285 799.614 478.214 800.032C478.444 799.898 478.636 799.708 478.773 799.481C478.911 799.254 478.988 798.996 479 798.731C479.875 799.022 480.103 800.251 479.66 801.058C479.217 801.865 478.348 802.331 477.513 802.725C476.679 803.12 477.065 805.205 476.52 805.948C476.14 806.466 475.966 807.101 475.71 807.69C475.699 807.713 475.681 807.732 475.658 807.744C475.071 808.07 474.7 808.653 474.804 809.314C474.816 809.364 474.813 809.416 474.795 809.464C474.052 810.859 473.249 812.319 471.902 813.151C470.821 813.802 469.525 814.001 468.297 813.706C466.92 813.378 465.729 812.469 464.871 811.347C464.012 810.225 463.46 808.899 463.045 807.55C462.677 806.354 462.409 805.075 462.701 803.858C462.993 802.64 463.981 801.513 465.234 801.419" fill="#2F2E41"/>
</g>
<g clip-path="url(#clip1_53_64)">
<path d="M70.7525 599.419L63.5103 587.962L70.7558 600.667L70.7597 601.973C71.2764 601.967 71.7879 601.947 72.2941 601.914L71.7034 585.143L71.7112 585.013L71.6979 584.988L71.6416 583.404L79.214 570.846L71.6338 582.217L71.6111 582.552L71.1649 569.881L77.6747 556.889L71.114 567.655L70.8088 541.391L70.8074 541.304L70.8064 541.39L70.6578 562.097L64.4373 553.812L70.6633 563.88L70.6922 575.222L64.9205 564.268L70.6954 576.889L70.7113 583.196L62.3274 567.944L70.7179 585.396L70.7525 599.419Z" fill="#E2E2E2"/>
<path d="M132.9 599.419L125.658 587.962L132.904 600.667L132.907 601.973C133.424 601.967 133.936 601.947 134.442 601.914L133.851 585.143L133.859 585.013L133.846 584.988L133.789 583.403L141.362 570.846L133.781 582.217L133.759 582.552L133.313 569.881L139.822 556.889L133.262 567.655L132.957 541.391L132.955 541.304L132.954 541.39L132.805 562.097L126.585 553.812L132.811 563.88L132.84 575.222L127.068 564.268L132.843 576.889L132.859 583.196L124.475 567.944L132.866 585.396L132.9 599.419Z" fill="#E2E2E2"/>
<path d="M8.54563 600.156L3.31607 591.883L8.54806 601.057L8.55086 602C8.92394 601.996 9.29326 601.981 9.65882 601.957L9.23227 589.847L9.23788 589.753L9.22828 589.736L9.18767 588.591L14.6556 579.524L9.18202 587.734L9.16564 587.977L8.84343 578.827L13.5441 569.445L8.8067 577.219L8.58633 558.254L8.58532 558.191L8.58456 558.253L8.47726 573.206L3.98549 567.223L8.48124 574.494L8.5021 582.683L4.33438 574.774L8.5044 583.887L8.51593 588.441L2.46191 577.428L8.52068 590.03L8.54563 600.156Z" fill="#E2E2E2"/>
<path d="M284.049 599.419L276.807 587.962L284.053 600.667L284.057 601.973C284.573 601.967 285.085 601.947 285.591 601.914L285 585.143L285.008 585.013L284.995 584.988L284.938 583.404L292.511 570.846L284.931 582.217L284.908 582.552L284.462 569.881L290.972 556.889L284.411 567.655L284.106 541.391L284.104 541.304L284.103 541.39L283.955 562.097L277.734 553.812L283.96 563.88L283.989 575.222L278.217 564.268L283.992 576.889L284.008 583.196L275.624 567.944L284.015 585.396L284.049 599.419Z" fill="#E2E2E2"/>
<path d="M87.6419 582.121H126.709V580.47H87.6419V582.121Z" fill="#70C368"/>
<path d="M85.6553 580.47H124.723V578.82H85.6553V580.47Z" fill="#70C368"/>
<path d="M87.973 578.82H127.041V577.17H87.973V578.82Z" fill="#70C368"/>
<path d="M91.9459 577.17H131.013V575.519H91.9459V577.17Z" fill="#70C368"/>
<path d="M58.7051 577.828H60.0615V568.227H58.7051V577.828Z" fill="#3F3D56"/>
<path d="M58.7023 568.105L59.2124 569.358L109.407 549.048L108.897 547.795L58.7023 568.105Z" fill="#3F3D56"/>
<path d="M33.6109 592.161H45.4119V587.564H33.6109V592.161Z" fill="#3F3D56"/>
<path d="M34.6961 596.759H92.887V591.62H34.6961V596.759Z" fill="#3F3D56"/>
<path d="M44.259 594.19H58.2303V576.678H47.7857L44.259 585.51V594.19Z" fill="#E2E2E2"/>
<path d="M50.0918 583.71H56.0601V577.76H50.0918V583.71Z" fill="white"/>
<path d="M45.6152 583.777H49.4134V577.828H47.7855L45.6152 583.777Z" fill="white"/>
<path d="M54.4322 589.66H55.7886V587.09H54.4322V589.66Z" fill="#3F3D56"/>
<path d="M48.2605 584.183H48.1927C47.8509 584.183 47.5232 584.048 47.2815 583.807C47.0398 583.566 46.9041 583.239 46.9041 582.898C46.9041 582.558 47.0398 582.231 47.2815 581.99C47.5232 581.749 47.8509 581.614 48.1927 581.614H48.2605V584.183Z" fill="#3F3D56"/>
<path d="M98.7197 594.19H98.6519C98.3101 594.19 97.9824 594.054 97.7407 593.813C97.4991 593.573 97.3633 593.246 97.3633 592.905C97.3633 592.564 97.4991 592.238 97.7407 591.997C97.9824 591.756 98.3101 591.62 98.6519 591.62H98.7197V594.19Z" fill="#3F3D56"/>
<path d="M38.8334 591.601C37.8246 591.614 36.8318 591.853 35.9286 592.301C35.0255 592.75 34.2354 593.395 33.617 594.19H30.9661L33.5433 587.033L45.5477 584.672L45.2086 594.19H44.0498C43.4313 593.395 42.6412 592.75 41.7381 592.301C40.835 591.853 39.8421 591.614 38.8334 591.601Z" fill="#E2E2E2"/>
<path d="M38.6976 601.762C41.9563 601.762 44.5981 599.129 44.5981 595.88C44.5981 592.631 41.9563 589.998 38.6976 589.998C35.4388 589.998 32.7971 592.631 32.7971 595.88C32.7971 599.129 35.4388 601.762 38.6976 601.762Z" fill="#3F3D56"/>
<path d="M38.6976 598.976C40.4127 598.976 41.8031 597.59 41.8031 595.88C41.8031 594.17 40.4127 592.784 38.6976 592.784C36.9824 592.784 35.592 594.17 35.592 595.88C35.592 597.59 36.9824 598.976 38.6976 598.976Z" fill="#E2E2E2"/>
<path d="M92.0053 601.694C94.852 601.694 97.1597 599.394 97.1597 596.556C97.1597 593.718 94.852 591.417 92.0053 591.417C89.1585 591.417 86.8508 593.718 86.8508 596.556C86.8508 599.394 89.1585 601.694 92.0053 601.694Z" fill="#3F3D56"/>
<path d="M92.0053 599.261C93.5036 599.261 94.7182 598.05 94.7182 596.556C94.7182 595.062 93.5036 593.852 92.0053 593.852C90.5071 593.852 89.2925 595.062 89.2925 596.556C89.2925 598.05 90.5071 599.261 92.0053 599.261Z" fill="#E2E2E2"/>
<path d="M57.8234 594.73H60.6719V574.244H57.8234V594.73Z" fill="#3F3D56"/>
<path d="M57.8232 592.229H98.7874V591.012H57.8232V592.229Z" fill="#3F3D56"/>
<path d="M47.4466 584.589H48.803V584.048H47.4466V584.589Z" fill="#3F3D56"/>
<path d="M107.401 582.11C107.388 582.096 107.378 582.08 107.372 582.062C107.366 582.043 107.364 582.024 107.366 582.005L109.237 564.37C109.24 564.337 109.256 564.306 109.281 564.284C109.306 564.261 109.338 564.249 109.371 564.249H109.372C109.405 564.249 109.437 564.261 109.462 564.283C109.487 564.305 109.503 564.336 109.507 564.369L111.53 581.968C111.532 581.986 111.53 582.005 111.525 582.024C111.519 582.042 111.509 582.058 111.497 582.073C111.484 582.087 111.469 582.098 111.451 582.106C111.434 582.114 111.415 582.118 111.396 582.118L107.502 582.155H107.501C107.482 582.155 107.464 582.151 107.446 582.143C107.429 582.136 107.413 582.124 107.401 582.11ZM109.377 565.619L107.652 581.883L111.243 581.849L109.377 565.619Z" fill="#3F3D56"/>
<path d="M33.5681 587.137L33.6316 587.161C33.9512 587.282 34.2097 587.524 34.3503 587.834C34.4908 588.145 34.5019 588.498 34.381 588.817C34.2601 589.136 34.0171 589.393 33.7056 589.534C33.3941 589.674 33.0395 589.685 32.7198 589.564L32.6564 589.54L33.5681 587.137Z" fill="#3F3D56"/>
<path d="M108.757 567.551H110.114V547.808H108.757V567.551Z" fill="#3F3D56"/>
<path d="M59.3831 570.39C60.4319 570.39 61.2821 569.543 61.2821 568.497C61.2821 567.452 60.4319 566.604 59.3831 566.604C58.3343 566.604 57.4841 567.452 57.4841 568.497C57.4841 569.543 58.3343 570.39 59.3831 570.39Z" fill="#3F3D56"/>
<path d="M62.1485 591.032H101.216V589.382H62.1485V591.032Z" fill="#70C368"/>
<path d="M64.4661 589.382H103.534V587.732H64.4661V589.382Z" fill="#70C368"/>
<path d="M62.8106 588.062H101.878V586.411H62.8106V588.062Z" fill="#70C368"/>
<path d="M65.1282 586.411H104.196V584.761H65.1282V586.411Z" fill="#70C368"/>
<path d="M126.585 490.347C127.83 490.346 129.033 490.793 129.974 491.606C130.717 491.403 131.496 491.369 132.254 491.506C132.881 490.598 133.784 489.914 134.829 489.554C135.874 489.193 137.008 489.176 138.064 489.504C139.12 489.831 140.043 490.487 140.699 491.375C141.354 492.263 141.708 493.337 141.708 494.439H121.513C121.761 493.281 122.399 492.243 123.322 491.498C124.245 490.754 125.397 490.347 126.585 490.347Z" fill="#E2E2E2"/>
<path d="M96.2027 506.635C97.3797 506.633 98.5176 507.056 99.4068 507.825C100.109 507.634 100.846 507.601 101.562 507.73C102.156 506.872 103.009 506.225 103.997 505.885C104.985 505.544 106.057 505.528 107.055 505.837C108.054 506.147 108.926 506.767 109.546 507.606C110.166 508.446 110.5 509.461 110.5 510.503H91.408C91.6421 509.409 92.2459 508.427 93.1186 507.723C93.9913 507.019 95.08 506.635 96.2027 506.635Z" fill="#E2E2E2"/>
<path d="M65.8269 479.771C67.0515 479.769 68.2355 480.209 69.1606 481.009C69.8916 480.81 70.6579 480.776 71.4035 480.911C72.0209 480.018 72.9084 479.345 73.9366 478.99C74.9648 478.636 76.0798 478.619 77.1186 478.941C78.1573 479.263 79.0655 479.908 79.7104 480.782C80.3553 481.655 80.7031 482.711 80.703 483.796H60.8381C61.0817 482.657 61.71 481.636 62.618 480.903C63.526 480.171 64.6587 479.771 65.8269 479.771Z" fill="#E2E2E2"/>
<path d="M196.993 530.925V572.152H213.075V530.353L209.342 530.486V522.05H206.634L206.188 503.368C207.28 502.658 208.049 500.972 208.049 499.004C208.051 498.439 207.985 497.875 207.853 497.326C208.37 496.768 208.687 496.055 208.754 495.298C208.821 494.542 208.635 493.784 208.224 493.145C208.567 493.444 208.967 493.672 209.4 493.816C209.833 493.96 210.29 494.017 210.745 493.984C211.2 493.95 211.644 493.827 212.051 493.621C212.458 493.415 212.82 493.131 213.115 492.784C213.411 492.438 213.635 492.036 213.773 491.603C213.912 491.169 213.963 490.713 213.924 490.26C213.884 489.806 213.754 489.366 213.542 488.963C213.331 488.56 213.04 488.203 212.689 487.913C213.28 487.695 213.8 487.321 214.192 486.83C214.584 486.338 214.834 485.749 214.914 485.127C214.994 484.504 214.902 483.871 214.647 483.297C214.391 482.723 213.983 482.23 213.466 481.871C212.95 481.512 212.344 481.301 211.716 481.261C211.087 481.221 210.46 481.353 209.901 481.644C209.343 481.934 208.875 482.372 208.549 482.908C208.222 483.445 208.049 484.061 208.049 484.689C208.049 484.739 208.051 484.789 208.053 484.839C207.58 484.695 207.081 484.654 206.591 484.719C206.1 484.784 205.63 484.954 205.211 485.216C204.792 485.479 204.435 485.828 204.163 486.24C203.891 486.653 203.712 487.118 203.637 487.606C203.207 487.351 202.727 487.192 202.23 487.141C201.732 487.09 201.23 487.147 200.757 487.309C200.284 487.471 199.852 487.733 199.491 488.078C199.13 488.423 198.848 488.842 198.666 489.306C198.484 489.771 198.405 490.269 198.435 490.766C198.465 491.264 198.604 491.749 198.841 492.188C199.078 492.627 199.409 493.009 199.809 493.308C200.209 493.607 200.67 493.815 201.159 493.919C201.158 493.944 201.157 493.969 201.157 493.994C201.477 494.957 201.884 495.888 202.374 496.778C202.135 497.495 202.015 498.247 202.019 499.004C202.019 500.972 202.787 502.658 203.88 503.368L203.434 522.05H200.726V530.792L196.993 530.925ZM207.035 491.56L207.044 491.56C207.094 491.56 207.143 491.559 207.192 491.556C207.223 491.658 207.259 491.757 207.299 491.855C207.217 491.751 207.129 491.653 207.035 491.56Z" fill="#E2E2E2"/>
<path d="M188.138 601.496H236.959V545.192H188.138V601.496Z" fill="#3F3D56"/>
<path d="M205.967 601.496H219.13V590.045H205.967V601.496Z" fill="#E2E2E2"/>
<path d="M171.868 471.109C171.867 471.15 171.865 471.192 171.865 471.233C171.864 471.999 172.018 472.757 172.317 473.462C172.616 474.168 173.054 474.806 173.606 475.338C173.692 475.522 173.788 475.7 173.893 475.873C173.494 477.07 173.294 478.323 173.301 479.584C173.301 483.932 175.551 487.457 178.326 487.457C181.102 487.457 183.352 483.932 183.352 479.584C183.354 478.642 183.244 477.703 183.024 476.787C183.886 475.857 184.414 474.669 184.526 473.408C184.638 472.147 184.327 470.884 183.642 469.818C184.215 470.317 184.881 470.698 185.603 470.938C186.324 471.178 187.086 471.273 187.845 471.217C188.603 471.161 189.343 470.955 190.021 470.612C190.699 470.269 191.302 469.795 191.795 469.217C192.288 468.64 192.66 467.971 192.892 467.248C193.123 466.526 193.208 465.765 193.142 465.01C193.076 464.255 192.86 463.52 192.507 462.849C192.154 462.177 191.67 461.582 191.085 461.099C192.069 460.736 192.936 460.112 193.59 459.293C194.244 458.475 194.66 457.493 194.793 456.455C194.927 455.417 194.773 454.362 194.347 453.406C193.922 452.449 193.242 451.627 192.38 451.028C191.519 450.43 190.51 450.078 189.462 450.012C188.415 449.945 187.369 450.166 186.438 450.65C185.508 451.134 184.728 451.863 184.184 452.758C183.64 453.653 183.352 454.679 183.352 455.726C183.352 455.81 183.355 455.893 183.358 455.976C182.57 455.736 181.738 455.667 180.921 455.776C180.104 455.884 179.319 456.167 178.621 456.604C177.923 457.042 177.327 457.624 176.875 458.311C176.422 458.998 176.123 459.774 175.998 460.587C175.282 460.162 174.482 459.898 173.652 459.812C172.823 459.727 171.986 459.822 171.197 460.092C170.409 460.361 169.689 460.799 169.087 461.374C168.485 461.949 168.016 462.647 167.713 463.421C167.409 464.195 167.278 465.025 167.328 465.855C167.379 466.684 167.61 467.492 168.005 468.224C168.4 468.955 168.951 469.592 169.618 470.09C170.285 470.589 171.053 470.936 171.868 471.109ZM181.677 467.178C181.759 467.178 181.842 467.175 181.924 467.171C181.975 467.341 182.034 467.506 182.101 467.668C181.964 467.496 181.818 467.332 181.662 467.177L181.677 467.178Z" fill="#E2E2E2"/>
<path d="M175.453 526.583H181.198L180.993 517.995V517.992L180.241 486.501C179.664 486.852 179.001 487.038 178.326 487.038C177.65 487.038 176.987 486.852 176.41 486.501L175.659 517.992V517.995L175.453 526.583Z" fill="#70C368"/>
<path d="M164.925 532.785V601.496H191.726V531.831L185.505 532.052V517.995H171.146V532.564L164.925 532.785Z" fill="#70C368"/>
<path d="M240.312 471.109C240.311 471.15 240.309 471.192 240.309 471.233C240.308 471.999 240.462 472.757 240.761 473.462C241.061 474.168 241.499 474.806 242.051 475.338C242.137 475.522 242.233 475.7 242.338 475.873C241.939 477.07 241.738 478.323 241.745 479.584C241.745 483.932 243.995 487.457 246.771 487.457C249.546 487.457 251.796 483.932 251.796 479.584C251.799 478.642 251.689 477.703 251.469 476.787C252.331 475.857 252.859 474.669 252.971 473.408C253.083 472.147 252.772 470.884 252.087 469.818C252.66 470.317 253.326 470.698 254.047 470.938C254.769 471.178 255.531 471.273 256.289 471.217C257.048 471.161 257.787 470.955 258.466 470.612C259.144 470.269 259.747 469.795 260.239 469.217C260.732 468.64 261.105 467.971 261.336 467.248C261.568 466.526 261.653 465.765 261.587 465.01C261.521 464.255 261.305 463.52 260.952 462.849C260.598 462.177 260.115 461.582 259.529 461.099C260.514 460.736 261.38 460.112 262.034 459.293C262.688 458.475 263.104 457.493 263.238 456.455C263.372 455.417 263.217 454.362 262.792 453.406C262.366 452.449 261.686 451.627 260.825 451.028C259.964 450.43 258.955 450.078 257.907 450.012C256.859 449.945 255.814 450.166 254.883 450.65C253.952 451.134 253.173 451.863 252.628 452.758C252.084 453.653 251.797 454.679 251.796 455.726C251.796 455.81 251.799 455.893 251.803 455.976C251.014 455.736 250.183 455.667 249.366 455.776C248.548 455.884 247.764 456.167 247.066 456.604C246.367 457.042 245.772 457.624 245.319 458.311C244.867 458.998 244.568 459.774 244.443 460.587C243.727 460.162 242.926 459.898 242.097 459.812C241.268 459.727 240.43 459.822 239.642 460.092C238.854 460.361 238.133 460.799 237.532 461.374C236.93 461.949 236.461 462.647 236.157 463.421C235.853 464.195 235.722 465.025 235.773 465.855C235.823 466.684 236.054 467.492 236.45 468.224C236.845 468.955 237.395 469.592 238.062 470.09C238.729 470.589 239.497 470.936 240.312 471.109ZM250.121 467.178C250.204 467.178 250.286 467.175 250.368 467.171C250.42 467.341 250.479 467.506 250.546 467.668C250.409 467.496 250.262 467.332 250.106 467.177L250.121 467.178Z" fill="#E2E2E2"/>
<path d="M243.899 526.583H249.643L248.685 486.502C247.448 486.946 246.094 486.946 244.856 486.502L243.899 526.583Z" fill="#70C368"/>
<path d="M233.369 532.785V601.496H260.174V531.831L257.972 531.91L253.949 532.052V517.995H239.59V532.564L233.369 532.785Z" fill="#70C368"/>
<path d="M219.832 558.589H226.454V551.988H219.832V558.589Z" fill="white"/>
<path d="M209.238 558.589H215.859V551.988H209.238V558.589Z" fill="white"/>
<path d="M198.643 558.589H205.265V551.988H198.643V558.589Z" fill="white"/>
<path d="M219.832 569.151H226.454V562.55H219.832V569.151Z" fill="white"/>
<path d="M209.238 569.151H215.859V562.55H209.238V569.151Z" fill="white"/>
<path d="M198.643 569.151H205.265V562.55H198.643V569.151Z" fill="white"/>
<path d="M219.832 579.713H226.454V573.111H219.832V579.713Z" fill="white"/>
<path d="M209.238 579.713H215.859V573.111H209.238V579.713Z" fill="white"/>
<path d="M198.643 579.713H205.265V573.111H198.643V579.713Z" fill="white"/>
<path d="M175.015 555.948H181.637V549.347H175.015V555.948Z" fill="white"/>
<path d="M175.015 566.51H181.637V559.909H175.015V566.51Z" fill="white"/>
<path d="M175.015 577.072H181.637V570.471H175.015V577.072Z" fill="white"/>
<path d="M175.015 587.634H181.637V581.033H175.015V587.634Z" fill="white"/>
<path d="M243.405 555.948H250.026V549.347H243.405V555.948Z" fill="white"/>
<path d="M243.405 566.51H250.026V559.909H243.405V566.51Z" fill="white"/>
<path d="M243.405 577.072H250.026V570.471H243.405V577.072Z" fill="white"/>
<path d="M243.405 587.634H250.026V581.033H243.405V587.634Z" fill="white"/>
<path d="M294 601.264H0V601.924H294V601.264Z" fill="#3F3D56"/>
</g>
<g clip-path="url(#clip2_53_64)">
<path d="M412.289 332.915C406.715 337.071 405.136 344.382 405.136 344.382C405.136 344.382 412.593 344.956 418.167 340.801C423.74 336.645 425.32 329.334 425.32 329.334C425.32 329.334 417.863 328.76 412.289 332.915Z" fill="#F1F1F1"/>
<path d="M414.611 334.866C411.932 341.282 405.223 344.589 405.223 344.589C405.223 344.589 402.858 337.492 405.536 331.076C408.215 324.66 414.924 321.354 414.924 321.354C414.924 321.354 417.29 328.45 414.611 334.866Z" fill="#F1F1F1"/>
<path d="M574.971 316.318C574.379 312.328 574.222 308.286 574.504 304.262L574.971 297.603C572.4 302.72 572.981 309.454 574.971 316.318Z" fill="#CACACA"/>
<path d="M576.976 317.432C576.691 315.051 576.615 312.65 576.751 310.256L576.976 306.292C575.739 309.338 576.018 313.347 576.976 317.432Z" fill="#CACACA"/>
<path d="M585.887 322.334V324.562C585.886 324.739 585.816 324.909 585.69 325.034C585.565 325.159 585.396 325.23 585.219 325.231H584.105C584.076 325.231 584.047 325.236 584.02 325.248C583.993 325.259 583.968 325.275 583.947 325.296C583.927 325.317 583.91 325.341 583.899 325.368C583.888 325.395 583.882 325.424 583.882 325.454V343.723C583.881 343.9 583.811 344.069 583.686 344.195C583.56 344.32 583.391 344.39 583.214 344.391H569.625C569.448 344.391 569.278 344.321 569.153 344.195C569.028 344.07 568.957 343.9 568.957 343.723V325.454C568.957 325.395 568.933 325.338 568.892 325.296C568.85 325.254 568.793 325.231 568.734 325.231H567.398C567.221 325.231 567.051 325.16 566.925 325.035C566.8 324.91 566.73 324.74 566.729 324.562V322.334C566.729 322.247 566.747 322.16 566.78 322.078C566.814 321.997 566.863 321.924 566.925 321.862C566.987 321.799 567.061 321.75 567.142 321.717C567.223 321.683 567.31 321.666 567.398 321.666H585.219C585.396 321.667 585.566 321.737 585.691 321.862C585.816 321.988 585.887 322.157 585.887 322.334Z" fill="#F2F2F2"/>
<path d="M583.902 325.699H568.977V326.367H583.902V325.699Z" fill="#E6E6E6"/>
<path d="M583.882 335.534C578.888 337.601 573.839 337.624 568.734 335.534V330.825C573.649 329.174 578.968 329.174 583.882 330.825V335.534Z" fill="#E6E6E6"/>
<path d="M500.225 263.536C511.374 263.536 520.412 254.497 520.412 243.346C520.412 232.195 511.374 223.156 500.225 223.156C489.076 223.156 480.038 232.195 480.038 243.346C480.038 254.497 489.076 263.536 500.225 263.536Z" fill="#FEB8B8"/>
<path d="M519.08 225.927C516.062 221.026 511.338 217.414 505.816 215.787L503.338 217.596V215.247C502.012 215.044 500.67 214.966 499.33 215.014L497.191 216.948V215.174C494.026 215.568 490.976 216.613 488.234 218.244C485.492 219.875 483.118 222.057 481.261 224.651C476.618 231.346 475.834 240.66 480.401 247.409C481.655 243.555 483.177 239.94 484.431 236.087C485.416 236.221 486.415 236.226 487.401 236.101L488.926 232.541L489.353 235.95C494.08 235.539 501.093 234.634 505.574 233.805L505.139 231.19L507.746 233.363C509.119 233.047 509.934 232.76 509.867 232.541C513.2 237.916 517.28 241.348 520.613 246.723C521.879 239.144 523.336 232.843 519.08 225.927Z" fill="#2F2E41"/>
<path d="M543.642 295.266C542.948 291.089 542.232 286.832 540.291 283.069C539.015 280.604 536.99 278.256 534.26 277.768C533.723 277.72 533.194 277.598 532.69 277.405C531.89 277.019 521.142 270.883 519.433 269.814C517.966 268.896 515.651 267.197 514.483 267.197C513.309 267.171 508.805 268.22 491.226 266.845C491.226 266.845 486.397 268.749 482.66 271.058C482.603 271.02 464.414 280.789 463.731 280.764C462.437 280.709 461.234 281.538 460.492 282.581C459.75 283.625 459.402 284.917 459.038 286.166C463.011 295.014 466.646 303.874 470.619 312.723C470.805 313.056 470.904 313.431 470.906 313.813C470.826 314.209 470.657 314.582 470.412 314.903C468.464 318.033 468.526 321.97 468.738 325.649C468.951 329.328 469.215 333.214 467.571 336.512C467.124 337.417 466.542 338.246 466.117 339.151C465.121 341.202 464.761 347.76 465.343 349.963L538.224 352.052C536.657 347.743 543.642 295.266 543.642 295.266Z" fill="#70C368"/>
<path d="M452.738 313.115C452.593 314.167 452.578 315.233 452.695 316.289L453.739 331.293C453.837 332.707 453.934 334.117 454.067 335.528C454.317 338.266 454.692 340.981 455.156 343.693C455.167 344.078 455.33 344.443 455.609 344.708C455.888 344.974 456.262 345.117 456.647 345.107C461.245 346.08 465.996 346.041 470.688 345.776C477.849 345.377 496.17 344.62 497.289 343.166C498.408 341.712 497.756 339.36 496.296 338.184C494.837 337.008 470.661 334.141 470.661 334.141C470.897 332.269 471.609 330.506 472.285 328.728C473.5 325.575 474.634 322.319 474.656 318.941C474.677 315.564 473.405 312.013 470.639 310.078C468.363 308.489 465.434 308.195 462.661 308.26C460.643 308.318 457.157 307.835 455.314 308.624C453.856 309.266 453.011 311.687 452.738 313.115Z" fill="#FBBEBE"/>
<path d="M458.828 286.435C458.474 286.806 458.2 287.245 458.021 287.726C455.083 294.349 453.348 301.442 452.896 308.673C452.904 309.026 452.823 309.375 452.66 309.688C452.499 309.896 452.321 310.089 452.126 310.265C451.956 310.467 451.827 310.7 451.747 310.951C451.667 311.202 451.638 311.467 451.66 311.729C451.682 311.992 451.756 312.247 451.877 312.482C451.998 312.716 452.164 312.924 452.366 313.094C452.399 313.121 452.433 313.148 452.467 313.174C453.067 312.045 454.503 311.676 455.779 311.578C461.889 311.095 467.858 313.938 473.986 313.723C473.554 312.229 472.932 310.793 472.579 309.281C471.02 302.566 474.909 295.255 472.525 288.788C472.048 287.493 471.252 286.221 469.998 285.654C469.479 285.444 468.936 285.301 468.381 285.226C466.832 284.946 463.75 283.75 462.253 284.23C461.7 284.408 461.482 284.928 461.024 285.242C460.328 285.686 459.405 285.85 458.828 286.435Z" fill="#70C368"/>
<path d="M543.686 308.624C541.843 307.835 538.357 308.318 536.339 308.26C533.566 308.195 530.637 308.489 528.361 310.078C525.595 312.013 524.323 315.564 524.344 318.941C524.366 322.319 525.5 325.575 526.714 328.728C527.39 330.506 528.103 332.269 528.339 334.141C528.339 334.141 504.163 337.008 502.703 338.184C501.244 339.36 500.592 341.712 501.711 343.166C502.83 344.62 537.755 346.08 542.353 345.107C542.738 345.117 543.111 344.974 543.391 344.708C543.67 344.443 543.833 344.078 543.844 343.693C544.308 340.981 544.683 338.266 544.933 335.528C545.066 334.117 545.162 332.707 545.261 331.293L546.305 316.289C546.422 315.233 546.407 314.167 546.262 313.115C545.989 311.687 545.144 309.266 543.686 308.624Z" fill="#FBBEBE"/>
<path d="M537.976 285.242C537.518 284.928 537.3 284.408 536.748 284.23C535.25 283.75 532.168 284.946 530.619 285.226C530.064 285.301 529.521 285.445 529.002 285.654C527.748 286.221 526.952 287.494 526.476 288.788C524.091 295.255 527.98 302.566 526.421 309.281C526.068 310.793 525.447 312.229 525.014 313.723C531.143 313.938 537.111 311.095 543.221 311.578C544.497 311.676 545.933 312.045 546.533 313.174C546.568 313.148 546.601 313.122 546.635 313.094C546.836 312.924 547.002 312.716 547.123 312.482C547.244 312.248 547.318 311.992 547.34 311.729C547.362 311.467 547.333 311.202 547.253 310.951C547.173 310.7 547.044 310.467 546.875 310.266C546.68 310.089 546.501 309.896 546.34 309.688C546.177 309.375 546.096 309.026 546.104 308.673C545.652 301.442 543.917 294.349 540.979 287.726C540.801 287.245 540.526 286.806 540.172 286.435C539.595 285.85 538.672 285.686 537.976 285.242Z" fill="#70C368"/>
<path d="M494.246 345.824C497.255 345.824 499.694 343.384 499.694 340.374C499.694 337.365 497.255 334.925 494.246 334.925C491.237 334.925 488.797 337.365 488.797 340.374C488.797 343.384 491.237 345.824 494.246 345.824Z" fill="#FBBEBE"/>
<path d="M506.311 345.824C509.32 345.824 511.759 343.384 511.759 340.374C511.759 337.365 509.32 334.925 506.311 334.925C503.302 334.925 500.862 337.365 500.862 340.374C500.862 343.384 503.302 345.824 506.311 345.824Z" fill="#FBBEBE"/>
<path d="M539.943 352.654H465.088C464.215 352.653 463.377 352.305 462.759 351.687C462.141 351.069 461.793 350.231 461.792 349.357V303.938C461.793 303.064 462.141 302.226 462.759 301.608C463.377 300.99 464.215 300.642 465.088 300.641H539.943C540.817 300.642 541.655 300.99 542.273 301.608C542.891 302.226 543.239 303.064 543.24 303.938V349.357C543.239 350.231 542.891 351.069 542.273 351.687C541.655 352.305 540.817 352.653 539.943 352.654Z" fill="#3F3D56"/>
<path d="M502.334 328.829C503.539 328.829 504.515 327.852 504.515 326.647C504.515 325.443 503.539 324.466 502.334 324.466C501.13 324.466 500.153 325.443 500.153 326.647C500.153 327.852 501.13 328.829 502.334 328.829Z" fill="white"/>
<path d="M625 343.493H374V351.207H388.846V353H610.159V351.207H625V343.493Z" fill="#F1F1F1"/>
<path d="M481.661 250.871C478.418 250.871 475.788 248.028 475.788 244.52V241.344C475.788 237.837 478.418 234.993 481.661 234.993L481.661 250.871Z" fill="#70C368"/>
<path d="M519.148 234.993C522.392 234.993 525.022 237.837 525.022 241.344V244.52C525.022 248.028 522.392 250.871 519.148 250.871V234.993Z" fill="#70C368"/>
<path d="M522.226 241.843H521.294C521.294 229.063 511.679 218.666 499.861 218.666C488.043 218.666 478.428 229.063 478.428 241.843H477.497C477.497 228.508 487.529 217.658 499.861 217.658C512.193 217.658 522.226 228.508 522.226 241.843Z" fill="#70C368"/>
</g>
<g clip-path="url(#clip3_53_64)">
<path d="M168.954 98.361L168.621 102.26C168.582 102.715 168.363 103.136 168.013 103.43C167.663 103.725 167.21 103.869 166.754 103.831L134.181 101.066C133.725 101.027 133.303 100.809 133.008 100.46C132.712 100.11 132.568 99.6585 132.606 99.2033L132.939 95.3045C132.978 94.8493 133.197 94.4283 133.547 94.1338C133.897 93.8393 134.35 93.6954 134.806 93.7336L167.379 96.4979C167.835 96.5372 168.257 96.7554 168.552 97.1046C168.848 97.4539 168.992 97.9057 168.954 98.361Z" fill="#70C368"/>
<path d="M175.446 117.378L171.838 118.913C170.962 119.286 170.06 119.148 169.828 118.605L161.86 99.9742C161.628 99.4314 162.152 98.6864 163.028 98.3136L166.636 96.7781C167.512 96.4052 168.413 96.5435 168.645 97.0863L176.614 115.717C176.846 116.26 176.322 117.005 175.446 117.378Z" fill="#70C368"/>
<path d="M156.347 111.342H95.2552C95.9588 106.262 95.0909 101.088 92.7676 96.5133C90.4444 91.9384 86.7764 88.18 82.2542 85.7407C77.732 83.3015 72.5711 82.2976 67.4615 82.8633C62.352 83.429 57.5373 85.5373 53.6613 88.9064C49.7853 92.2755 47.0327 96.7447 45.7715 101.716C44.5103 106.688 44.8007 111.926 46.6038 116.728C48.4069 121.531 51.6368 125.67 55.8616 128.592C60.0864 131.514 65.1048 133.08 70.2457 133.08C73.3342 133.083 76.397 132.52 79.281 131.418V155.879C79.281 156.442 79.505 156.981 79.9037 157.379C80.3024 157.777 80.8432 158 81.407 158H156.347C156.911 158 157.452 157.777 157.85 157.379C158.249 156.981 158.473 156.442 158.473 155.879V113.463C158.473 112.9 158.249 112.361 157.85 111.963C157.452 111.565 156.911 111.342 156.347 111.342Z" fill="#E6E6E6"/>
<path d="M160.865 152.433H85.9247C85.2906 152.432 84.6826 152.181 84.2343 151.733C83.7859 151.286 83.5337 150.68 83.533 150.047V107.631C83.5337 106.998 83.7859 106.392 84.2343 105.944C84.6826 105.497 85.2906 105.245 85.9247 105.245H160.865C161.499 105.245 162.107 105.497 162.555 105.944C163.003 106.392 163.256 106.998 163.256 107.631V150.047C163.256 150.68 163.003 151.286 162.555 151.733C162.107 152.181 161.499 152.432 160.865 152.433ZM85.9247 105.775C85.4315 105.775 84.9587 105.971 84.6099 106.319C84.2612 106.667 84.065 107.139 84.0644 107.631V150.047C84.065 150.539 84.2612 151.011 84.6099 151.359C84.9587 151.706 85.4315 151.902 85.9247 151.903H160.865C161.358 151.902 161.831 151.706 162.179 151.359C162.528 151.011 162.724 150.539 162.725 150.047V107.631C162.724 107.139 162.528 106.667 162.179 106.319C161.831 105.971 161.358 105.775 160.865 105.775H85.9247Z" fill="#3F3D56"/>
<path d="M160.982 101.277L160.649 105.176C160.61 105.631 160.391 106.052 160.041 106.347C159.691 106.641 159.238 106.785 158.781 106.747L126.209 103.982C125.753 103.943 125.331 103.725 125.035 103.376C124.74 103.026 124.596 102.575 124.634 102.119L124.967 98.2206C125.006 97.7655 125.225 97.3445 125.575 97.05C125.925 96.7555 126.378 96.6115 126.834 96.6497L159.407 99.4141C159.863 99.4533 160.285 99.6715 160.58 100.021C160.876 100.37 161.02 100.822 160.982 101.277Z" fill="#70C368"/>
<path d="M167.473 120.294L163.866 121.83C162.99 122.202 162.088 122.064 161.856 121.521L153.888 102.89C153.656 102.348 154.18 101.603 155.056 101.23L158.663 99.6942C159.539 99.3214 160.441 99.4596 160.673 100.002L168.641 118.633C168.873 119.176 168.349 119.921 167.473 120.294Z" fill="#70C368"/>
<path d="M226.826 0.286115L220.074 5.44348L225.244 12.179L231.996 7.02167L226.826 0.286115Z" fill="#70C368"/>
<path d="M188.646 53.591C191.875 53.591 194.492 50.9798 194.492 47.7588C194.492 44.5377 191.875 41.9265 188.646 41.9265C185.417 41.9265 182.799 44.5377 182.799 47.7588C182.799 50.9798 185.417 53.591 188.646 53.591Z" fill="#FF6584"/>
<path d="M187.146 51.9097C186.411 50.9522 185.977 49.7988 185.899 48.5954C185.822 47.3919 186.103 46.1925 186.709 45.1487C187.314 44.105 188.216 43.2638 189.301 42.7315C190.386 42.1992 191.605 41.9998 192.803 42.1585C194.001 42.3171 195.126 42.8267 196.034 43.6227C196.942 44.4188 197.593 45.4656 197.904 46.6308C198.216 47.796 198.174 49.0272 197.785 50.1687C197.395 51.3102 196.675 52.3109 195.715 53.044C194.427 54.0253 192.802 54.457 191.195 54.2444C189.589 54.0317 188.133 53.1921 187.146 51.9097ZM196.43 44.8183C195.759 43.9441 194.843 43.288 193.798 42.933C192.753 42.578 191.626 42.54 190.56 42.8239C189.494 43.1078 188.535 43.7008 187.807 44.5278C187.078 45.3549 186.612 46.379 186.467 47.4705C186.322 48.562 186.504 49.672 186.991 50.66C187.478 51.648 188.248 52.4697 189.204 53.0213C190.159 53.5728 191.257 53.8293 192.358 53.7584C193.46 53.6876 194.515 53.2924 195.392 52.623C196.565 51.7244 197.334 50.398 197.528 48.9348C197.723 47.4717 197.328 45.9912 196.43 44.8183Z" fill="#3F3D56"/>
<path d="M227.268 12.6362L221.775 5.4797L228.949 0L234.442 7.15652L227.268 12.6362ZM222.52 5.57834L227.367 11.8929L233.697 7.05789L228.85 0.743319L222.52 5.57834Z" fill="#3F3D56"/>
<path d="M241.384 47.597L234.632 52.7544L239.802 59.4899L246.554 54.3326L241.384 47.597Z" fill="#70C368"/>
<path d="M241.826 59.9471L236.333 52.7906L243.507 47.3109L249 54.4674L241.826 59.9471ZM237.078 52.8893L241.925 59.2038L248.255 54.3688L243.408 48.0542L237.078 52.8893Z" fill="#3F3D56"/>
<path d="M211.09 151.903H45.2656V152.433H211.09V151.903Z" fill="#3F3D56"/>
<path d="M73.7005 126.453C68.6548 126.453 63.7224 124.96 59.527 122.164C55.3317 119.367 52.0618 115.393 50.1309 110.742C48.2 106.092 47.6948 100.975 48.6792 96.0379C49.6635 91.1012 52.0933 86.5664 55.6611 83.0072C59.229 79.448 63.7747 77.0241 68.7234 76.0421C73.6722 75.0601 78.8017 75.5641 83.4633 77.4904C88.1249 79.4166 92.1092 82.6786 94.9125 86.8638C97.7157 91.049 99.2119 95.9695 99.2119 101.003C99.2043 107.75 96.514 114.219 91.7313 118.99C86.9487 123.761 80.4642 126.445 73.7005 126.453ZM73.7005 76.0833C68.7599 76.0833 63.9303 77.5448 59.8223 80.283C55.7144 83.0212 52.5126 86.9132 50.622 91.4666C48.7313 96.0201 48.2366 101.031 49.2005 105.865C50.1643 110.698 52.5434 115.139 56.0369 118.624C59.5305 122.109 63.9815 124.482 68.8271 125.444C73.6727 126.405 78.6954 125.912 83.2599 124.026C87.8244 122.14 91.7257 118.946 94.4705 114.848C97.2154 110.75 98.6804 105.932 98.6804 101.003C98.6729 94.3962 96.0387 88.0621 91.3557 83.3904C86.6727 78.7186 80.3233 76.0908 73.7005 76.0833Z" fill="#3F3D56"/>
<path d="M129.087 63.2338C136.942 63.2338 143.31 56.8816 143.31 49.0457C143.31 41.2099 136.942 34.8577 129.087 34.8577C121.232 34.8577 114.865 41.2099 114.865 49.0457C114.865 56.8816 121.232 63.2338 129.087 63.2338Z" fill="#70C368"/>
<path d="M131.18 54.3042L131.165 53.774C132.154 53.7466 133.026 53.6847 133.681 53.2073C133.866 53.0643 134.019 52.883 134.128 52.6759C134.238 52.4687 134.301 52.2405 134.314 52.0069C134.325 51.8641 134.303 51.7205 134.25 51.5875C134.197 51.4544 134.114 51.3353 134.007 51.2395C133.572 50.8732 132.873 50.9917 132.363 51.225L131.923 51.4262L132.766 45.2783L133.293 45.3503L132.576 50.5799C133.269 50.3766 133.911 50.4641 134.35 50.8346C134.519 50.9817 134.652 51.1657 134.737 51.3722C134.823 51.5788 134.86 51.8024 134.845 52.0255C134.829 52.3395 134.745 52.6463 134.598 52.9244C134.451 53.2025 134.245 53.4452 133.994 53.6355C133.153 54.2491 132.059 54.2796 131.18 54.3042Z" fill="#2F2E41"/>
<path d="M138.76 45.8013H135.897V46.3315H138.76V45.8013Z" fill="#2F2E41"/>
<path d="M129.724 45.8013H126.862V46.3315H129.724V45.8013Z" fill="#2F2E41"/>
<path d="M149.437 105.907H115.954C115.637 105.907 115.333 105.781 115.108 105.558C114.884 105.334 114.758 105.031 114.758 104.714V77.8806C114.761 74.6278 116.058 71.5094 118.364 69.2093C120.67 66.9093 123.796 65.6155 127.056 65.6118H138.01C138.324 65.6122 138.625 65.7353 138.849 65.9546C139.072 66.174 139.201 66.4721 139.206 66.7848L150.633 104.695V104.714C150.633 105.031 150.507 105.334 150.283 105.558C150.058 105.781 149.755 105.907 149.437 105.907Z" fill="#2F2E41"/>
<path d="M127.196 76.4689L131.118 76.4997C131.576 76.5038 132.013 76.6889 132.334 77.0145C132.656 77.3401 132.834 77.7795 132.831 78.2363L132.574 110.847C132.57 111.303 132.385 111.74 132.058 112.06C131.732 112.381 131.292 112.559 130.834 112.556L126.912 112.525C126.454 112.521 126.016 112.336 125.695 112.011C125.373 111.685 125.195 111.246 125.198 110.789L125.455 78.1785C125.459 77.7217 125.644 77.2851 125.971 76.9646C126.297 76.6441 126.738 76.4658 127.196 76.4689Z" fill="#70C368"/>
<path d="M123.262 75.1555C123.262 73.6087 123.878 72.1252 124.974 71.0315C126.07 69.9377 127.558 69.3232 129.108 69.3232C130.659 69.3232 132.146 69.9377 133.242 71.0315C134.339 72.1252 134.954 73.6087 134.954 75.1555V88.1455H123.262V75.1555Z" fill="#2F2E41"/>
<path d="M124.886 42.3632C126.233 40.9806 128.19 40.7428 130.031 40.8933C132.003 41.0544 133.872 41.7079 135.806 42.0714C137.714 42.4299 139.783 42.5905 141.607 41.7964C142.449 41.4192 143.178 40.8306 143.724 40.0882C144.27 39.3458 144.614 38.4748 144.722 37.5603C144.957 35.6398 144.458 33.7016 143.325 32.1314C142.076 30.3708 140.301 29.0812 138.457 27.9987C134.481 25.6653 130.048 23.6235 125.396 23.246C121.196 22.9053 116.742 24.0632 113.788 27.1922C111.018 30.1254 109.839 34.219 109.594 38.1612C109.281 43.1926 110.458 48.1614 110.884 53.1503C111.216 57.0322 111.091 61.6926 107.931 64.4804C105.136 66.9463 100.879 66.9169 97.5836 65.5698C93.6662 63.9687 90.9175 60.3745 88.8385 56.8419C88.3093 55.9426 87.8118 55.0252 87.3293 54.1002C87.0924 53.646 86.4041 54.0477 86.6409 54.5016C88.5865 58.2317 90.8497 61.9574 94.253 64.5421C97.2287 66.8021 101.199 67.8907 104.877 66.9356C106.66 66.4915 108.253 65.4874 109.421 64.0712C110.681 62.5044 111.343 60.5765 111.619 58.6042C111.914 56.4932 111.811 54.3659 111.597 52.2525C111.34 49.7082 110.929 47.1825 110.648 44.641C110.169 40.3127 110.103 35.8205 111.817 31.7309C112.556 29.9071 113.705 28.2765 115.174 26.9645C116.782 25.612 118.712 24.6942 120.777 24.2991C125.284 23.3661 129.866 24.6293 133.945 26.5328C136.005 27.4504 137.975 28.5536 139.833 29.8287C141.48 31.0046 143.014 32.5447 143.649 34.5086C144.195 36.201 144.15 38.2045 143.06 39.6802C141.895 41.2573 139.876 41.6512 138.025 41.5562C134.223 41.3612 130.392 39.157 126.566 40.415C125.717 40.6889 124.947 41.1645 124.322 41.8009C123.964 42.1681 124.528 42.7311 124.886 42.3632Z" fill="#2F2E41"/>
</g>
<path d="M325.055 262.972L299.092 283.97L303.164 289.004L334.16 263.935L309.091 232.938L304.057 237.009L325.055 262.972Z" fill="#70C368"/>
<path d="M289.773 230.896L284.739 234.967L305.738 260.93L279.775 281.928L283.846 286.962L314.843 261.892L289.773 230.896Z" fill="#70C368"/>
<path d="M289.999 265.5L189.499 263C170.499 262.667 134.999 257.5 123.499 243.5C114.025 231.966 111.167 188.833 111.5 167.5" stroke="#70C368" stroke-width="5"/>
<path d="M290 255.5L189.5 253.5C170.5 253.167 138.8 251.1 130 235.5C121.2 219.9 120.167 188.833 120.5 167.5" stroke="#70C368" stroke-width="5"/>
<path d="M390 521.006L454.438 519.268C466.62 518.98 486.947 517.13 492.605 502.998C498.264 488.866 498.692 382.835 498.5 363.5" stroke="#70C368" stroke-width="5"/>
<path d="M390 532.631L460.539 530.9C473.874 530.613 495.308 522.631 501.5 508.499C507.693 494.368 508.212 382.835 508 363.5" stroke="#70C368" stroke-width="5"/>
<path d="M353.859 527.149L377.199 503.27L372.569 498.744L344.704 527.254L373.213 555.119L377.738 550.489L353.859 527.149Z" fill="#70C368"/>
<path d="M392.637 554.897L397.162 550.267L373.283 526.927L396.623 503.048L391.993 498.523L364.128 527.032L392.637 554.897Z" fill="#70C368"/>
<path d="M317.597 811.955L217.097 809.552C198.097 809.152 166.397 806.668 157.597 787.923C148.797 769.178 148.764 647.134 149.097 621.5" stroke="#70C368" stroke-width="5"/>
<path d="M318 825.173L210.703 822.619C190.418 822.194 156.574 819.555 147.179 799.634C137.784 779.714 137.644 648.741 138 621.5" stroke="#70C368" stroke-width="5"/>
<path d="M348.877 825.496L322.425 849.983L326.377 856.145L357.957 826.911L333.627 788.963L328.499 793.711L348.877 825.496Z" fill="#70C368"/>
<path d="M314.363 785.961L309.235 790.709L329.613 822.494L303.162 846.981L307.113 853.143L338.693 823.909L314.363 785.961Z" fill="#70C368"/>
<defs>
<clipPath id="clip0_53_64">
<rect width="176" height="154" fill="white" transform="translate(393 754)"/>
</clipPath>
<clipPath id="clip1_53_64">
<rect width="294" height="152" fill="white" transform="translate(0 450)"/>
</clipPath>
<clipPath id="clip2_53_64">
<rect width="251" height="138" fill="white" transform="translate(374 215)"/>
</clipPath>
<clipPath id="clip3_53_64">
<rect width="204" height="158" fill="white" transform="translate(45)"/>
</clipPath>
</defs>
</svg>
