<svg width="664" height="36" viewBox="0 0 664 36" fill="none" xmlns="http://www.w3.org/2000/svg">
<path d="M15.221 30.06L9.22097 11.31H12.581L16.511 24.45L20.171 11.31H23.441L17.501 30.06H15.221ZM31.211 30.3C29.971 30.3 28.841 30 27.821 29.4C26.821 28.78 26.031 27.92 25.451 26.82C24.871 25.72 24.581 24.45 24.581 23.01C24.581 21.63 24.871 20.39 25.451 19.29C26.031 18.19 26.821 17.32 27.821 16.68C28.841 16.04 29.971 15.72 31.211 15.72C32.471 15.72 33.601 16.04 34.601 16.68C35.621 17.32 36.421 18.19 37.001 19.29C37.601 20.39 37.901 21.63 37.901 23.01C37.901 24.45 37.601 25.72 37.001 26.82C36.421 27.92 35.621 28.78 34.601 29.4C33.601 30 32.471 30.3 31.211 30.3ZM31.211 27.6C31.871 27.6 32.441 27.41 32.921 27.03C33.401 26.63 33.781 26.09 34.061 25.41C34.361 24.71 34.511 23.91 34.511 23.01C34.511 22.07 34.361 21.26 34.061 20.58C33.781 19.9 33.401 19.38 32.921 19.02C32.441 18.64 31.871 18.45 31.211 18.45C30.611 18.45 30.061 18.64 29.561 19.02C29.081 19.38 28.691 19.9 28.391 20.58C28.111 21.26 27.971 22.07 27.971 23.01C27.971 23.91 28.111 24.71 28.391 25.41C28.671 26.09 29.051 26.63 29.531 27.03C30.031 27.41 30.591 27.6 31.211 27.6ZM47.081 30.36C46.061 30.36 45.111 30.18 44.231 29.82C43.371 29.46 42.611 28.96 41.951 28.32C41.311 27.68 40.811 26.92 40.451 26.04C40.091 25.16 39.911 24.19 39.911 23.13C39.911 22.11 40.091 21.15 40.451 20.25C40.811 19.35 41.311 18.57 41.951 17.91C42.611 17.23 43.371 16.7 44.231 16.32C45.111 15.92 46.071 15.72 47.111 15.72C48.391 15.72 49.511 15.96 50.471 16.44C51.431 16.92 52.191 17.58 52.751 18.42L50.861 20.49L50.681 20.7L50.441 20.52C50.441 20.36 50.421 20.2 50.381 20.04C50.341 19.86 50.211 19.65 49.991 19.41C49.611 19.03 49.191 18.78 48.731 18.66C48.271 18.52 47.741 18.45 47.141 18.45C46.641 18.45 46.161 18.56 45.701 18.78C45.261 18.98 44.861 19.28 44.501 19.68C44.141 20.06 43.861 20.54 43.661 21.12C43.461 21.7 43.361 22.37 43.361 23.13C43.361 23.81 43.461 24.43 43.661 24.99C43.881 25.53 44.161 26 44.501 26.4C44.861 26.78 45.271 27.08 45.731 27.3C46.211 27.5 46.711 27.6 47.231 27.6C47.651 27.6 48.061 27.54 48.461 27.42C48.861 27.3 49.251 27.12 49.631 26.88C50.031 26.62 50.401 26.28 50.741 25.86L52.631 28.02C51.891 28.84 51.031 29.44 50.051 29.82C49.071 30.18 48.081 30.36 47.081 30.36ZM59.681 30.36C58.141 30.36 56.941 30 56.081 29.28C55.241 28.54 54.821 27.59 54.821 26.43C54.821 25.69 54.981 25.01 55.301 24.39C55.641 23.75 56.141 23.2 56.801 22.74C57.461 22.28 58.281 21.93 59.261 21.69C60.241 21.43 61.361 21.3 62.621 21.3C62.781 21.3 62.981 21.3 63.221 21.3C63.461 21.3 63.721 21.31 64.001 21.33C64.281 21.33 64.541 21.35 64.781 21.39L64.871 23.73C64.671 23.71 64.431 23.7 64.151 23.7C63.871 23.68 63.581 23.67 63.281 23.67C63.001 23.65 62.761 23.64 62.561 23.64C61.761 23.64 61.081 23.7 60.521 23.82C59.981 23.94 59.541 24.11 59.201 24.33C58.861 24.53 58.611 24.78 58.451 25.08C58.291 25.36 58.211 25.67 58.211 26.01C58.211 26.33 58.261 26.6 58.361 26.82C58.481 27.04 58.631 27.22 58.811 27.36C59.011 27.48 59.241 27.57 59.501 27.63C59.761 27.69 60.041 27.72 60.341 27.72C60.941 27.72 61.461 27.63 61.901 27.45C62.361 27.25 62.741 26.94 63.041 26.52C63.361 26.1 63.591 25.58 63.731 24.96C63.891 24.32 63.971 23.57 63.971 22.71C63.971 21.55 63.851 20.66 63.611 20.04C63.371 19.42 63.021 18.99 62.561 18.75C62.101 18.49 61.521 18.36 60.821 18.36C60.181 18.36 59.571 18.47 58.991 18.69C58.431 18.89 57.881 19.27 57.341 19.83L55.481 17.79C56.261 17.05 57.131 16.52 58.091 16.2C59.051 15.88 60.011 15.72 60.971 15.72C61.851 15.72 62.671 15.82 63.431 16.02C64.191 16.22 64.851 16.56 65.411 17.04C65.991 17.5 66.441 18.14 66.761 18.96C67.101 19.76 67.271 20.76 67.271 21.96V30H63.761V28.5C63.501 28.84 63.221 29.13 62.921 29.37C62.621 29.61 62.301 29.8 61.961 29.94C61.621 30.08 61.261 30.18 60.881 30.24C60.501 30.32 60.101 30.36 59.681 30.36ZM77.711 30.3C76.911 30.3 76.211 30.17 75.611 29.91C75.031 29.65 74.541 29.23 74.141 28.65C73.761 28.07 73.481 27.3 73.301 26.34C73.141 25.38 73.091 24.19 73.151 22.77L73.541 12.75L77.051 12.3L77.321 12.27L77.351 12.54C77.271 12.68 77.191 12.82 77.111 12.96C77.031 13.1 76.981 13.34 76.961 13.68L76.631 17.82L76.781 18.03L76.541 22.71C76.481 24.01 76.521 25.02 76.661 25.74C76.821 26.44 77.051 26.92 77.351 27.18C77.671 27.44 78.051 27.57 78.491 27.57C79.131 27.57 79.701 27.44 80.201 27.18C80.721 26.92 81.201 26.62 81.641 26.28L82.361 28.74C81.681 29.24 80.951 29.63 80.171 29.91C79.411 30.17 78.591 30.3 77.711 30.3ZM70.511 16.05H81.251L81.221 18.72H70.451L70.511 16.05ZM86.261 30V27.33H89.681V18.72H86.441V16.05H93.101V27.33H96.221V30H86.261ZM91.241 13.74C90.661 13.74 90.161 13.54 89.741 13.14C89.321 12.74 89.111 12.26 89.111 11.7C89.111 11.1 89.311 10.61 89.711 10.23C90.111 9.85 90.621 9.66 91.241 9.66C91.801 9.66 92.291 9.86 92.711 10.26C93.151 10.66 93.371 11.14 93.371 11.7C93.371 12.26 93.151 12.74 92.711 13.14C92.291 13.54 91.801 13.74 91.241 13.74ZM106.211 30.3C104.971 30.3 103.841 30 102.821 29.4C101.821 28.78 101.031 27.92 100.451 26.82C99.871 25.72 99.581 24.45 99.581 23.01C99.581 21.63 99.871 20.39 100.451 19.29C101.031 18.19 101.821 17.32 102.821 16.68C103.841 16.04 104.971 15.72 106.211 15.72C107.471 15.72 108.601 16.04 109.601 16.68C110.621 17.32 111.421 18.19 112.001 19.29C112.601 20.39 112.901 21.63 112.901 23.01C112.901 24.45 112.601 25.72 112.001 26.82C111.421 27.92 110.621 28.78 109.601 29.4C108.601 30 107.471 30.3 106.211 30.3ZM106.211 27.6C106.871 27.6 107.441 27.41 107.921 27.03C108.401 26.63 108.781 26.09 109.061 25.41C109.361 24.71 109.511 23.91 109.511 23.01C109.511 22.07 109.361 21.26 109.061 20.58C108.781 19.9 108.401 19.38 107.921 19.02C107.441 18.64 106.871 18.45 106.211 18.45C105.611 18.45 105.061 18.64 104.561 19.02C104.081 19.38 103.691 19.9 103.391 20.58C103.111 21.26 102.971 22.07 102.971 23.01C102.971 23.91 103.111 24.71 103.391 25.41C103.671 26.09 104.051 26.63 104.531 27.03C105.031 27.41 105.591 27.6 106.211 27.6ZM115.391 30V16.05H118.781V17.97C119.121 17.53 119.491 17.14 119.891 16.8C120.291 16.46 120.731 16.2 121.211 16.02C121.711 15.82 122.241 15.72 122.801 15.72C123.621 15.72 124.371 15.92 125.051 16.32C125.731 16.7 126.281 17.32 126.701 18.18C127.121 19.04 127.331 20.17 127.331 21.57V30H123.941V21.63C123.941 20.85 123.861 20.22 123.701 19.74C123.541 19.26 123.301 18.91 122.981 18.69C122.681 18.45 122.321 18.33 121.901 18.33C121.521 18.33 121.141 18.41 120.761 18.57C120.401 18.71 120.071 18.93 119.771 19.23C119.471 19.53 119.231 19.89 119.051 20.31C118.871 20.71 118.781 21.17 118.781 21.69V30H115.391ZM134.681 30.36C133.141 30.36 131.941 30 131.081 29.28C130.241 28.54 129.821 27.59 129.821 26.43C129.821 25.69 129.981 25.01 130.301 24.39C130.641 23.75 131.141 23.2 131.801 22.74C132.461 22.28 133.281 21.93 134.261 21.69C135.241 21.43 136.361 21.3 137.621 21.3C137.781 21.3 137.981 21.3 138.221 21.3C138.461 21.3 138.721 21.31 139.001 21.33C139.281 21.33 139.541 21.35 139.781 21.39L139.871 23.73C139.671 23.71 139.431 23.7 139.151 23.7C138.871 23.68 138.581 23.67 138.281 23.67C138.001 23.65 137.761 23.64 137.561 23.64C136.761 23.64 136.081 23.7 135.521 23.82C134.981 23.94 134.541 24.11 134.201 24.33C133.861 24.53 133.611 24.78 133.451 25.08C133.291 25.36 133.211 25.67 133.211 26.01C133.211 26.33 133.261 26.6 133.361 26.82C133.481 27.04 133.631 27.22 133.811 27.36C134.011 27.48 134.241 27.57 134.501 27.63C134.761 27.69 135.041 27.72 135.341 27.72C135.941 27.72 136.461 27.63 136.901 27.45C137.361 27.25 137.741 26.94 138.041 26.52C138.361 26.1 138.591 25.58 138.731 24.96C138.891 24.32 138.971 23.57 138.971 22.71C138.971 21.55 138.851 20.66 138.611 20.04C138.371 19.42 138.021 18.99 137.561 18.75C137.101 18.49 136.521 18.36 135.821 18.36C135.181 18.36 134.571 18.47 133.991 18.69C133.431 18.89 132.881 19.27 132.341 19.83L130.481 17.79C131.261 17.05 132.131 16.52 133.091 16.2C134.051 15.88 135.011 15.72 135.971 15.72C136.851 15.72 137.671 15.82 138.431 16.02C139.191 16.22 139.851 16.56 140.411 17.04C140.991 17.5 141.441 18.14 141.761 18.96C142.101 19.76 142.271 20.76 142.271 21.96V30H138.761V28.5C138.501 28.84 138.221 29.13 137.921 29.37C137.621 29.61 137.301 29.8 136.961 29.94C136.621 30.08 136.261 30.18 135.881 30.24C135.501 30.32 135.101 30.36 134.681 30.36ZM145.631 30V27.33H149.561V12.54H145.811V9.87H152.981V27.33H156.881V30H145.631ZM179.471 30V14.16H174.431V11.31H188.021V14.16H182.711V30H179.471ZM191.411 16.05H194.921L194.891 19.95L194.501 19.71C194.581 19.09 194.751 18.54 195.011 18.06C195.291 17.58 195.631 17.16 196.031 16.8C196.451 16.44 196.901 16.17 197.381 15.99C197.881 15.81 198.391 15.72 198.911 15.72C199.691 15.72 200.391 15.85 201.011 16.11C201.651 16.35 202.241 16.75 202.781 17.31L201.341 20.16L201.251 20.4L200.981 20.28C200.921 20.12 200.861 19.96 200.801 19.8C200.741 19.62 200.591 19.42 200.351 19.2C200.071 18.98 199.771 18.81 199.451 18.69C199.151 18.57 198.821 18.51 198.461 18.51C197.981 18.51 197.521 18.59 197.081 18.75C196.641 18.91 196.251 19.16 195.911 19.5C195.591 19.84 195.331 20.28 195.131 20.82C194.951 21.34 194.861 21.96 194.861 22.68V30H191.411V16.05ZM209.681 30.36C208.141 30.36 206.941 30 206.081 29.28C205.241 28.54 204.821 27.59 204.821 26.43C204.821 25.69 204.981 25.01 205.301 24.39C205.641 23.75 206.141 23.2 206.801 22.74C207.461 22.28 208.281 21.93 209.261 21.69C210.241 21.43 211.361 21.3 212.621 21.3C212.781 21.3 212.981 21.3 213.221 21.3C213.461 21.3 213.721 21.31 214.001 21.33C214.281 21.33 214.541 21.35 214.781 21.39L214.871 23.73C214.671 23.71 214.431 23.7 214.151 23.7C213.871 23.68 213.581 23.67 213.281 23.67C213.001 23.65 212.761 23.64 212.561 23.64C211.761 23.64 211.081 23.7 210.521 23.82C209.981 23.94 209.541 24.11 209.201 24.33C208.861 24.53 208.611 24.78 208.451 25.08C208.291 25.36 208.211 25.67 208.211 26.01C208.211 26.33 208.261 26.6 208.361 26.82C208.481 27.04 208.631 27.22 208.811 27.36C209.011 27.48 209.241 27.57 209.501 27.63C209.761 27.69 210.041 27.72 210.341 27.72C210.941 27.72 211.461 27.63 211.901 27.45C212.361 27.25 212.741 26.94 213.041 26.52C213.361 26.1 213.591 25.58 213.731 24.96C213.891 24.32 213.971 23.57 213.971 22.71C213.971 21.55 213.851 20.66 213.611 20.04C213.371 19.42 213.021 18.99 212.561 18.75C212.101 18.49 211.521 18.36 210.821 18.36C210.181 18.36 209.571 18.47 208.991 18.69C208.431 18.89 207.881 19.27 207.341 19.83L205.481 17.79C206.261 17.05 207.131 16.52 208.091 16.2C209.051 15.88 210.011 15.72 210.971 15.72C211.851 15.72 212.671 15.82 213.431 16.02C214.191 16.22 214.851 16.56 215.411 17.04C215.991 17.5 216.441 18.14 216.761 18.96C217.101 19.76 217.271 20.76 217.271 21.96V30H213.761V28.5C213.501 28.84 213.221 29.13 212.921 29.37C212.621 29.61 212.301 29.8 211.961 29.94C211.621 30.08 211.261 30.18 210.881 30.24C210.501 30.32 210.101 30.36 209.681 30.36ZM221.261 30V27.33H224.681V18.72H221.441V16.05H228.101V27.33H231.221V30H221.261ZM226.241 13.74C225.661 13.74 225.161 13.54 224.741 13.14C224.321 12.74 224.111 12.26 224.111 11.7C224.111 11.1 224.311 10.61 224.711 10.23C225.111 9.85 225.621 9.66 226.241 9.66C226.801 9.66 227.291 9.86 227.711 10.26C228.151 10.66 228.371 11.14 228.371 11.7C228.371 12.26 228.151 12.74 227.711 13.14C227.291 13.54 226.801 13.74 226.241 13.74ZM235.391 30V16.05H238.781V17.97C239.121 17.53 239.491 17.14 239.891 16.8C240.291 16.46 240.731 16.2 241.211 16.02C241.711 15.82 242.241 15.72 242.801 15.72C243.621 15.72 244.371 15.92 245.051 16.32C245.731 16.7 246.281 17.32 246.701 18.18C247.121 19.04 247.331 20.17 247.331 21.57V30H243.941V21.63C243.941 20.85 243.861 20.22 243.701 19.74C243.541 19.26 243.301 18.91 242.981 18.69C242.681 18.45 242.321 18.33 241.901 18.33C241.521 18.33 241.141 18.41 240.761 18.57C240.401 18.71 240.071 18.93 239.771 19.23C239.471 19.53 239.231 19.89 239.051 20.31C238.871 20.71 238.781 21.17 238.781 21.69V30H235.391ZM251.261 30V27.33H254.681V18.72H251.441V16.05H258.101V27.33H261.221V30H251.261ZM256.241 13.74C255.661 13.74 255.161 13.54 254.741 13.14C254.321 12.74 254.111 12.26 254.111 11.7C254.111 11.1 254.311 10.61 254.711 10.23C255.111 9.85 255.621 9.66 256.241 9.66C256.801 9.66 257.291 9.86 257.711 10.26C258.151 10.66 258.371 11.14 258.371 11.7C258.371 12.26 258.151 12.74 257.711 13.14C257.291 13.54 256.801 13.74 256.241 13.74ZM265.391 30V16.05H268.781V17.97C269.121 17.53 269.491 17.14 269.891 16.8C270.291 16.46 270.731 16.2 271.211 16.02C271.711 15.82 272.241 15.72 272.801 15.72C273.621 15.72 274.371 15.92 275.051 16.32C275.731 16.7 276.281 17.32 276.701 18.18C277.121 19.04 277.331 20.17 277.331 21.57V30H273.941V21.63C273.941 20.85 273.861 20.22 273.701 19.74C273.541 19.26 273.301 18.91 272.981 18.69C272.681 18.45 272.321 18.33 271.901 18.33C271.521 18.33 271.141 18.41 270.761 18.57C270.401 18.71 270.071 18.93 269.771 19.23C269.471 19.53 269.231 19.89 269.051 20.31C268.871 20.71 268.781 21.17 268.781 21.69V30H265.391ZM285.911 35.37C284.911 35.37 284.021 35.28 283.241 35.1C282.461 34.92 281.801 34.67 281.261 34.35C280.721 34.03 280.301 33.64 280.001 33.18C279.721 32.74 279.581 32.24 279.581 31.68C279.581 31.2 279.701 30.75 279.941 30.33C280.181 29.91 280.501 29.55 280.901 29.25C281.321 28.93 281.771 28.68 282.251 28.5L283.781 29.13C283.521 29.33 283.261 29.53 283.001 29.73C282.761 29.91 282.561 30.11 282.401 30.33C282.261 30.57 282.191 30.85 282.191 31.17C282.191 31.43 282.291 31.66 282.491 31.86C282.691 32.06 282.971 32.22 283.331 32.34C283.691 32.48 284.111 32.58 284.591 32.64C285.071 32.7 285.601 32.73 286.181 32.73C286.941 32.73 287.581 32.66 288.101 32.52C288.621 32.38 289.021 32.18 289.301 31.92C289.581 31.68 289.721 31.4 289.721 31.08C289.721 30.78 289.641 30.53 289.481 30.33C289.321 30.15 289.031 30.02 288.611 29.94C288.191 29.86 287.601 29.82 286.841 29.82C286.201 29.82 285.571 29.79 284.951 29.73C284.331 29.67 283.741 29.57 283.181 29.43C282.641 29.29 282.161 29.11 281.741 28.89C281.321 28.65 280.991 28.36 280.751 28.02C280.531 27.68 280.421 27.27 280.421 26.79C280.421 26.13 280.611 25.56 280.991 25.08C281.391 24.6 281.871 24.16 282.431 23.76L283.991 24.66C283.791 24.84 283.611 24.99 283.451 25.11C283.311 25.23 283.201 25.35 283.121 25.47C283.041 25.57 283.001 25.72 283.001 25.92C283.001 26.16 283.151 26.36 283.451 26.52C283.771 26.68 284.281 26.8 284.981 26.88C285.701 26.96 286.631 27 287.771 27C288.671 27 289.421 27.1 290.021 27.3C290.621 27.48 291.101 27.75 291.461 28.11C291.821 28.45 292.081 28.85 292.241 29.31C292.421 29.75 292.511 30.22 292.511 30.72C292.511 31.32 292.381 31.89 292.121 32.43C291.861 32.99 291.461 33.49 290.921 33.93C290.381 34.37 289.691 34.72 288.851 34.98C288.031 35.24 287.051 35.37 285.911 35.37ZM285.641 25.29C284.661 25.29 283.771 25.08 282.971 24.66C282.191 24.24 281.571 23.67 281.111 22.95C280.671 22.21 280.451 21.39 280.451 20.49C280.451 19.59 280.671 18.78 281.111 18.06C281.571 17.32 282.191 16.73 282.971 16.29C283.771 15.85 284.661 15.63 285.641 15.63C286.641 15.63 287.521 15.85 288.281 16.29C289.061 16.73 289.671 17.32 290.111 18.06C290.571 18.78 290.801 19.59 290.801 20.49C290.801 21.39 290.571 22.21 290.111 22.95C289.671 23.67 289.061 24.24 288.281 24.66C287.521 25.08 286.641 25.29 285.641 25.29ZM285.611 22.83C286.051 22.83 286.441 22.73 286.781 22.53C287.141 22.33 287.421 22.05 287.621 21.69C287.841 21.33 287.951 20.93 287.951 20.49C287.951 20.05 287.841 19.66 287.621 19.32C287.421 18.98 287.141 18.71 286.781 18.51C286.441 18.31 286.051 18.21 285.611 18.21C285.211 18.21 284.831 18.32 284.471 18.54C284.131 18.74 283.851 19.01 283.631 19.35C283.411 19.69 283.301 20.07 283.301 20.49C283.301 20.91 283.401 21.3 283.601 21.66C283.821 22.02 284.101 22.31 284.441 22.53C284.801 22.73 285.191 22.83 285.611 22.83ZM289.961 18.6L288.671 17.01C289.231 16.55 289.871 16.2 290.591 15.96C291.311 15.72 292.091 15.63 292.931 15.69L293.261 18.03C292.661 17.91 292.071 17.9 291.491 18C290.911 18.1 290.401 18.3 289.961 18.6Z" fill="white"/>
<rect width="21.8527" height="3" fill="#D9D9D9"/>
<rect y="20" width="20" height="3.2779" transform="rotate(-90 0 20)" fill="#D9D9D9"/>
</svg>
