<svg width="664" height="36" viewBox="0 0 664 36" fill="none" xmlns="http://www.w3.org/2000/svg">
<path d="M10.271 30V11.31H22.451V14.07H13.571V18.87H20.861V21.66H13.571V27.24H22.361V30H10.271ZM29.681 30.36C28.141 30.36 26.941 30 26.081 29.28C25.241 28.54 24.821 27.59 24.821 26.43C24.821 25.69 24.981 25.01 25.301 24.39C25.641 23.75 26.141 23.2 26.801 22.74C27.461 22.28 28.281 21.93 29.261 21.69C30.241 21.43 31.361 21.3 32.621 21.3C32.781 21.3 32.981 21.3 33.221 21.3C33.461 21.3 33.721 21.31 34.001 21.33C34.281 21.33 34.541 21.35 34.781 21.39L34.871 23.73C34.671 23.71 34.431 23.7 34.151 23.7C33.871 23.68 33.581 23.67 33.281 23.67C33.001 23.65 32.761 23.64 32.561 23.64C31.761 23.64 31.081 23.7 30.521 23.82C29.981 23.94 29.541 24.11 29.201 24.33C28.861 24.53 28.611 24.78 28.451 25.08C28.291 25.36 28.211 25.67 28.211 26.01C28.211 26.33 28.261 26.6 28.361 26.82C28.481 27.04 28.631 27.22 28.811 27.36C29.011 27.48 29.241 27.57 29.501 27.63C29.761 27.69 30.041 27.72 30.341 27.72C30.941 27.72 31.461 27.63 31.901 27.45C32.361 27.25 32.741 26.94 33.041 26.52C33.361 26.1 33.591 25.58 33.731 24.96C33.891 24.32 33.971 23.57 33.971 22.71C33.971 21.55 33.851 20.66 33.611 20.04C33.371 19.42 33.021 18.99 32.561 18.75C32.101 18.49 31.521 18.36 30.821 18.36C30.181 18.36 29.571 18.47 28.991 18.69C28.431 18.89 27.881 19.27 27.341 19.83L25.481 17.79C26.261 17.05 27.131 16.52 28.091 16.2C29.051 15.88 30.011 15.72 30.971 15.72C31.851 15.72 32.671 15.82 33.431 16.02C34.191 16.22 34.851 16.56 35.411 17.04C35.991 17.5 36.441 18.14 36.761 18.96C37.101 19.76 37.271 20.76 37.271 21.96V30H33.761V28.5C33.501 28.84 33.221 29.13 32.921 29.37C32.621 29.61 32.301 29.8 31.961 29.94C31.621 30.08 31.261 30.18 30.881 30.24C30.501 30.32 30.101 30.36 29.681 30.36ZM41.411 16.05H44.921L44.891 19.95L44.501 19.71C44.581 19.09 44.751 18.54 45.011 18.06C45.291 17.58 45.631 17.16 46.031 16.8C46.451 16.44 46.901 16.17 47.381 15.99C47.881 15.81 48.391 15.72 48.911 15.72C49.691 15.72 50.391 15.85 51.011 16.11C51.651 16.35 52.241 16.75 52.781 17.31L51.341 20.16L51.251 20.4L50.981 20.28C50.921 20.12 50.861 19.96 50.801 19.8C50.741 19.62 50.591 19.42 50.351 19.2C50.071 18.98 49.771 18.81 49.451 18.69C49.151 18.57 48.821 18.51 48.461 18.51C47.981 18.51 47.521 18.59 47.081 18.75C46.641 18.91 46.251 19.16 45.911 19.5C45.591 19.84 45.331 20.28 45.131 20.82C44.951 21.34 44.861 21.96 44.861 22.68V30H41.411V16.05ZM55.631 30V27.33H59.561V12.54H55.811V9.87H62.981V27.33H66.881V30H55.631ZM72.521 35.28C71.861 35.28 71.261 35.16 70.721 34.92C70.201 34.7 69.691 34.39 69.191 33.99L70.361 31.65L70.481 31.38L70.751 31.5C70.811 31.66 70.881 31.81 70.961 31.95C71.061 32.09 71.241 32.25 71.501 32.43C71.641 32.51 71.791 32.57 71.951 32.61C72.131 32.65 72.321 32.67 72.521 32.67C72.921 32.67 73.261 32.56 73.541 32.34C73.841 32.12 74.111 31.78 74.351 31.32C74.611 30.86 74.861 30.27 75.101 29.55L78.131 21C78.431 20.14 78.681 19.31 78.881 18.51C79.101 17.71 79.231 16.89 79.271 16.05H82.421C82.341 16.95 82.131 17.9 81.791 18.9C81.451 19.88 81.111 20.83 80.771 21.75L77.321 31.23C76.761 32.71 76.081 33.75 75.281 34.35C74.501 34.97 73.581 35.28 72.521 35.28ZM69.671 16.05H73.061L77.171 26.7L75.401 30.33L69.671 16.05ZM100.841 30V27.27H104.501V14.04H101.051V11.31H111.371V14.04H107.711V27.27H111.521V30H100.841ZM115.391 30V16.05H118.781V17.97C119.121 17.53 119.491 17.14 119.891 16.8C120.291 16.46 120.731 16.2 121.211 16.02C121.711 15.82 122.241 15.72 122.801 15.72C123.621 15.72 124.371 15.92 125.051 16.32C125.731 16.7 126.281 17.32 126.701 18.18C127.121 19.04 127.331 20.17 127.331 21.57V30H123.941V21.63C123.941 20.85 123.861 20.22 123.701 19.74C123.541 19.26 123.301 18.91 122.981 18.69C122.681 18.45 122.321 18.33 121.901 18.33C121.521 18.33 121.141 18.41 120.761 18.57C120.401 18.71 120.071 18.93 119.771 19.23C119.471 19.53 119.231 19.89 119.051 20.31C118.871 20.71 118.781 21.17 118.781 21.69V30H115.391ZM137.711 30.3C136.911 30.3 136.211 30.17 135.611 29.91C135.031 29.65 134.541 29.23 134.141 28.65C133.761 28.07 133.481 27.3 133.301 26.34C133.141 25.38 133.091 24.19 133.151 22.77L133.541 12.75L137.051 12.3L137.321 12.27L137.351 12.54C137.271 12.68 137.191 12.82 137.111 12.96C137.031 13.1 136.981 13.34 136.961 13.68L136.631 17.82L136.781 18.03L136.541 22.71C136.481 24.01 136.521 25.02 136.661 25.74C136.821 26.44 137.051 26.92 137.351 27.18C137.671 27.44 138.051 27.57 138.491 27.57C139.131 27.57 139.701 27.44 140.201 27.18C140.721 26.92 141.201 26.62 141.641 26.28L142.361 28.74C141.681 29.24 140.951 29.63 140.171 29.91C139.411 30.17 138.591 30.3 137.711 30.3ZM130.511 16.05H141.251L141.221 18.72H130.451L130.511 16.05ZM151.871 30.33C150.871 30.33 149.941 30.17 149.081 29.85C148.241 29.53 147.501 29.07 146.861 28.47C146.241 27.85 145.761 27.09 145.421 26.19C145.081 25.29 144.911 24.27 144.911 23.13C144.911 21.97 145.081 20.93 145.421 20.01C145.761 19.09 146.221 18.31 146.801 17.67C147.401 17.03 148.101 16.55 148.901 16.23C149.701 15.89 150.561 15.72 151.481 15.72C152.301 15.72 153.071 15.86 153.791 16.14C154.511 16.42 155.141 16.85 155.681 17.43C156.241 17.99 156.681 18.7 157.001 19.56C157.321 20.4 157.481 21.38 157.481 22.5C157.481 22.7 157.471 22.94 157.451 23.22C157.451 23.5 157.441 23.74 157.421 23.94H148.181C148.221 24.6 148.351 25.17 148.571 25.65C148.791 26.11 149.081 26.49 149.441 26.79C149.801 27.09 150.201 27.32 150.641 27.48C151.081 27.62 151.541 27.69 152.021 27.69C152.441 27.69 152.841 27.65 153.221 27.57C153.621 27.49 153.991 27.35 154.331 27.15C154.691 26.95 155.031 26.69 155.351 26.37L157.091 28.05C156.651 28.57 156.151 29.01 155.591 29.37C155.051 29.71 154.461 29.95 153.821 30.09C153.201 30.25 152.551 30.33 151.871 30.33ZM148.241 21.39H154.181C154.181 20.91 154.111 20.48 153.971 20.1C153.851 19.72 153.671 19.4 153.431 19.14C153.191 18.88 152.891 18.69 152.531 18.57C152.191 18.43 151.791 18.36 151.331 18.36C150.951 18.36 150.581 18.42 150.221 18.54C149.881 18.64 149.571 18.82 149.291 19.08C149.011 19.34 148.781 19.66 148.601 20.04C148.421 20.42 148.301 20.87 148.241 21.39ZM161.411 16.05H164.921L164.891 19.95L164.501 19.71C164.581 19.09 164.751 18.54 165.011 18.06C165.291 17.58 165.631 17.16 166.031 16.8C166.451 16.44 166.901 16.17 167.381 15.99C167.881 15.81 168.391 15.72 168.911 15.72C169.691 15.72 170.391 15.85 171.011 16.11C171.651 16.35 172.241 16.75 172.781 17.31L171.341 20.16L171.251 20.4L170.981 20.28C170.921 20.12 170.861 19.96 170.801 19.8C170.741 19.62 170.591 19.42 170.351 19.2C170.071 18.98 169.771 18.81 169.451 18.69C169.151 18.57 168.821 18.51 168.461 18.51C167.981 18.51 167.521 18.59 167.081 18.75C166.641 18.91 166.251 19.16 165.911 19.5C165.591 19.84 165.331 20.28 165.131 20.82C164.951 21.34 164.861 21.96 164.861 22.68V30H161.411V16.05ZM181.871 30.33C180.871 30.33 179.941 30.17 179.081 29.85C178.241 29.53 177.501 29.07 176.861 28.47C176.241 27.85 175.761 27.09 175.421 26.19C175.081 25.29 174.911 24.27 174.911 23.13C174.911 21.97 175.081 20.93 175.421 20.01C175.761 19.09 176.221 18.31 176.801 17.67C177.401 17.03 178.101 16.55 178.901 16.23C179.701 15.89 180.561 15.72 181.481 15.72C182.301 15.72 183.071 15.86 183.791 16.14C184.511 16.42 185.141 16.85 185.681 17.43C186.241 17.99 186.681 18.7 187.001 19.56C187.321 20.4 187.481 21.38 187.481 22.5C187.481 22.7 187.471 22.94 187.451 23.22C187.451 23.5 187.441 23.74 187.421 23.94H178.181C178.221 24.6 178.351 25.17 178.571 25.65C178.791 26.11 179.081 26.49 179.441 26.79C179.801 27.09 180.201 27.32 180.641 27.48C181.081 27.62 181.541 27.69 182.021 27.69C182.441 27.69 182.841 27.65 183.221 27.57C183.621 27.49 183.991 27.35 184.331 27.15C184.691 26.95 185.031 26.69 185.351 26.37L187.091 28.05C186.651 28.57 186.151 29.01 185.591 29.37C185.051 29.71 184.461 29.95 183.821 30.09C183.201 30.25 182.551 30.33 181.871 30.33ZM178.241 21.39H184.181C184.181 20.91 184.111 20.48 183.971 20.1C183.851 19.72 183.671 19.4 183.431 19.14C183.191 18.88 182.891 18.69 182.531 18.57C182.191 18.43 181.791 18.36 181.331 18.36C180.951 18.36 180.581 18.42 180.221 18.54C179.881 18.64 179.571 18.82 179.291 19.08C179.011 19.34 178.781 19.66 178.601 20.04C178.421 20.42 178.301 20.87 178.241 21.39ZM196.511 30.33C195.671 30.33 194.861 30.25 194.081 30.09C193.301 29.95 192.581 29.72 191.921 29.4C191.261 29.06 190.651 28.63 190.091 28.11L191.591 25.35L191.711 25.11L191.951 25.26C192.011 25.4 192.071 25.56 192.131 25.74C192.191 25.9 192.341 26.09 192.581 26.31C193.081 26.73 193.651 27.06 194.291 27.3C194.931 27.54 195.691 27.66 196.571 27.66C197.131 27.66 197.601 27.6 197.981 27.48C198.381 27.34 198.681 27.16 198.881 26.94C199.101 26.7 199.211 26.43 199.211 26.13C199.211 25.89 199.151 25.68 199.031 25.5C198.911 25.32 198.721 25.16 198.461 25.02C198.201 24.88 197.861 24.74 197.441 24.6C197.021 24.44 196.521 24.27 195.941 24.09C194.921 23.83 194.031 23.51 193.271 23.13C192.531 22.73 191.961 22.25 191.561 21.69C191.161 21.13 190.961 20.48 190.961 19.74C190.961 18.96 191.181 18.27 191.621 17.67C192.081 17.07 192.721 16.6 193.541 16.26C194.361 15.9 195.331 15.72 196.451 15.72C197.031 15.72 197.581 15.77 198.101 15.87C198.621 15.95 199.111 16.08 199.571 16.26C200.051 16.42 200.491 16.64 200.891 16.92C201.311 17.18 201.701 17.49 202.061 17.85L200.411 20.16L200.201 20.4L199.991 20.22C199.971 20.06 199.921 19.91 199.841 19.77C199.781 19.61 199.631 19.42 199.391 19.2C198.991 18.9 198.531 18.68 198.011 18.54C197.511 18.4 197.011 18.33 196.511 18.33C195.831 18.33 195.241 18.44 194.741 18.66C194.261 18.88 194.021 19.22 194.021 19.68C194.021 19.94 194.131 20.18 194.351 20.4C194.571 20.6 194.931 20.8 195.431 21C195.951 21.18 196.631 21.38 197.471 21.6C198.591 21.9 199.501 22.25 200.201 22.65C200.921 23.03 201.441 23.49 201.761 24.03C202.101 24.57 202.271 25.2 202.271 25.92C202.271 26.7 202.051 27.43 201.611 28.11C201.171 28.79 200.521 29.33 199.661 29.73C198.821 30.13 197.771 30.33 196.511 30.33ZM212.711 30.3C211.911 30.3 211.211 30.17 210.611 29.91C210.031 29.65 209.541 29.23 209.141 28.65C208.761 28.07 208.481 27.3 208.301 26.34C208.141 25.38 208.091 24.19 208.151 22.77L208.541 12.75L212.051 12.3L212.321 12.27L212.351 12.54C212.271 12.68 212.191 12.82 212.111 12.96C212.031 13.1 211.981 13.34 211.961 13.68L211.631 17.82L211.781 18.03L211.541 22.71C211.481 24.01 211.521 25.02 211.661 25.74C211.821 26.44 212.051 26.92 212.351 27.18C212.671 27.44 213.051 27.57 213.491 27.57C214.131 27.57 214.701 27.44 215.201 27.18C215.721 26.92 216.201 26.62 216.641 26.28L217.361 28.74C216.681 29.24 215.951 29.63 215.171 29.91C214.411 30.17 213.591 30.3 212.711 30.3ZM205.511 16.05H216.251L216.221 18.72H205.451L205.511 16.05ZM236.261 30V27.33H239.681V18.72H236.441V16.05H243.101V27.33H246.221V30H236.261ZM241.241 13.74C240.661 13.74 240.161 13.54 239.741 13.14C239.321 12.74 239.111 12.26 239.111 11.7C239.111 11.1 239.311 10.61 239.711 10.23C240.111 9.85 240.621 9.66 241.241 9.66C241.801 9.66 242.291 9.86 242.711 10.26C243.151 10.66 243.371 11.14 243.371 11.7C243.371 12.26 243.151 12.74 242.711 13.14C242.291 13.54 241.801 13.74 241.241 13.74ZM250.391 30V16.05H253.781V17.97C254.121 17.53 254.491 17.14 254.891 16.8C255.291 16.46 255.731 16.2 256.211 16.02C256.711 15.82 257.241 15.72 257.801 15.72C258.621 15.72 259.371 15.92 260.051 16.32C260.731 16.7 261.281 17.32 261.701 18.18C262.121 19.04 262.331 20.17 262.331 21.57V30H258.941V21.63C258.941 20.85 258.861 20.22 258.701 19.74C258.541 19.26 258.301 18.91 257.981 18.69C257.681 18.45 257.321 18.33 256.901 18.33C256.521 18.33 256.141 18.41 255.761 18.57C255.401 18.71 255.071 18.93 254.771 19.23C254.471 19.53 254.231 19.89 254.051 20.31C253.871 20.71 253.781 21.17 253.781 21.69V30H250.391ZM286.001 30.33C284.761 30.33 283.591 30.15 282.491 29.79C281.411 29.41 280.511 28.84 279.791 28.08L281.441 25.29L281.561 25.05L281.831 25.2C281.871 25.34 281.921 25.49 281.981 25.65C282.061 25.81 282.221 26 282.461 26.22C282.961 26.6 283.511 26.91 284.111 27.15C284.731 27.37 285.401 27.49 286.121 27.51C286.581 27.51 287.001 27.46 287.381 27.36C287.781 27.26 288.121 27.11 288.401 26.91C288.681 26.71 288.901 26.46 289.061 26.16C289.221 25.84 289.301 25.48 289.301 25.08C289.301 24.84 289.271 24.61 289.211 24.39C289.151 24.17 289.041 23.96 288.881 23.76C288.741 23.54 288.531 23.33 288.251 23.13C287.971 22.91 287.621 22.68 287.201 22.44C286.781 22.18 286.251 21.91 285.611 21.63C284.331 21.07 283.311 20.5 282.551 19.92C281.811 19.34 281.281 18.72 280.961 18.06C280.641 17.4 280.481 16.65 280.481 15.81C280.481 14.89 280.731 14.07 281.231 13.35C281.751 12.63 282.461 12.06 283.361 11.64C284.261 11.22 285.291 11.01 286.451 11.01C287.231 11.01 287.961 11.1 288.641 11.28C289.321 11.46 289.951 11.73 290.531 12.09C291.111 12.43 291.641 12.87 292.121 13.41L290.141 15.69L289.961 15.9L289.721 15.72C289.701 15.56 289.661 15.41 289.601 15.27C289.561 15.11 289.431 14.91 289.211 14.67C288.831 14.31 288.421 14.07 287.981 13.95C287.561 13.83 287.061 13.77 286.481 13.77C286.061 13.77 285.691 13.82 285.371 13.92C285.051 14.02 284.771 14.16 284.531 14.34C284.311 14.52 284.131 14.73 283.991 14.97C283.871 15.19 283.811 15.42 283.811 15.66C283.811 15.9 283.841 16.13 283.901 16.35C283.961 16.55 284.061 16.75 284.201 16.95C284.361 17.15 284.581 17.36 284.861 17.58C285.161 17.78 285.541 18 286.001 18.24C286.461 18.48 287.031 18.75 287.711 19.05C288.651 19.49 289.441 19.92 290.081 20.34C290.721 20.74 291.221 21.17 291.581 21.63C291.961 22.07 292.231 22.56 292.391 23.1C292.551 23.62 292.631 24.21 292.631 24.87C292.631 25.77 292.401 26.64 291.941 27.48C291.481 28.32 290.761 29.01 289.781 29.55C288.801 30.07 287.541 30.33 286.001 30.33ZM301.211 30.3C299.971 30.3 298.841 30 297.821 29.4C296.821 28.78 296.031 27.92 295.451 26.82C294.871 25.72 294.581 24.45 294.581 23.01C294.581 21.63 294.871 20.39 295.451 19.29C296.031 18.19 296.821 17.32 297.821 16.68C298.841 16.04 299.971 15.72 301.211 15.72C302.471 15.72 303.601 16.04 304.601 16.68C305.621 17.32 306.421 18.19 307.001 19.29C307.601 20.39 307.901 21.63 307.901 23.01C307.901 24.45 307.601 25.72 307.001 26.82C306.421 27.92 305.621 28.78 304.601 29.4C303.601 30 302.471 30.3 301.211 30.3ZM301.211 27.6C301.871 27.6 302.441 27.41 302.921 27.03C303.401 26.63 303.781 26.09 304.061 25.41C304.361 24.71 304.511 23.91 304.511 23.01C304.511 22.07 304.361 21.26 304.061 20.58C303.781 19.9 303.401 19.38 302.921 19.02C302.441 18.64 301.871 18.45 301.211 18.45C300.611 18.45 300.061 18.64 299.561 19.02C299.081 19.38 298.691 19.9 298.391 20.58C298.111 21.26 297.971 22.07 297.971 23.01C297.971 23.91 298.111 24.71 298.391 25.41C298.671 26.09 299.051 26.63 299.531 27.03C300.031 27.41 300.591 27.6 301.211 27.6ZM312.911 18.69H309.881V16.05H312.911V15.21C312.911 13.93 313.171 12.89 313.691 12.09C314.231 11.27 314.941 10.66 315.821 10.26C316.701 9.86 317.651 9.66 318.671 9.66C319.611 9.66 320.481 9.83 321.281 10.17C322.101 10.49 322.791 10.96 323.351 11.58L322.091 13.89L321.941 14.13L321.701 13.98C321.641 13.84 321.581 13.7 321.521 13.56C321.461 13.4 321.301 13.21 321.041 12.99C320.701 12.75 320.361 12.58 320.021 12.48C319.681 12.36 319.291 12.3 318.851 12.3C318.331 12.3 317.871 12.41 317.471 12.63C317.071 12.85 316.771 13.17 316.571 13.59C316.371 14.01 316.271 14.54 316.271 15.18V16.05H320.471V18.69H316.271V30H312.911V18.69ZM332.711 30.3C331.911 30.3 331.211 30.17 330.611 29.91C330.031 29.65 329.541 29.23 329.141 28.65C328.761 28.07 328.481 27.3 328.301 26.34C328.141 25.38 328.091 24.19 328.151 22.77L328.541 12.75L332.051 12.3L332.321 12.27L332.351 12.54C332.271 12.68 332.191 12.82 332.111 12.96C332.031 13.1 331.981 13.34 331.961 13.68L331.631 17.82L331.781 18.03L331.541 22.71C331.481 24.01 331.521 25.02 331.661 25.74C331.821 26.44 332.051 26.92 332.351 27.18C332.671 27.44 333.051 27.57 333.491 27.57C334.131 27.57 334.701 27.44 335.201 27.18C335.721 26.92 336.201 26.62 336.641 26.28L337.361 28.74C336.681 29.24 335.951 29.63 335.171 29.91C334.411 30.17 333.591 30.3 332.711 30.3ZM325.511 16.05H336.251L336.221 18.72H325.451L325.511 16.05ZM341.591 30L339.011 16.05H341.951L343.541 25.59L345.521 17.61H347.291L349.631 25.53C349.811 24.21 349.951 23.09 350.051 22.17C350.171 21.25 350.261 20.47 350.321 19.83C350.381 19.19 350.421 18.64 350.441 18.18C350.461 17.7 350.471 17.26 350.471 16.86V16.05H353.351C353.231 17.53 353.061 19.07 352.841 20.67C352.621 22.27 352.371 23.86 352.091 25.44C351.831 27.02 351.561 28.54 351.281 30H348.311L346.361 22.44L344.561 30H341.591ZM359.681 30.36C358.141 30.36 356.941 30 356.081 29.28C355.241 28.54 354.821 27.59 354.821 26.43C354.821 25.69 354.981 25.01 355.301 24.39C355.641 23.75 356.141 23.2 356.801 22.74C357.461 22.28 358.281 21.93 359.261 21.69C360.241 21.43 361.361 21.3 362.621 21.3C362.781 21.3 362.981 21.3 363.221 21.3C363.461 21.3 363.721 21.31 364.001 21.33C364.281 21.33 364.541 21.35 364.781 21.39L364.871 23.73C364.671 23.71 364.431 23.7 364.151 23.7C363.871 23.68 363.581 23.67 363.281 23.67C363.001 23.65 362.761 23.64 362.561 23.64C361.761 23.64 361.081 23.7 360.521 23.82C359.981 23.94 359.541 24.11 359.201 24.33C358.861 24.53 358.611 24.78 358.451 25.08C358.291 25.36 358.211 25.67 358.211 26.01C358.211 26.33 358.261 26.6 358.361 26.82C358.481 27.04 358.631 27.22 358.811 27.36C359.011 27.48 359.241 27.57 359.501 27.63C359.761 27.69 360.041 27.72 360.341 27.72C360.941 27.72 361.461 27.63 361.901 27.45C362.361 27.25 362.741 26.94 363.041 26.52C363.361 26.1 363.591 25.58 363.731 24.96C363.891 24.32 363.971 23.57 363.971 22.71C363.971 21.55 363.851 20.66 363.611 20.04C363.371 19.42 363.021 18.99 362.561 18.75C362.101 18.49 361.521 18.36 360.821 18.36C360.181 18.36 359.571 18.47 358.991 18.69C358.431 18.89 357.881 19.27 357.341 19.83L355.481 17.79C356.261 17.05 357.131 16.52 358.091 16.2C359.051 15.88 360.011 15.72 360.971 15.72C361.851 15.72 362.671 15.82 363.431 16.02C364.191 16.22 364.851 16.56 365.411 17.04C365.991 17.5 366.441 18.14 366.761 18.96C367.101 19.76 367.271 20.76 367.271 21.96V30H363.761V28.5C363.501 28.84 363.221 29.13 362.921 29.37C362.621 29.61 362.301 29.8 361.961 29.94C361.621 30.08 361.261 30.18 360.881 30.24C360.501 30.32 360.101 30.36 359.681 30.36ZM371.411 16.05H374.921L374.891 19.95L374.501 19.71C374.581 19.09 374.751 18.54 375.011 18.06C375.291 17.58 375.631 17.16 376.031 16.8C376.451 16.44 376.901 16.17 377.381 15.99C377.881 15.81 378.391 15.72 378.911 15.72C379.691 15.72 380.391 15.85 381.011 16.11C381.651 16.35 382.241 16.75 382.781 17.31L381.341 20.16L381.251 20.4L380.981 20.28C380.921 20.12 380.861 19.96 380.801 19.8C380.741 19.62 380.591 19.42 380.351 19.2C380.071 18.98 379.771 18.81 379.451 18.69C379.151 18.57 378.821 18.51 378.461 18.51C377.981 18.51 377.521 18.59 377.081 18.75C376.641 18.91 376.251 19.16 375.911 19.5C375.591 19.84 375.331 20.28 375.131 20.82C374.951 21.34 374.861 21.96 374.861 22.68V30H371.411V16.05ZM391.871 30.33C390.871 30.33 389.941 30.17 389.081 29.85C388.241 29.53 387.501 29.07 386.861 28.47C386.241 27.85 385.761 27.09 385.421 26.19C385.081 25.29 384.911 24.27 384.911 23.13C384.911 21.97 385.081 20.93 385.421 20.01C385.761 19.09 386.221 18.31 386.801 17.67C387.401 17.03 388.101 16.55 388.901 16.23C389.701 15.89 390.561 15.72 391.481 15.72C392.301 15.72 393.071 15.86 393.791 16.14C394.511 16.42 395.141 16.85 395.681 17.43C396.241 17.99 396.681 18.7 397.001 19.56C397.321 20.4 397.481 21.38 397.481 22.5C397.481 22.7 397.471 22.94 397.451 23.22C397.451 23.5 397.441 23.74 397.421 23.94H388.181C388.221 24.6 388.351 25.17 388.571 25.65C388.791 26.11 389.081 26.49 389.441 26.79C389.801 27.09 390.201 27.32 390.641 27.48C391.081 27.62 391.541 27.69 392.021 27.69C392.441 27.69 392.841 27.65 393.221 27.57C393.621 27.49 393.991 27.35 394.331 27.15C394.691 26.95 395.031 26.69 395.351 26.37L397.091 28.05C396.651 28.57 396.151 29.01 395.591 29.37C395.051 29.71 394.461 29.95 393.821 30.09C393.201 30.25 392.551 30.33 391.871 30.33ZM388.241 21.39H394.181C394.181 20.91 394.111 20.48 393.971 20.1C393.851 19.72 393.671 19.4 393.431 19.14C393.191 18.88 392.891 18.69 392.531 18.57C392.191 18.43 391.791 18.36 391.331 18.36C390.951 18.36 390.581 18.42 390.221 18.54C389.881 18.64 389.571 18.82 389.291 19.08C389.011 19.34 388.781 19.66 388.601 20.04C388.421 20.42 388.301 20.87 388.241 21.39ZM415.001 30V11.31H419.831C420.931 11.31 421.851 11.41 422.591 11.61C423.351 11.81 423.991 12.1 424.511 12.48C425.051 12.86 425.531 13.33 425.951 13.89C426.371 14.45 426.721 15.09 427.001 15.81C427.301 16.51 427.531 17.27 427.691 18.09C427.851 18.91 427.931 19.81 427.931 20.79C427.891 22.21 427.701 23.49 427.361 24.63C427.041 25.75 426.541 26.71 425.861 27.51C425.201 28.31 424.341 28.93 423.281 29.37C422.221 29.79 420.951 30 419.471 30H415.001ZM418.301 27.36H419.381C420.661 27.36 421.681 27.09 422.441 26.55C423.221 25.99 423.781 25.22 424.121 24.24C424.461 23.26 424.621 22.12 424.601 20.82C424.601 19.44 424.451 18.24 424.151 17.22C423.871 16.2 423.371 15.41 422.651 14.85C421.931 14.29 420.951 14.01 419.711 14.01H418.301V27.36ZM436.871 30.33C435.871 30.33 434.941 30.17 434.081 29.85C433.241 29.53 432.501 29.07 431.861 28.47C431.241 27.85 430.761 27.09 430.421 26.19C430.081 25.29 429.911 24.27 429.911 23.13C429.911 21.97 430.081 20.93 430.421 20.01C430.761 19.09 431.221 18.31 431.801 17.67C432.401 17.03 433.101 16.55 433.901 16.23C434.701 15.89 435.561 15.72 436.481 15.72C437.301 15.72 438.071 15.86 438.791 16.14C439.511 16.42 440.141 16.85 440.681 17.43C441.241 17.99 441.681 18.7 442.001 19.56C442.321 20.4 442.481 21.38 442.481 22.5C442.481 22.7 442.471 22.94 442.451 23.22C442.451 23.5 442.441 23.74 442.421 23.94H433.181C433.221 24.6 433.351 25.17 433.571 25.65C433.791 26.11 434.081 26.49 434.441 26.79C434.801 27.09 435.201 27.32 435.641 27.48C436.081 27.62 436.541 27.69 437.021 27.69C437.441 27.69 437.841 27.65 438.221 27.57C438.621 27.49 438.991 27.35 439.331 27.15C439.691 26.95 440.031 26.69 440.351 26.37L442.091 28.05C441.651 28.57 441.151 29.01 440.591 29.37C440.051 29.71 439.461 29.95 438.821 30.09C438.201 30.25 437.551 30.33 436.871 30.33ZM433.241 21.39H439.181C439.181 20.91 439.111 20.48 438.971 20.1C438.851 19.72 438.671 19.4 438.431 19.14C438.191 18.88 437.891 18.69 437.531 18.57C437.191 18.43 436.791 18.36 436.331 18.36C435.951 18.36 435.581 18.42 435.221 18.54C434.881 18.64 434.571 18.82 434.291 19.08C434.011 19.34 433.781 19.66 433.601 20.04C433.421 20.42 433.301 20.87 433.241 21.39ZM449.861 30L444.611 16.05H448.151L451.721 26.04H451.241L453.131 21.48C453.511 20.52 453.811 19.58 454.031 18.66C454.271 17.74 454.421 16.87 454.481 16.05H457.661C457.561 16.93 457.341 17.86 457.001 18.84C456.681 19.82 456.311 20.83 455.891 21.87L452.531 30H449.861ZM466.871 30.33C465.871 30.33 464.941 30.17 464.081 29.85C463.241 29.53 462.501 29.07 461.861 28.47C461.241 27.85 460.761 27.09 460.421 26.19C460.081 25.29 459.911 24.27 459.911 23.13C459.911 21.97 460.081 20.93 460.421 20.01C460.761 19.09 461.221 18.31 461.801 17.67C462.401 17.03 463.101 16.55 463.901 16.23C464.701 15.89 465.561 15.72 466.481 15.72C467.301 15.72 468.071 15.86 468.791 16.14C469.511 16.42 470.141 16.85 470.681 17.43C471.241 17.99 471.681 18.7 472.001 19.56C472.321 20.4 472.481 21.38 472.481 22.5C472.481 22.7 472.471 22.94 472.451 23.22C472.451 23.5 472.441 23.74 472.421 23.94H463.181C463.221 24.6 463.351 25.17 463.571 25.65C463.791 26.11 464.081 26.49 464.441 26.79C464.801 27.09 465.201 27.32 465.641 27.48C466.081 27.62 466.541 27.69 467.021 27.69C467.441 27.69 467.841 27.65 468.221 27.57C468.621 27.49 468.991 27.35 469.331 27.15C469.691 26.95 470.031 26.69 470.351 26.37L472.091 28.05C471.651 28.57 471.151 29.01 470.591 29.37C470.051 29.71 469.461 29.95 468.821 30.09C468.201 30.25 467.551 30.33 466.871 30.33ZM463.241 21.39H469.181C469.181 20.91 469.111 20.48 468.971 20.1C468.851 19.72 468.671 19.4 468.431 19.14C468.191 18.88 467.891 18.69 467.531 18.57C467.191 18.43 466.791 18.36 466.331 18.36C465.951 18.36 465.581 18.42 465.221 18.54C464.881 18.64 464.571 18.82 464.291 19.08C464.011 19.34 463.781 19.66 463.601 20.04C463.421 20.42 463.301 20.87 463.241 21.39ZM475.631 30V27.33H479.561V12.54H475.811V9.87H482.981V27.33H486.881V30H475.631ZM496.211 30.3C494.971 30.3 493.841 30 492.821 29.4C491.821 28.78 491.031 27.92 490.451 26.82C489.871 25.72 489.581 24.45 489.581 23.01C489.581 21.63 489.871 20.39 490.451 19.29C491.031 18.19 491.821 17.32 492.821 16.68C493.841 16.04 494.971 15.72 496.211 15.72C497.471 15.72 498.601 16.04 499.601 16.68C500.621 17.32 501.421 18.19 502.001 19.29C502.601 20.39 502.901 21.63 502.901 23.01C502.901 24.45 502.601 25.72 502.001 26.82C501.421 27.92 500.621 28.78 499.601 29.4C498.601 30 497.471 30.3 496.211 30.3ZM496.211 27.6C496.871 27.6 497.441 27.41 497.921 27.03C498.401 26.63 498.781 26.09 499.061 25.41C499.361 24.71 499.511 23.91 499.511 23.01C499.511 22.07 499.361 21.26 499.061 20.58C498.781 19.9 498.401 19.38 497.921 19.02C497.441 18.64 496.871 18.45 496.211 18.45C495.611 18.45 495.061 18.64 494.561 19.02C494.081 19.38 493.691 19.9 493.391 20.58C493.111 21.26 492.971 22.07 492.971 23.01C492.971 23.91 493.111 24.71 493.391 25.41C493.671 26.09 494.051 26.63 494.531 27.03C495.031 27.41 495.591 27.6 496.211 27.6ZM505.181 35.01L505.151 16.02H508.511V17.97C508.831 17.45 509.181 17.03 509.561 16.71C509.961 16.37 510.401 16.12 510.881 15.96C511.381 15.8 511.901 15.72 512.441 15.72C513.201 15.72 513.911 15.88 514.571 16.2C515.251 16.5 515.841 16.96 516.341 17.58C516.841 18.2 517.231 18.97 517.511 19.89C517.811 20.79 517.961 21.85 517.961 23.07C517.961 24.29 517.811 25.36 517.511 26.28C517.211 27.2 516.791 27.96 516.251 28.56C515.731 29.16 515.131 29.61 514.451 29.91C513.791 30.21 513.101 30.36 512.381 30.36C511.881 30.36 511.391 30.3 510.911 30.18C510.451 30.06 510.021 29.89 509.621 29.67C509.221 29.43 508.891 29.14 508.631 28.8V35.01H505.181ZM511.451 27.72C511.891 27.72 512.301 27.64 512.681 27.48C513.061 27.32 513.391 27.06 513.671 26.7C513.971 26.32 514.201 25.82 514.361 25.2C514.521 24.58 514.601 23.81 514.601 22.89C514.601 21.97 514.481 21.18 514.241 20.52C514.001 19.84 513.661 19.32 513.221 18.96C512.781 18.6 512.251 18.41 511.631 18.39C511.151 18.37 510.721 18.45 510.341 18.63C509.981 18.81 509.671 19.1 509.411 19.5C509.151 19.9 508.951 20.41 508.811 21.03C508.671 21.65 508.601 22.4 508.601 23.28C508.621 23.88 508.671 24.42 508.751 24.9C508.831 25.38 508.941 25.8 509.081 26.16C509.241 26.5 509.431 26.79 509.651 27.03C509.871 27.25 510.131 27.42 510.431 27.54C510.731 27.66 511.071 27.72 511.451 27.72ZM519.641 30V16.05H522.491V17.07C522.731 16.75 522.981 16.49 523.241 16.29C523.501 16.09 523.771 15.95 524.051 15.87C524.351 15.77 524.641 15.72 524.921 15.72C525.261 15.72 525.581 15.78 525.881 15.9C526.181 16 526.451 16.18 526.691 16.44C526.951 16.68 527.151 17 527.291 17.4C527.511 17.02 527.761 16.71 528.041 16.47C528.321 16.21 528.641 16.02 529.001 15.9C529.381 15.78 529.791 15.72 530.231 15.72C530.751 15.72 531.191 15.81 531.551 15.99C531.911 16.17 532.201 16.43 532.421 16.77C532.661 17.11 532.831 17.53 532.931 18.03C533.031 18.53 533.081 19.09 533.081 19.71V30H530.141V20.43C530.141 19.83 530.111 19.37 530.051 19.05C529.991 18.71 529.901 18.48 529.781 18.36C529.661 18.22 529.501 18.15 529.301 18.15C529.041 18.15 528.791 18.28 528.551 18.54C528.311 18.78 528.111 19.12 527.951 19.56C527.811 19.98 527.741 20.48 527.741 21.06V30H524.981V20.52C524.981 19.56 524.911 18.92 524.771 18.6C524.631 18.28 524.371 18.12 523.991 18.12C523.811 18.12 523.631 18.18 523.451 18.3C523.291 18.42 523.141 18.6 523.001 18.84C522.881 19.06 522.781 19.35 522.701 19.71C522.621 20.05 522.581 20.44 522.581 20.88V30H519.641ZM541.871 30.33C540.871 30.33 539.941 30.17 539.081 29.85C538.241 29.53 537.501 29.07 536.861 28.47C536.241 27.85 535.761 27.09 535.421 26.19C535.081 25.29 534.911 24.27 534.911 23.13C534.911 21.97 535.081 20.93 535.421 20.01C535.761 19.09 536.221 18.31 536.801 17.67C537.401 17.03 538.101 16.55 538.901 16.23C539.701 15.89 540.561 15.72 541.481 15.72C542.301 15.72 543.071 15.86 543.791 16.14C544.511 16.42 545.141 16.85 545.681 17.43C546.241 17.99 546.681 18.7 547.001 19.56C547.321 20.4 547.481 21.38 547.481 22.5C547.481 22.7 547.471 22.94 547.451 23.22C547.451 23.5 547.441 23.74 547.421 23.94H538.181C538.221 24.6 538.351 25.17 538.571 25.65C538.791 26.11 539.081 26.49 539.441 26.79C539.801 27.09 540.201 27.32 540.641 27.48C541.081 27.62 541.541 27.69 542.021 27.69C542.441 27.69 542.841 27.65 543.221 27.57C543.621 27.49 543.991 27.35 544.331 27.15C544.691 26.95 545.031 26.69 545.351 26.37L547.091 28.05C546.651 28.57 546.151 29.01 545.591 29.37C545.051 29.71 544.461 29.95 543.821 30.09C543.201 30.25 542.551 30.33 541.871 30.33ZM538.241 21.39H544.181C544.181 20.91 544.111 20.48 543.971 20.1C543.851 19.72 543.671 19.4 543.431 19.14C543.191 18.88 542.891 18.69 542.531 18.57C542.191 18.43 541.791 18.36 541.331 18.36C540.951 18.36 540.581 18.42 540.221 18.54C539.881 18.64 539.571 18.82 539.291 19.08C539.011 19.34 538.781 19.66 538.601 20.04C538.421 20.42 538.301 20.87 538.241 21.39ZM550.391 30V16.05H553.781V17.97C554.121 17.53 554.491 17.14 554.891 16.8C555.291 16.46 555.731 16.2 556.211 16.02C556.711 15.82 557.241 15.72 557.801 15.72C558.621 15.72 559.371 15.92 560.051 16.32C560.731 16.7 561.281 17.32 561.701 18.18C562.121 19.04 562.331 20.17 562.331 21.57V30H558.941V21.63C558.941 20.85 558.861 20.22 558.701 19.74C558.541 19.26 558.301 18.91 557.981 18.69C557.681 18.45 557.321 18.33 556.901 18.33C556.521 18.33 556.141 18.41 555.761 18.57C555.401 18.71 555.071 18.93 554.771 19.23C554.471 19.53 554.231 19.89 554.051 20.31C553.871 20.71 553.781 21.17 553.781 21.69V30H550.391ZM572.711 30.3C571.911 30.3 571.211 30.17 570.611 29.91C570.031 29.65 569.541 29.23 569.141 28.65C568.761 28.07 568.481 27.3 568.301 26.34C568.141 25.38 568.091 24.19 568.151 22.77L568.541 12.75L572.051 12.3L572.321 12.27L572.351 12.54C572.271 12.68 572.191 12.82 572.111 12.96C572.031 13.1 571.981 13.34 571.961 13.68L571.631 17.82L571.781 18.03L571.541 22.71C571.481 24.01 571.521 25.02 571.661 25.74C571.821 26.44 572.051 26.92 572.351 27.18C572.671 27.44 573.051 27.57 573.491 27.57C574.131 27.57 574.701 27.44 575.201 27.18C575.721 26.92 576.201 26.62 576.641 26.28L577.361 28.74C576.681 29.24 575.951 29.63 575.171 29.91C574.411 30.17 573.591 30.3 572.711 30.3ZM565.511 16.05H576.251L576.221 18.72H565.451L565.511 16.05Z" fill="white"/>
<rect width="21.8527" height="3" fill="#D9D9D9"/>
<rect y="20" width="20" height="3.2779" transform="rotate(-90 0 20)" fill="#D9D9D9"/>
</svg>
