<svg width="21" height="21" viewBox="0 0 21 21" fill="none" xmlns="http://www.w3.org/2000/svg">
<path fill-rule="evenodd" clip-rule="evenodd" d="M10.5 10.5C10.5 9.05028 11.6753 7.875 13.125 7.875C14.5747 7.875 15.75 9.05028 15.75 10.5C15.75 11.9497 14.5747 13.125 13.125 13.125C11.6753 13.125 10.5 11.9497 10.5 10.5Z" fill="#1ABCFE"/>
<path fill-rule="evenodd" clip-rule="evenodd" d="M5.25 15.75C5.25 14.3003 6.42525 13.125 7.875 13.125H10.5V15.75C10.5 17.1997 9.32472 18.375 7.875 18.375C6.42525 18.375 5.25 17.1997 5.25 15.75Z" fill="#0ACF83"/>
<path fill-rule="evenodd" clip-rule="evenodd" d="M10.5 2.625V7.875H13.125C14.5747 7.875 15.75 6.69972 15.75 5.25C15.75 3.80025 14.5747 2.625 13.125 2.625H10.5Z" fill="#FF7262"/>
<path fill-rule="evenodd" clip-rule="evenodd" d="M5.25 5.25C5.25 6.69972 6.42525 7.875 7.875 7.875H10.5V2.625H7.875C6.42525 2.625 5.25 3.80025 5.25 5.25Z" fill="#F24E1E"/>
<path fill-rule="evenodd" clip-rule="evenodd" d="M5.25 10.5C5.25 11.9497 6.42525 13.125 7.875 13.125H10.5V7.875H7.875C6.42525 7.875 5.25 9.05028 5.25 10.5Z" fill="#A259FF"/>
</svg>
