<svg width="21" height="21" viewBox="0 0 21 21" fill="none" xmlns="http://www.w3.org/2000/svg">
<g clip-path="url(#clip0_33_63)">
<path d="M17.85 0H3.15C1.4103 0 0 1.4103 0 3.15V17.85C0 19.5897 1.4103 21 3.15 21H17.85C19.5897 21 21 19.5897 21 17.85V3.15C21 1.4103 19.5897 0 17.85 0Z" fill="#3178C6"/>
<path d="M9.55664 11.6485H12.1816V9.96682H4.83984V11.6485H7.46484V19.1543H9.55664V11.6485ZM13.002 18.7442C13.3342 18.9164 13.7402 19.0436 14.1914 19.1297C14.6426 19.2158 15.1348 19.2569 15.627 19.2569C16.1191 19.2569 16.5703 19.2117 17.0215 19.1174C17.4727 19.0231 17.8418 18.8672 18.1699 18.6662C18.5021 18.4488 18.7852 18.174 18.9492 17.8049C19.1133 17.4358 19.2404 17.0256 19.2404 16.4924C19.2404 16.1192 19.183 15.7951 19.0723 15.508C18.9615 15.2209 18.8016 14.9748 18.5801 14.7697C18.3709 14.5524 18.1289 14.3596 17.8418 14.1955C17.5547 14.0315 17.2266 13.8592 16.8574 13.7033C16.5867 13.5926 16.3652 13.486 16.1191 13.3793C15.9059 13.2727 15.7213 13.166 15.5859 13.0594C15.4342 12.9487 15.3193 12.8338 15.2373 12.7149C15.1553 12.5918 15.1143 12.4565 15.1143 12.3047C15.1143 12.1653 15.1508 12.0381 15.225 11.9233C15.2992 11.8084 15.4014 11.7141 15.5326 11.6321C15.6639 11.55 15.8279 11.4885 16.0248 11.4434C16.2176 11.3983 16.4309 11.3778 16.6811 11.3778C16.8533 11.3778 17.0338 11.3905 17.2143 11.4163C17.4029 11.4421 17.5957 11.4819 17.7885 11.5353C17.9813 11.5886 18.1699 11.6542 18.3627 11.7362C18.5432 11.8183 18.7113 11.9126 18.8549 12.0192V10.0915C18.5432 9.97256 18.1986 9.88232 17.8295 9.8249C17.4604 9.76748 17.0502 9.73877 16.558 9.73877C16.0658 9.73877 15.6146 9.79209 15.1635 9.89463C14.7123 9.99717 14.3432 10.1612 14.015 10.3868C13.6828 10.6083 13.4408 10.879 13.2357 11.2481C13.043 11.5927 12.9486 11.9864 12.9486 12.4786C12.9486 13.0938 13.125 13.6271 13.4818 14.0372C13.8346 14.4884 14.3842 14.8165 15.0814 15.1446C15.3645 15.2595 15.6146 15.3743 15.8607 15.4851C16.1068 15.5958 16.3119 15.7106 16.476 15.8296C16.6523 15.9485 16.7918 16.0798 16.8861 16.2192C16.9887 16.3587 17.042 16.5228 17.042 16.7114C17.042 16.8427 17.01 16.9657 16.9477 17.0806C16.8853 17.1954 16.7877 17.2938 16.6564 17.3759C16.5252 17.4579 16.3652 17.5235 16.1643 17.5728C15.9715 17.6179 15.7541 17.6425 15.467 17.6425C15.0158 17.6425 14.5646 17.5646 14.1545 17.4087C13.7033 17.2528 13.2932 17.019 13.002 16.7754V18.7442Z" fill="white"/>
</g>
<defs>
<clipPath id="clip0_33_63">
<rect width="21" height="21" fill="white"/>
</clipPath>
</defs>
</svg>
